<!-- Generator: Adobe Illustrator 21.1.0, SVG Export Plug-In  -->
<svg version="1.1"
	 xmlns="http://www.w3.org/2000/svg" xmlns:xlink="http://www.w3.org/1999/xlink" xmlns:a="http://ns.adobe.com/AdobeSVGViewerExtensions/3.0/"
	 x="0px" y="0px" width="261.5px" height="261.5px" viewBox="0 0 261.5 261.5" style="enable-background:new 0 0 261.5 261.5;"
	 xml:space="preserve">
<style type="text/css">
	.st0{fill:#333756;}
</style>
<defs>
</defs>
<g>
	<path class="st0" d="M220.4,261.5v-21.7h41V41h-41V0L21.7,0v41H0l0,198.7h21.7v21.7 M0,220.5L0,150h45.8v-19.3H0l0-70.4h21.7v45.8
		H41V60.3h45.8V41H41V19.3h70.4v45.8h19.3V19.3h70.4V41h-45.8v19.3h45.8v45.8h19.3V60.3h21.7v70.4h-45.8V150h45.8v70.4h-21.7v-45.8
		h-19.3v45.8h-45.8v19.3h45.8v21.7h-70.4v-45.8h-19.3v45.8H41v-21.7h45.8v-19.3H41v-45.8H21.7v45.8H0z"/>
	<path class="st0" d="M70.9,190.9h100.9V89.9H70.9V190.9z M90.2,109.2h62.3v62.3H90.2V109.2z"/>
</g>
</svg>
