<!-- Generator: Adobe Illustrator 21.1.0, SVG Export Plug-In  -->
<svg version="1.1"
	 xmlns="http://www.w3.org/2000/svg" xmlns:xlink="http://www.w3.org/1999/xlink" xmlns:a="http://ns.adobe.com/AdobeSVGViewerExtensions/3.0/"
	 x="0px" y="0px" width="261.5px" height="261.5px" viewBox="0 0 261.5 261.5" style="enable-background:new 0 0 261.5 261.5;"
	 xml:space="preserve">
<style type="text/css">
	.st0{fill:#333756;}
</style>
<defs>
</defs>
<g>
	<path class="st0" d="M239.8,261.5v-21.7h21.7V41h-21.7V0H41v41H0v198.7h41v21.7 M239.8,220.5v-45.8h-19.3v45.8h-45.8v19.3h45.8
		v21.7H150v-45.8h-19.3v45.8H60.3v-21.7h45.8v-19.3H60.3v-45.8H41v45.8H19.3V150h45.8v-19.3H19.3V60.3H41v45.8h19.3V60.3h45.8V41
		H60.3V19.3h70.4v45.8H150V19.3h70.4V41h-45.8v19.3h45.8v45.8h19.3V60.3h21.7v70.4h-45.8V150h45.8v70.4H239.8z"/>
	<path class="st0" d="M190.5,89.9H89.6v100.9h100.9V89.9z M171.2,171.6h-62.3v-62.3h62.3V171.6z"/>
</g>
</svg>
