<!-- Generator: Adobe Illustrator 21.1.0, SVG Export Plug-In  -->
<svg version="1.1"
	 xmlns="http://www.w3.org/2000/svg" xmlns:xlink="http://www.w3.org/1999/xlink" xmlns:a="http://ns.adobe.com/AdobeSVGViewerExtensions/3.0/"
	 x="0px" y="0px" width="31.1px" height="31px" viewBox="0 0 31.1 31" style="enable-background:new 0 0 31.1 31;"
	 xml:space="preserve">
<style type="text/css">
	.st0{fill:#353957;}
</style>
<defs>
</defs>
<g>
	<path class="st0" d="M8.8,17.8c-0.4-0.4-1-0.4-1.4,0L0.3,25c-0.4,0.4-0.4,1,0,1.4c0.2,0.2,0.5,0.3,0.7,0.3s0.5-0.1,0.7-0.3l7.1-7.1
		C9.2,18.8,9.2,18.2,8.8,17.8z"/>
	<path class="st0" d="M11.7,22.1l-7.1,7.1c-0.4,0.4-0.4,1,0,1.4C4.8,30.9,5,31,5.3,31s0.5-0.1,0.7-0.3l7.1-7.1c0.4-0.4,0.4-1,0-1.4
		S12.1,21.7,11.7,22.1z"/>
	<path class="st0" d="M31.1,1.1c0-0.1,0-0.1,0-0.2c0-0.1,0-0.1,0-0.2c0-0.1-0.1-0.1-0.1-0.2c0,0,0-0.1-0.1-0.1c0,0,0,0,0,0
		c0,0-0.1-0.1-0.1-0.1c0,0-0.1-0.1-0.1-0.1c0,0,0,0,0,0c0,0-0.1,0-0.1-0.1c-0.1,0-0.1-0.1-0.2-0.1c-0.1,0-0.1,0-0.2,0
		c-0.1,0-0.1,0-0.2,0c-0.1,0-0.1,0-0.2,0c0,0-0.1,0-0.1,0L8,9.6c-0.4,0.2-0.6,0.5-0.6,0.9c0,0.4,0.2,0.7,0.6,0.9l7.9,3.9l3.9,7.9
		c0.2,0.3,0.5,0.6,0.9,0.6c0,0,0,0,0,0c0.4,0,0.7-0.2,0.9-0.6L31,1.4c0,0,0-0.1,0-0.1C31.1,1.2,31.1,1.1,31.1,1.1z M25.7,4l-8.2,8.2
		l-1.1,1.1l-5.6-2.7L25.7,4z M20.6,20.3l-2.7-5.6l1.1-1.1l8.2-8.2L20.6,20.3z"/>
</g>
</svg>
