<!-- Generator: Adobe Illustrator 21.1.0, SVG Export Plug-In  -->
<svg version="1.1"
	 xmlns="http://www.w3.org/2000/svg" xmlns:xlink="http://www.w3.org/1999/xlink" xmlns:a="http://ns.adobe.com/AdobeSVGViewerExtensions/3.0/"
	 x="0px" y="0px" width="37.8px" height="46.3px" viewBox="0 0 37.8 46.3" style="enable-background:new 0 0 37.8 46.3;"
	 xml:space="preserve">
<style type="text/css">
	.st0{fill:#99772C;}
	.st1{fill:#D5B865;}
	.st2{fill:none;stroke:#EFE4C4;stroke-width:1.0825;stroke-miterlimit:10;}
	.st3{fill:#C3A047;}
</style>
<defs>
</defs>
<g>
	<g>
		<path class="st0" d="M0,28.8C0.5,41,8.7,48.2,18.3,44.9c9.6-3.3,16.9-15.8,16.4-28C34.1,4.7,26-2.5,16.4,0.8S-0.5,16.6,0,28.8z"/>
	</g>
	<g>
		<path class="st1" d="M3.2,29.4c0.5,12.2,8.7,19.4,18.3,16.1c9.6-3.3,16.9-15.8,16.4-28C37.3,5.4,29.1-1.8,19.6,1.4
			S2.7,17.3,3.2,29.4z"/>
	</g>
	<g>
		<path class="st2" d="M5.3,28.7c0.5,10.7,7.6,17.1,16.1,14.2S36.2,29,35.7,18.3C35.3,7.6,28.1,1.2,19.7,4.1S4.8,18,5.3,28.7z"/>
	</g>
	<path class="st3" d="M26.2,16.2c-0.1-2.5-1.5-2.7-3.3-2l0.1-3.6l-1.4,0.7l-0.1,3.5c-0.4,0.2-0.7,0.4-1.1,0.6l0.1-3.6l-1.4,0.7
		L19,16.1c-0.3,0.2-0.6,0.3-0.9,0.5l0,0l-1.9,1l-0.1,2.4c0,0,1-0.6,1-0.5c0.6-0.3,0.7,0.1,0.8,0.6l-0.1,4.1c0,0,0.1,0,0.1-0.1
		l-0.1,0.1l-0.2,5.8c0,0.3-0.2,0.8-0.6,1c0,0-1,0.5-1,0.5l-0.4,2.8l1.8-0.9c0.3-0.2,0.7-0.3,1-0.5l-0.1,3.7l1.4-0.7l0.1-3.6
		c0.4-0.2,0.8-0.4,1.1-0.5l-0.1,3.6l1.4-0.7l0.1-3.7c2.4-1.4,4-3.2,4.4-6.8c0.3-2.9-0.5-3.7-1.9-3.6C25.7,19.4,26.3,18,26.2,16.2
		L26.2,16.2z M24,25c-0.1,2.7-3.1,3.9-4,4.4l0.2-4.9C21.1,24.1,24.1,22.2,24,25L24,25z M23.6,18.5c-0.1,2.5-2.6,3.5-3.4,3.9l0.1-4.4
		C21.2,17.5,23.7,15.9,23.6,18.5z"/>
</g>
</svg>
