<?xml version="1.0" encoding="utf-8"?>
<!-- Generator: Adobe Illustrator 21.1.0, SVG Export Plug-In . SVG Version: 6.00 Build 0)  -->
<svg version="1.1" id="Layer_1" xmlns="http://www.w3.org/2000/svg" xmlns:xlink="http://www.w3.org/1999/xlink" x="0px" y="0px"
	 viewBox="0 0 243.5 195.9" style="enable-background:new 0 0 243.5 195.9;" xml:space="preserve">
<style type="text/css">
	.st0{fill:#E4D7AF;}
	.st1{fill:url(#SVGID_1_);}
	.st2{fill:#DAC380;}
	.st3{fill:#D5B865;}
	.st4{fill:none;stroke:#1A2147;stroke-width:2;stroke-linecap:round;stroke-linejoin:round;stroke-miterlimit:10;}
	.st5{fill:#1A2147;}
	.st6{fill:none;}
	.st7{fill:none;stroke:#D5B865;stroke-width:2;stroke-linecap:round;stroke-linejoin:round;stroke-miterlimit:10;}
	.st8{fill:url(#SVGID_2_);}
	.st9{fill:url(#SVGID_3_);}
	.st10{fill:url(#SVGID_4_);}
</style>
<polygon class="st0" points="242.5,85.7 105,169.8 1,111.8 138.9,27.9 "/>
<linearGradient id="SVGID_1_" gradientUnits="userSpaceOnUse" x1="105" y1="57.7" x2="242.5" y2="57.7" gradientTransform="matrix(1 0 0 -1 0 198)">
	<stop  offset="0" style="stop-color:#D5B865"/>
	<stop  offset="1" style="stop-color:#E4D7AF"/>
</linearGradient>
<polygon class="st1" points="242.5,110.8 105,194.9 105,169.8 242.5,85.7 "/>
<polygon class="st2" points="105,194.9 1,136.9 1,111.8 105,169.8 "/>
<path class="st3" d="M105,195.9c-0.2,0-0.3,0-0.5-0.1l-104-57.9C0.2,137.7,0,137.4,0,137v-25.1c0-0.4,0.2-0.7,0.5-0.9
	c0.3-0.2,0.7-0.2,1,0l104,57.9c0.3,0.2,0.5,0.5,0.5,0.9v25.1c0,0.4-0.2,0.7-0.5,0.9C105.3,195.8,105.1,195.9,105,195.9z M2,136.4
	l102,56.8v-22.8L2,113.5V136.4z"/>
<path class="st4" d="M199.4,83.9"/>
<path class="st4" d="M95.8,26.1"/>
<path class="st5" d="M145.1,96"/>
<path class="st3" d="M105,195.9c-0.3,0-0.7-0.2-0.9-0.5c-0.3-0.5-0.1-1.1,0.3-1.4l137.1-83.8v-24L138.9,29.1L1.5,112.7
	c-0.5,0.3-1.1,0.1-1.4-0.3c-0.3-0.5-0.1-1.1,0.3-1.4l137.9-83.9c0.3-0.2,0.7-0.2,1,0L243,84.8c0.3,0.2,0.5,0.5,0.5,0.9v25.1
	c0,0.3-0.2,0.7-0.5,0.9l-137.6,84.1C105.3,195.8,105.1,195.9,105,195.9z"/>
<g>
	<line class="st6" x1="105" y1="169.8" x2="242.5" y2="85.7"/>
	<path class="st3" d="M105,170.8c-0.3,0-0.7-0.2-0.9-0.5c-0.3-0.5-0.1-1.1,0.3-1.4L242,84.8c0.5-0.3,1.1-0.1,1.4,0.3
		c0.3,0.5,0.1,1.1-0.3,1.4l-137.6,84.1C105.3,170.7,105.1,170.8,105,170.8z"/>
</g>
<path class="st7" d="M182.6,65.8"/>
<path class="st7" d="M102.9,21.4"/>
<path class="st5" d="M140.8,75.1"/>
<polygon class="st0" points="212.7,45.4 107,110.1 27.1,65.5 133.1,1 "/>
<linearGradient id="SVGID_2_" gradientUnits="userSpaceOnUse" x1="107" y1="99.75" x2="212.7" y2="99.75" gradientTransform="matrix(1 0 0 -1 0 198)">
	<stop  offset="0" style="stop-color:#D5B865"/>
	<stop  offset="1" style="stop-color:#E4D7AF"/>
</linearGradient>
<polygon class="st8" points="212.7,86.5 107,151.1 107,110.1 212.7,45.4 "/>
<linearGradient id="SVGID_3_" gradientUnits="userSpaceOnUse" x1="19.7404" y1="100.6223" x2="114.3596" y2="78.7777" gradientTransform="matrix(1 0 0 -1 0 198)">
	<stop  offset="0" style="stop-color:#D5B865"/>
	<stop  offset="1" style="stop-color:#E4D7AF"/>
</linearGradient>
<polygon class="st9" points="107,151.1 27.1,106.6 27.1,65.5 107,110.1 "/>
<path class="st3" d="M107,152.1c-0.2,0-0.3,0-0.5-0.1l-79.9-44.5c-0.3-0.2-0.5-0.5-0.5-0.9V65.5c0-0.4,0.2-0.7,0.5-0.9
	c0.3-0.2,0.7-0.2,1,0l79.9,44.5c0.3,0.2,0.5,0.5,0.5,0.9v41.1c0,0.4-0.2,0.7-0.5,0.9C107.3,152.1,107.2,152.1,107,152.1z M28.1,106
	l77.9,43.4v-38.8L28.1,67.2V106z"/>
<path class="st3" d="M107,152.1c-0.3,0-0.7-0.2-0.9-0.5c-0.3-0.5-0.1-1.1,0.3-1.4l105.3-64.4V46L133.1,2.2L27.6,66.4
	c-0.5,0.3-1.1,0.1-1.4-0.3c-0.3-0.5-0.1-1.1,0.3-1.4l106-64.5c0.3-0.2,0.7-0.2,1,0l79.7,44.4c0.3,0.2,0.5,0.5,0.5,0.9v41.1
	c0,0.3-0.2,0.7-0.5,0.9L107.5,152C107.4,152.1,107.2,152.1,107,152.1z"/>
<path class="st7" d="M99.9,21.4"/>
<path class="st3" d="M107,111.1c-0.3,0-0.7-0.2-0.9-0.5c-0.3-0.5-0.1-1.1,0.3-1.4l105.7-64.6c0.5-0.3,1.1-0.1,1.4,0.3
	c0.3,0.5,0.1,1.1-0.3,1.4l-105.7,64.6C107.4,111,107.2,111.1,107,111.1z"/>
<path class="st5" d="M137.9,75.1"/>
<linearGradient id="SVGID_4_" gradientUnits="userSpaceOnUse" x1="85.8" y1="143.9" x2="154.9" y2="143.9" gradientTransform="matrix(1 0 0 -1 0 198)">
	<stop  offset="0.289" style="stop-color:#B0955B"/>
	<stop  offset="0.9997" style="stop-color:#D5B865"/>
</linearGradient>
<polygon class="st10" points="142.5,73.7 85.8,42.1 98.2,34.5 154.9,66.1 "/>
</svg>
