<?xml version="1.0" encoding="utf-8"?>
<!-- Generator: Adobe Illustrator 21.1.0, SVG Export Plug-In . SVG Version: 6.00 Build 0)  -->
<svg version="1.1" id="Layer_1" xmlns="http://www.w3.org/2000/svg" xmlns:xlink="http://www.w3.org/1999/xlink" x="0px" y="0px"
	 viewBox="0 0 132.6 260.9" style="enable-background:new 0 0 132.6 260.9;" xml:space="preserve">
<style type="text/css">
	.st0{fill:#25527F;}
	.st1{opacity:0.4;fill:#25527F;enable-background:new    ;}
	.st2{fill:#1A2147;}
	.st3{opacity:0.3;fill:url(#SVGID_1_);enable-background:new    ;}
	.st4{opacity:0.3;}
	.st5{opacity:0.38;}
</style>
<g>
	<polygon class="st0" points="97.7,130.3 89.8,134.1 89.8,56 97.7,51.2 	"/>
	<polygon class="st1" points="97.7,130.3 89.8,134.1 89.8,56 97.7,51.2 	"/>
	<polygon class="st0" points="89.8,56 1,6.5 10,1 97.7,51.2 	"/>
	<g>
		<path class="st0" d="M1,6.5v78.1l88.8,49.5V56L1,6.5z"/>
	</g>
	<g>
		<path class="st2" d="M89.8,135.1c-0.2,0-0.3,0-0.5-0.1L0.5,85.4C0.2,85.3,0,84.9,0,84.6V6.5C0,6.3,0,6.2,0.1,6s0.3-0.4,0.5-0.4
			c0.1,0,0.1,0,0.2,0l0,0l0,0c0.2,0,0.5,0,0.7,0.1l88.8,49.5l0,0l0,0l0,0l0,0c0.2,0.1,0.4,0.3,0.4,0.5c0,0,0,0.1,0,0.2l0,0l0,0
			c0,0.1,0,0.1,0,0.2v78.1c0,0.4-0.2,0.7-0.5,0.9C90.2,135.1,90,135.1,89.8,135.1z M2,84l86.8,48.4V56.6L2,8.2V84z"/>
	</g>
	<g>
		<path class="st2" d="M97.7,131.3c-0.6,0-1-0.4-1-1V51.8L9.5,1.9C9,1.6,8.9,1,9.1,0.5C9.4,0,10-0.1,10.5,0.1l87.7,50.2
			c0.3,0.2,0.5,0.5,0.5,0.9v79.1C98.7,130.8,98.2,131.3,97.7,131.3z"/>
	</g>
	<path class="st2" d="M89.8,57c-0.3,0-0.7-0.2-0.9-0.5c-0.3-0.5-0.1-1.1,0.3-1.4l7.8-4.8c0.5-0.3,1.1-0.1,1.4,0.3
		c0.3,0.5,0.1,1.1-0.3,1.4l-7.8,4.8C90.2,57,90,57,89.8,57z"/>
	<path class="st2" d="M89.8,135.1c-0.4,0-0.7-0.2-0.9-0.6c-0.2-0.5,0-1.1,0.5-1.3l7.8-3.8c0.5-0.2,1.1,0,1.3,0.5
		c0.2,0.5,0,1.1-0.5,1.3l-7.8,3.8C90.1,135.1,90,135.1,89.8,135.1z"/>
	<path class="st2" d="M1,7.5C0.7,7.5,0.3,7.3,0.1,7C-0.1,6.5,0,5.9,0.5,5.6l9-5.5C10-0.1,10.6,0,10.9,0.5C11.2,1,11,1.6,10.5,1.9
		l-9,5.5C1.4,7.4,1.2,7.5,1,7.5z"/>
</g>
<path class="st2" d="M44.1,210.7c-0.6,0-1-0.4-1-1V108.6c0-0.6,0.4-1,1-1s1,0.4,1,1v101.1C45.1,210.3,44.7,210.7,44.1,210.7z"/>
<linearGradient id="SVGID_1_" gradientUnits="userSpaceOnUse" x1="43.1034" y1="27.1983" x2="132.5966" y2="27.1983" gradientTransform="matrix(1 0 0 -1 0 262)">
	<stop  offset="2.403687e-02" style="stop-color:#E1B947;stop-opacity:0.98"/>
	<stop  offset="1" style="stop-color:#F0F0F3;stop-opacity:0"/>
</linearGradient>
<path class="st3" d="M131.6,260.9c-0.2,0-0.3,0-0.5-0.1l-87.5-50.2c-0.5-0.3-0.6-0.9-0.4-1.4c0.3-0.5,0.9-0.6,1.4-0.4l87.5,50.2
	c0.5,0.3,0.6,0.9,0.4,1.4C132.3,260.7,132,260.9,131.6,260.9z"/>
<g class="st4">
	<path class="st2" d="M12.6,67.7l-0.3-14.4l4,2.2c2.3,1.3,3.3,4.2,3.4,6.7c0,2.1-0.7,3.6-2.2,3.3l2.5,6.3l-2.7-1.5l-2.2-6l-0.2-0.1
		L15,69L12.6,67.7z M14.7,57.6l0.1,3.5l1.5,0.9c0.8,0.4,1-0.3,1-1.2s-0.3-1.9-1.1-2.3L14.7,57.6z"/>
	<path class="st2" d="M28,72.3l-4.7-2.6c0.1,1,0.8,1.9,1.5,2.3c0.4,0.2,0.9,0.3,1.2-0.1c0.3,0.5,1.2,1.9,1.6,2.5
		c-0.7,1-1.9,0.8-2.9,0.2c-1.9-1-3.5-4-3.6-7.1s1.5-4.2,3.4-3.1c1.9,1,3.4,3.8,3.5,6.9C28,71.5,28,72,28,72.3z M25.9,69.2
		c-0.2-1.4-1-2-1.3-2.2s-1.1-0.4-1.3,0.7L25.9,69.2z"/>
	<path class="st2" d="M36,78.4c-0.6,1.1-1.6,1.5-2.8,0.8c-1.9-1.1-3.7-4-3.7-7.1C29.3,69,31,67.9,32.9,69c1.3,0.7,2.2,2.2,2.9,4
		L34,73.6c-0.2-0.7-0.7-1.3-1.2-1.6c-0.7-0.4-1.3,0.2-1.3,1.3c0,1.1,0.7,2.4,1.4,2.8c0.5,0.3,0.9,0.1,1.1-0.3L36,78.4z"/>
	<path class="st2" d="M44.1,81.2l-4.7-2.6c0.1,1,0.8,1.9,1.5,2.3c0.4,0.2,0.9,0.3,1.2-0.1c0.3,0.5,1.2,1.9,1.6,2.5
		c-0.7,1-1.9,0.8-2.9,0.2c-1.9-1-3.5-4-3.6-7.1s1.5-4.2,3.4-3.1c1.9,1,3.4,3.8,3.5,6.9C44.1,80.4,44.1,80.9,44.1,81.2z M42,78.2
		c-0.2-1.4-1-2-1.3-2.2s-1.1-0.4-1.3,0.7L42,78.2z"/>
	<path class="st2" d="M46.8,71.9c0.7,0.4,1.3,1.6,1.4,2.6c0,1-0.5,1.6-1.3,1.2c-0.7-0.4-1.4-1.6-1.4-2.7C45.4,72,46,71.5,46.8,71.9z
		 M46,86.2l2.2,1.2L48,77.6l-2.2-1.2L46,86.2z"/>
	<path class="st2" d="M52.3,89.7l-3-11.3l2.4,1.3l1.5,6.3l1.2-4.8l2.4,1.3l-2.6,8.2L52.3,89.7z"/>
	<path class="st2" d="M59.2,78.8c0.7,0.4,1.3,1.6,1.4,2.6c0,1-0.5,1.6-1.3,1.2c-0.7-0.4-1.4-1.6-1.4-2.7
		C57.9,78.9,58.5,78.4,59.2,78.8z M58.4,93.1l2.2,1.2l-0.2-9.8l-2.2-1.2L58.4,93.1z"/>
	<path class="st2" d="M65.1,96.8l-2.2-1.2l-0.2-9.8l2.2,1.2v1.5c0.2-1.1,1.2-1.1,1.8-0.8c1.7,1,2.6,3.2,2.7,6.3l0.1,5.2L67.3,98
		l-0.1-5.1c0-1.3-0.6-2-1.1-2.3s-1.1-0.2-1.1,1L65.1,96.8z"/>
	<path class="st2" d="M73.3,102c0.2,0.9,0.8,1.7,1.5,2.1c1.1,0.6,1.7-0.1,1.7-2.2c-0.3,0.6-1,0.8-2,0.3c-1.6-0.9-3.2-3.7-3.3-6.9
		c-0.1-3.2,1.5-4.2,3.1-3.3c0.7,0.4,1.4,1.2,1.8,2.3v-1l2.2,1.2l0.2,8.5c0.1,4.1-1.2,5.4-3.6,4.1c-1.5-0.9-2.8-2.9-3.4-5L73.3,102z
		 M74.8,99.4c0.7,0.4,1.3-0.2,1.3-1.3c0-1.1-0.7-2.4-1.4-2.8c-0.7-0.4-1.3,0.2-1.3,1.3C73.5,97.7,74.1,99,74.8,99.4z"/>
</g>
<g class="st5">
	<path class="st2" d="M50.7,58.4c-0.4,0-0.8-0.2-1-0.6l-4.3-7.3l-2.8,2.4c-0.5,0.4-1.2,0.4-1.7-0.1c-0.4-0.5-0.4-1.2,0.1-1.7
		l3.9-3.4c0.3-0.2,0.6-0.3,1-0.3c0.4,0.1,0.7,0.3,0.8,0.6l5,8.5c0.3,0.6,0.1,1.3-0.4,1.6C51.1,58.3,50.9,58.4,50.7,58.4z"/>
	<path class="st2" d="M45.7,62.1c-0.7,0-1.2-0.5-1.2-1.2V50.4c0-0.7,0.5-1.2,1.2-1.2s1.2,0.5,1.2,1.2v10.5
		C46.9,61.5,46.4,62.1,45.7,62.1z"/>
</g>
<ellipse class="st2" cx="44.1" cy="209.7" rx="12.4" ry="6.4"/>
</svg>
