<!-- Generator: Adobe Illustrator 21.1.0, SVG Export Plug-In  -->
<svg version="1.1"
	 xmlns="http://www.w3.org/2000/svg" xmlns:xlink="http://www.w3.org/1999/xlink" xmlns:a="http://ns.adobe.com/AdobeSVGViewerExtensions/3.0/"
	 x="0px" y="0px" width="59.7px" height="1179.4px" viewBox="0 0 59.7 1179.4" style="enable-background:new 0 0 59.7 1179.4;"
	 xml:space="preserve">
<style type="text/css">
	.st0{opacity:0.27;fill:url(#SVGID_1_);}
	.st1{opacity:0.2;fill:url(#SVGID_2_);}
	.st2{opacity:0.86;fill:url(#SVGID_3_);}
	.st3{fill:none;stroke:#E5D8BA;stroke-width:1.353;stroke-linecap:round;stroke-linejoin:round;stroke-miterlimit:10;}
	.st4{opacity:0.88;}
	.st5{fill:none;stroke:#E5D8BA;stroke-width:1.5;stroke-linecap:round;stroke-linejoin:round;stroke-miterlimit:10;}
	.st6{opacity:0.27;fill:url(#SVGID_4_);}
	.st7{opacity:0.2;fill:url(#SVGID_5_);}
	.st8{opacity:0.86;fill:url(#SVGID_6_);}
</style>
<defs>
</defs>
<linearGradient id="SVGID_1_" gradientUnits="userSpaceOnUse" x1="0.75" y1="589.3402" x2="58.9907" y2="589.3402">
	<stop  offset="0" style="stop-color:#D5B865"/>
	<stop  offset="5.762811e-02" style="stop-color:#D8BC6F;stop-opacity:0.876"/>
	<stop  offset="0.1542" style="stop-color:#DFC889;stop-opacity:0.6682"/>
	<stop  offset="0.2778" style="stop-color:#EADCB3;stop-opacity:0.4023"/>
	<stop  offset="0.4222" style="stop-color:#FAF6ED;stop-opacity:9.144038e-02"/>
	<stop  offset="0.4647" style="stop-color:#FFFFFF;stop-opacity:0"/>
	<stop  offset="0.5363" style="stop-color:#FEFDFA;stop-opacity:0.1337"/>
	<stop  offset="0.626" style="stop-color:#F9F5EA;stop-opacity:0.3013"/>
	<stop  offset="0.7254" style="stop-color:#F2EAD1;stop-opacity:0.487"/>
	<stop  offset="0.8318" style="stop-color:#E9D9AD;stop-opacity:0.6858"/>
	<stop  offset="0.9426" style="stop-color:#DCC47F;stop-opacity:0.8928"/>
	<stop  offset="1" style="stop-color:#D5B865"/>
</linearGradient>
<path class="st0" d="M4.9,0v1158.3c-2.6,2-4.2,4.4-4.2,6.9c0,7.4,13,13.4,29.1,13.4s29.1-6,29.1-13.4c0-2.5-1.5-4.8-4.1-6.9V0"/>
<linearGradient id="SVGID_2_" gradientUnits="userSpaceOnUse" x1="0.75" y1="589.3402" x2="58.9907" y2="589.3402">
	<stop  offset="1.653439e-04" style="stop-color:#FFFFFF;stop-opacity:0"/>
	<stop  offset="1" style="stop-color:#D5B865"/>
</linearGradient>
<path class="st1" d="M4.9,0v1158.3c-2.6,2-4.2,4.4-4.2,6.9c0,7.4,13,13.4,29.1,13.4s29.1-6,29.1-13.4c0-2.5-1.5-4.8-4.1-6.9V0"/>
<linearGradient id="SVGID_3_" gradientUnits="userSpaceOnUse" x1="0.75" y1="589.3402" x2="58.9907" y2="589.3402">
	<stop  offset="0" style="stop-color:#D5B865;stop-opacity:0.4"/>
	<stop  offset="8.782912e-02" style="stop-color:#DFC98B;stop-opacity:0.3271"/>
	<stop  offset="0.2172" style="stop-color:#EDE0BD;stop-opacity:0.2196"/>
	<stop  offset="0.3307" style="stop-color:#F7F1E1;stop-opacity:0.1254"/>
	<stop  offset="0.4226" style="stop-color:#FDFBF7;stop-opacity:4.897785e-02"/>
	<stop  offset="0.4816" style="stop-color:#FFFFFF;stop-opacity:0"/>
	<stop  offset="0.5546" style="stop-color:#FEFDFA;stop-opacity:4.226557e-02"/>
	<stop  offset="0.64" style="stop-color:#FAF6EC;stop-opacity:9.163190e-02"/>
	<stop  offset="0.7314" style="stop-color:#F3EBD4;stop-opacity:0.1445"/>
	<stop  offset="0.8271" style="stop-color:#EADCB4;stop-opacity:0.2"/>
	<stop  offset="0.9252" style="stop-color:#DFC98A;stop-opacity:0.2567"/>
	<stop  offset="1" style="stop-color:#D5B865;stop-opacity:0.3"/>
</linearGradient>
<path class="st2" d="M4.9,0v1158.3c-2.6,2-4.2,4.4-4.2,6.9c0,7.4,13,13.4,29.1,13.4s29.1-6,29.1-13.4c0-2.5-1.5-4.8-4.1-6.9V0"/>
<path class="st3" d="M4.9,1158.3c0,6.4,11.2,11.5,24.9,11.5s24.9-5.2,24.9-11.5"/>
<g class="st4">
	<path class="st5" d="M4.9,1.3v1157c-2.6,2-4.2,4.4-4.2,6.9c0,7.4,13,13.4,29.1,13.4s29.1-6,29.1-13.4c0-2.5-1.5-4.8-4.1-6.9V1.3"/>
</g>
</svg>
