<!-- Generator: Adobe Illustrator 21.1.0, SVG Export Plug-In  -->
<svg version="1.1"
	 xmlns="http://www.w3.org/2000/svg" xmlns:xlink="http://www.w3.org/1999/xlink" xmlns:a="http://ns.adobe.com/AdobeSVGViewerExtensions/3.0/"
	 x="0px" y="0px" width="30.6px" height="30.6px" viewBox="0 0 30.6 30.6" style="enable-background:new 0 0 30.6 30.6;"
	 xml:space="preserve">
<style type="text/css">
	.st0{fill:#373B58;}
</style>
<defs>
</defs>
<g>
	<path class="st0" d="M28.3,15.3l2-2c0.4-0.4,0.4-1,0-1.4L18.7,0.3c-0.4-0.4-1-0.4-1.4,0l-2,2l-2-2c-0.4-0.4-1-0.4-1.4,0L0.3,11.9
		c-0.4,0.4-0.4,1,0,1.4l2,2l-2,2c-0.4,0.4-0.4,1,0,1.4l11.6,11.6c0.2,0.2,0.5,0.3,0.7,0.3s0.5-0.1,0.7-0.3l2-2l2,2
		c0.2,0.2,0.5,0.3,0.7,0.3s0.5-0.1,0.7-0.3l11.6-11.6c0.4-0.4,0.4-1,0-1.4L28.3,15.3z M23.8,22.3l-2.9-2.9c-0.4-0.4-1-0.4-1.4,0
		s-0.4,1,0,1.4l2.9,2.9l-4.4,4.4l-1.2-1.2l2.9-2.9c0.4-0.4,0.4-1,0-1.4s-1-0.4-1.4,0l-2.9,2.9l-2.9-2.9c-0.4-0.4-1-0.4-1.4,0
		s-0.4,1,0,1.4l2.9,2.9l-1.2,1.2l-4.4-4.4l2.9-2.9c0.4-0.4,0.4-1,0-1.4s-1-0.4-1.4,0l-2.9,2.9l-4.4-4.4l1.2-1.2l2.9,2.9
		c0.2,0.2,0.5,0.3,0.7,0.3s0.5-0.1,0.7-0.3c0.4-0.4,0.4-1,0-1.4l-2.9-2.9L8,12.4c0.4-0.4,0.4-1,0-1.4s-1-0.4-1.4,0l-2.9,2.9
		l-1.2-1.2l4.4-4.4l2.9,2.9c0.2,0.2,0.5,0.3,0.7,0.3s0.5-0.1,0.7-0.3c0.4-0.4,0.4-1,0-1.4L8.2,6.8l4.4-4.4l1.2,1.2L11,6.5
		c-0.4,0.4-0.4,1,0,1.4s1,0.4,1.4,0l2.9-2.9L18.2,8c0.4,0.4,1,0.4,1.4,0s0.4-1,0-1.4l-2.9-2.9l1.2-1.2l4.4,4.4l-2.9,2.9
		c-0.4,0.4-0.4,1,0,1.4c0.2,0.2,0.5,0.3,0.7,0.3s0.5-0.1,0.7-0.3l2.9-2.9l4.4,4.4l-1.2,1.2L24,11c-0.4-0.4-1-0.4-1.4,0s-0.4,1,0,1.4
		l2.9,2.9l-2.9,2.9c-0.4,0.4-0.4,1,0,1.4c0.2,0.2,0.5,0.3,0.7,0.3s0.5-0.1,0.7-0.3l2.9-2.9l1.2,1.2L23.8,22.3z"/>
	<path class="st0" d="M16,9.3c-0.4-0.4-1-0.4-1.4,0l-5.3,5.3C9.1,14.8,9,15,9,15.3s0.1,0.5,0.3,0.7l5.3,5.3c0.2,0.2,0.5,0.3,0.7,0.3
		s0.5-0.1,0.7-0.3l5.3-5.3c0.2-0.2,0.3-0.4,0.3-0.7s-0.1-0.5-0.3-0.7L16,9.3z M15.3,19.2l-3.9-3.9l3.9-3.9l3.9,3.9L15.3,19.2z"/>
</g>
</svg>
