<!-- Generator: Adobe Illustrator 21.1.0, SVG Export Plug-In  -->
<svg version="1.1"
	 xmlns="http://www.w3.org/2000/svg" xmlns:xlink="http://www.w3.org/1999/xlink" xmlns:a="http://ns.adobe.com/AdobeSVGViewerExtensions/3.0/"
	 x="0px" y="0px" width="69.4px" height="69.2px" viewBox="0 0 69.4 69.2" style="enable-background:new 0 0 69.4 69.2;"
	 xml:space="preserve">
<style type="text/css">
	.st0{fill:#1B3657;}
</style>
<defs>
</defs>
<path class="st0" d="M69.4,39.4V53c-0.6-0.7-1.2-1.5-1.8-2.2c-2.4-3-4.8-6.2-9-8.5c-4.5-2.5-6.5-1.5-8.3-0.7
	c-1.6,0.7-2.9,1.4-6.5-0.6c-3.8-2.1-6-5-8.4-8c-2.4-3-4.8-6.2-9-8.5c-4.5-2.5-6.5-1.5-8.3-0.7c-1.6,0.7-2.9,1.4-6.5-0.6
	c-3.8-2.1-6-5-8.4-8c-1-1.3-2.1-2.7-3.3-4V0L69.4,39.4z"/>
<path class="st0" d="M0,29.8V14c0.6,0.7,1.2,1.5,1.8,2.2c2.4,3,4.8,6.2,9,8.5c4.5,2.5,6.5,1.5,8.3,0.7c1.6-0.7,2.9-1.4,6.5,0.6
	c3.8,2.1,6,5,8.4,8c2.4,3,4.8,6.2,9,8.5c4.5,2.5,6.5,1.5,8.3,0.7c1.6-0.7,2.9-1.4,6.5,0.6c3.8,2.1,6,5,8.4,8c1,1.3,2.1,2.7,3.3,4
	v13.2L0,29.8z"/>
</svg>
