<?xml version="1.0" encoding="utf-8"?>
<!-- Generator: Adobe Illustrator 21.1.0, SVG Export Plug-In . SVG Version: 6.00 Build 0)  -->
<svg version="1.1" id="Layer_1" xmlns="http://www.w3.org/2000/svg" xmlns:xlink="http://www.w3.org/1999/xlink" x="0px" y="0px"
	 viewBox="0 0 89.8 107.8" style="enable-background:new 0 0 89.8 107.8;" xml:space="preserve">
<style type="text/css">
	.st0{fill:#17304F;}
	.st1{opacity:0.15;fill:#003A75;enable-background:new    ;}
	.st2{fill:#99772C;}
	.st3{fill:#D5B865;}
	.st4{fill:#EFE4C4;}
	.st5{fill:#BD9F55;}
</style>
<g>
	<path class="st0" d="M63.7,87.1c13.5,4.6,12.4,12.3-2.6,17S23,109,9.4,104.4C-4.1,99.8-3,92.1,12,87.4S50.2,82.4,63.7,87.1z"/>
	<g>
		<path class="st1" d="M63.7,87.1c13.5,4.6,12.4,12.3-2.6,17S23,109,9.5,104.4s-12.4-12.3,2.6-17S50.2,82.5,63.7,87.1z"/>
	</g>
</g>
<g>
	<g>
		<path class="st2" d="M89.7,60.5c-1.1,25.4-18.1,40.4-38,33.6c-19.9-6.8-35.2-32.9-34.1-58.3s18.1-40.4,38-33.6
			S90.8,35.2,89.7,60.5z"/>
	</g>
	<g>
		<path class="st3" d="M83.2,61.9c-1.1,25.4-18.1,40.4-38,33.6C25.2,88.6,10,62.5,11,37.1s18.1-40.4,38-33.6S84.3,36.5,83.2,61.9z"
			/>
	</g>
	<g>
		<path class="st4" d="M53.7,92.4c-2.8,0-5.7-0.5-8.6-1.5c-17.9-6.1-31.6-29.6-30.7-52.3c0.5-12.4,5.4-22.6,13.3-28
			c6.2-4.2,13.8-5.1,21.5-2.5C67,14.3,80.8,37.7,79.8,60.4c-0.5,12.4-5.4,22.6-13.3,28C62.7,91,58.3,92.4,53.7,92.4z M40.5,8.7
			c-4.2,0-8.3,1.2-11.8,3.6c-7.4,5-11.9,14.6-12.4,26.4C15.4,60.5,28.6,83.1,45.7,89c7.1,2.4,14.1,1.6,19.7-2.2
			c7.4-5,11.9-14.6,12.4-26.4l0,0C78.8,38.5,65.6,15.9,48.5,10C45.8,9.1,43.1,8.7,40.5,8.7z"/>
	</g>
</g>
<path class="st5" d="M50.5,69.6c-1.9,0-3.9-0.4-5.9-1.3c-8.6-3.8-14.6-15-13.4-24.9c0.6-5,3.1-9.1,6.7-11.1c3.4-1.9,7.5-2,11.6-0.2
	c8.6,3.8,14.6,15,13.4,24.9l0,0c-0.6,5-3.1,9.1-6.7,11.1C54.5,69.1,52.6,69.6,50.5,69.6z M43.7,32.5c-1.7,0-3.4,0.4-4.9,1.3
	c-3.2,1.8-5.3,5.3-5.8,9.8c-1.1,9.2,4.4,19.5,12.3,23.1c3.6,1.6,7.1,1.6,10.1-0.1c3.2-1.8,5.3-5.3,5.8-9.8l0,0
	c1.1-9.2-4.4-19.5-12.3-23.1C47.1,32.9,45.3,32.5,43.7,32.5z M62.1,56.9L62.1,56.9L62.1,56.9z"/>
<path class="st5" d="M44.5,55.3c-0.2,0-0.4-0.1-0.5-0.2c-0.2-0.2-0.3-0.4-0.3-0.7l-0.2-10.9c0-0.4,0.2-0.7,0.5-0.8
	c0.3-0.1,0.7,0,1,0.2l8.2,8.9c0.2,0.2,0.3,0.5,0.2,0.8s-0.3,0.5-0.6,0.6l-8,2.1C44.7,55.3,44.6,55.3,44.5,55.3z M45.2,45.8l0.2,7.5
	l5.5-1.4L45.2,45.8z"/>
</svg>
