<?xml version="1.0" encoding="utf-8"?>
<!-- Generator: Adobe Illustrator 21.1.0, SVG Export Plug-In . SVG Version: 6.00 Build 0)  -->
<svg version="1.1" id="Layer_2" xmlns="http://www.w3.org/2000/svg" xmlns:xlink="http://www.w3.org/1999/xlink" x="0px" y="0px"
	 viewBox="0 0 1134.4 694.1" style="enable-background:new 0 0 1134.4 694.1;" xml:space="preserve">
<style type="text/css">
	.st0{fill:#1A2147;}
	.st1{fill:#1B3657;}
</style>
<polygon class="st0" points="995.3,660.6 995.8,639.3 1110.6,569 116.7,12.8 0,84.9 0,106.2 "/>
<polygon class="st1" points="995.5,640.2 -0.9,84.4 137.8,-0.4 1133.4,556.3 "/>
<path class="st0" d="M891.8,583.2c-0.3,0-0.7-0.2-0.9-0.5c-0.3-0.5-0.1-1.1,0.3-1.4l137.9-83.9c0.5-0.3,1.1-0.1,1.4,0.3
	s0.1,1.1-0.3,1.4L892.3,583C892.2,583.1,892,583.2,891.8,583.2z"/>
<path class="st0" d="M797.8,530.8c-0.3,0-0.7-0.2-0.9-0.5c-0.3-0.5-0.1-1.1,0.3-1.4l137.9-83.9c0.5-0.3,1.1-0.1,1.4,0.3
	c0.3,0.5,0.1,1.1-0.3,1.4l-137.9,83.9C798.1,530.8,798,530.8,797.8,530.8z"/>
<path class="st0" d="M697.2,475.3c-0.3,0-0.7-0.2-0.9-0.5c-0.3-0.5-0.1-1.1,0.3-1.4l137.9-83.9c0.5-0.3,1.1-0.1,1.4,0.3
	c0.3,0.5,0.1,1.1-0.3,1.4l-137.9,83.9C697.5,475.2,697.4,475.3,697.2,475.3z"/>
<path class="st0" d="M595.8,417.7c-0.3,0-0.7-0.2-0.9-0.5c-0.3-0.5-0.1-1.1,0.3-1.4l137.9-83.9c0.5-0.3,1.1-0.1,1.4,0.3
	c0.3,0.5,0.1,1.1-0.3,1.4l-137.9,83.9C596.1,417.7,595.9,417.7,595.8,417.7z"/>
<path class="st0" d="M498.3,363.7c-0.3,0-0.7-0.2-0.9-0.5c-0.3-0.5-0.1-1.1,0.3-1.4l137.9-83.9c0.5-0.3,1.1-0.1,1.4,0.3
	c0.3,0.5,0.1,1.1-0.3,1.4l-137.9,83.9C498.7,363.6,498.5,363.7,498.3,363.7z"/>
<path class="st0" d="M397.7,308.1c-0.3,0-0.7-0.2-0.9-0.5c-0.3-0.5-0.1-1.1,0.3-1.4l137.9-83.9c0.5-0.3,1.1-0.1,1.4,0.3
	c0.3,0.5,0.1,1.1-0.3,1.4L398.2,308C398.1,308.1,397.9,308.1,397.7,308.1z"/>
<path class="st0" d="M296.3,250.5c-0.3,0-0.7-0.2-0.9-0.5c-0.3-0.5-0.1-1.1,0.3-1.4l137.9-83.9c0.5-0.3,1.1-0.1,1.4,0.3
	c0.3,0.5,0.1,1.1-0.3,1.4l-137.9,83.9C296.6,250.5,296.5,250.5,296.3,250.5z"/>
<path class="st0" d="M198.9,196.5c-0.3,0-0.7-0.2-0.9-0.5c-0.3-0.5-0.1-1.1,0.3-1.4l137.9-83.9c0.5-0.3,1.1-0.1,1.4,0.3
	c0.3,0.5,0.1,1.1-0.3,1.4l-137.9,83.9C199.2,196.5,199,196.5,198.9,196.5z"/>
<path class="st0" d="M97.4,138.9c-0.3,0-0.7-0.2-0.9-0.5c-0.3-0.5-0.1-1.1,0.3-1.4l137.9-83.9c0.5-0.3,1.1-0.1,1.4,0.3
	c0.3,0.5,0.1,1.1-0.3,1.4L97.9,138.8C97.8,138.9,97.6,138.9,97.4,138.9z"/>
<path class="st0" d="M1134.3,556.7c0-0.1,0.1-0.1,0.1-0.2c0-0.1,0-0.1,0-0.2c0-0.1,0-0.1,0-0.2c0-0.1,0-0.1-0.1-0.2c0,0,0-0.1,0-0.1
	c0,0,0,0,0,0c0-0.1-0.1-0.1-0.1-0.1c0,0-0.1-0.1-0.1-0.1c0,0,0,0,0,0l-137.1-76.5c0,0,0,0,0,0L139.4-0.9c-0.3-0.2-0.7-0.1-1,0
	c-0.3-0.2-0.7-0.2-1,0L-0.5,83.1C-1,83.4-1.1,84-0.9,84.4c0.2,0.3,0.5,0.5,0.9,0.5l994.8,556.1c0.1,0,0.1,0,0.2,0.1
	c0.1,0.1,0.3,0.1,0.5,0.1c0.2,0,0.4,0,0.5-0.1l137.9-83.9c0,0,0,0,0,0c0.1-0.1,0.2-0.1,0.2-0.2c0,0,0-0.1,0.1-0.1c0,0,0,0,0-0.1
	C1134.2,556.8,1134.2,556.7,1134.3,556.7z M138.4,0.9l857.4,479.8c0,0,0,0,0,0l135.5,75.7l-135.9,82.7L2.1,83.8L138.4,0.9z"/>
<path class="st0" d="M891.8,695.1c-0.6,0-1-0.4-1-1V582.2c0-0.6,0.4-1,1-1s1,0.4,1,1v111.9C892.8,694.7,892.3,695.1,891.8,695.1z"/>
<path class="st0" d="M697.2,586.8c-0.6,0-1-0.4-1-1V474.3c0-0.6,0.4-1,1-1s1,0.4,1,1v111.5C698.2,586.4,697.7,586.8,697.2,586.8z"/>
<path class="st0" d="M498.3,475.2c-0.6,0-1-0.4-1-1V362.7c0-0.6,0.4-1,1-1s1,0.4,1,1v111.5C499.3,474.8,498.9,475.2,498.3,475.2z"/>
<path class="st0" d="M296.3,362.1c-0.6,0-1-0.4-1-1V249.5c0-0.6,0.4-1,1-1s1,0.4,1,1v111.5C297.3,361.6,296.8,362.1,296.3,362.1z"/>
<path class="st0" d="M97.4,250.5c-0.6,0-1-0.4-1-1V137.9c0-0.6,0.4-1,1-1s1,0.4,1,1v111.5C98.4,250,98,250.5,97.4,250.5z"/>
</svg>
