<?xml version="1.0" encoding="utf-8"?>
<!-- Generator: Adobe Illustrator 21.1.0, SVG Export Plug-In . SVG Version: 6.00 Build 0)  -->
<svg version="1.1" id="Layer_1" xmlns="http://www.w3.org/2000/svg" xmlns:xlink="http://www.w3.org/1999/xlink" x="0px" y="0px"
	 viewBox="0 0 89.8 107.8" style="enable-background:new 0 0 89.8 107.8;" xml:space="preserve">
<style type="text/css">
	.st0{fill:#17304F;}
	.st1{opacity:0.15;fill:#003A75;}
	.st2{fill:#99772C;}
	.st3{fill:#D5B865;}
	.st4{fill:none;stroke:#EFE4C4;stroke-width:2;stroke-miterlimit:10;}
	.st5{fill:#C29E45;}
</style>
<g>
	<path class="st0" d="M63.7,87.1c13.5,4.6,12.4,12.3-2.6,17S23,109,9.4,104.4C-4.1,99.8-3,92.1,12,87.4S50.2,82.4,63.7,87.1z"/>
	<g>
		<path class="st1" d="M63.7,87.1c13.5,4.6,12.4,12.3-2.6,17S23,109,9.5,104.4s-12.4-12.3,2.6-17S50.2,82.5,63.7,87.1z"/>
		<g>
			<g>
				<path class="st2" d="M89.7,60c-1.1,25.4-18.1,40.4-38,33.6c-19.9-6.8-35.2-32.9-34.1-58.3s18.1-40.4,38-33.6S90.8,34.6,89.7,60z
					"/>
			</g>
			<g>
				<path class="st3" d="M83.1,61.3c-1.1,25.4-18.1,40.4-38,33.6C25.2,88.1,9.9,61.9,11,36.6S29.1-3.8,49.1,3S84.2,36,83.1,61.3z"/>
			</g>
			<g>
				<path class="st4" d="M78.8,59.8c-1,22.3-15.9,35.5-33.5,29.5c-17.5-6-30.9-29-30-51.3S31.3,2.5,48.8,8.6S79.8,37.5,78.8,59.8z"
					/>
			</g>
			<polygon class="st5" points="46.3,58.8 46.7,42.2 51.3,39.2 51.2,32.7 46.8,35.5 47.2,23 37.6,22.2 37.3,41.7 32.8,44.6 
				32.9,51.3 37.1,48.5 36.9,63.8 61.1,73 64.5,65.7 			"/>
		</g>
	</g>
</g>
</svg>
