<svg xmlns="http://www.w3.org/2000/svg" width="550.7" height="367.1" viewBox="0 0 550.7 367.1">
    <path class="st0" fill="#1A2147" d="M408 334.1l135.2-82.3-404.4-227.7-137.8 84.1 407 225.9" />
    <path class="st0" d="M107.8 257.4c-.6 0-1-.4-1-1v-112.3c0-.6.4-1 1-1s1 .4 1 1v112.2c0 .6-.5 1.1-1 1.1z" fill="#1A2147" />
    <path class="st1" stroke="#1A2147" stroke-width="2" stroke-linecap="round" stroke-linejoin="round" stroke-miterlimit="10" fill="none" d="M408 334.1l135.2-82.3-404.4-227.7-137.8 84.1 407 225.9" />
    <path class="st2" fill="#1B3657" d="M545.4 227.1l-137.9 83.9-404.1-225.3 137.8-83.9z" />
    <path class="st0" d="M303.9 254.3c-.3 0-.7-.2-.9-.5-.3-.5-.1-1.1.3-1.4l137.9-83.9c.5-.3 1.1-.1 1.4.3s.1 1.1-.3 1.4l-137.9 83.9c-.2.1-.3.2-.5.2z" fill="#1A2147" />
    <path class="st1" d="M408 334.1M545.9 250.2" stroke="#1A2147" stroke-width="2" stroke-linecap="round" stroke-linejoin="round" stroke-miterlimit="10" fill="none" />
    <path class="st0" d="M107.8 145.1c-.3 0-.7-.2-.9-.5-.3-.5-.1-1.1.3-1.4l137.9-83.9c.5-.3 1.1-.1 1.4.3.3.5.1 1.1-.3 1.4l-137.9 84c-.2.1-.4.1-.5.1zM202.4 197.7c-.3 0-.7-.2-.9-.5-.3-.5-.1-1.1.3-1.4l137.9-83.9c.5-.3 1.1-.1 1.4.3.3.5.1 1.1-.3 1.4l-137.9 83.9c-.1.1-.3.2-.5.2z" fill="#1A2147" />
    <path class="st1" d="M382.6 332M520.5 248.1" stroke="#1A2147" stroke-width="2" stroke-linecap="round" stroke-linejoin="round" stroke-miterlimit="10" fill="none" />
    <path class="st2" d="M545.9 250.2c8.9-11.4-.5-23.1-.5-23.1l-137.9 83.9s9.3 11.6.5 23.1l137.9-83.9z" fill="#1B3657" />
    <path class="st0" d="M546.2 226.5l-.3-.3-404.2-225.3c-.5-.3-1.1-.1-1.4.4-.3.5-.1 1.1.4 1.4l402.7 224.5-135.9 82.7-403.7-225.1c-.5-.3-1.1-.1-1.4.4-.3.5-.1 1.1.4 1.4l404 225.2c1 1.4 8.2 11.5.3 21.7-.3.4-.3.9 0 1.3.2.2.5.3.7.3.2 0 .4 0 .5-.1l138.1-84 .3-.2c9.1-11.9-.3-24-.5-24.3zm-1 22.9l-134.2 81.6c4.2-8.8-.3-17-2.1-19.7l136.2-82.9c1.8 2.6 7 11.9.1 21zM3.4 85.9c-.3 0-.7-.2-.9-.5-.3-.5-.1-1.1.3-1.4l137.9-83.9c.5-.3 1.1-.1 1.4.3.3.5.1 1.1-.3 1.4l-137.9 84c-.2.1-.4.1-.5.1zM303.9 367.1c-.6 0-1-.4-1-1v-112.8c0-.6.4-1 1-1s1 .4 1 1v112.9c0 .5-.5.9-1 .9z" fill="#1A2147" />
</svg>