<svg xmlns="http://www.w3.org/2000/svg" width="89.8" height="107.8" viewBox="0 0 89.8 107.8">
    <g>
        <path class="st0" d="M63.7 87.1c13.5 4.6 12.4 12.3-2.6 17s-38.1 4.9-51.7.3c-13.5-4.6-12.4-12.3 2.6-17s38.2-5 51.7-.3z" fill="#17304F" />
        <path class="st1" d="M89.7 60c-1.1 25.4-18.1 40.4-38 33.6s-35.2-33-34.1-58.4c1.1-25.4 18.1-40.4 38-33.6s35.2 33 34.1 58.4z" fill="#99772C" />
        <path class="st2" d="M83.1 61.3c-1.1 25.4-18.1 40.4-38 33.6s-35.2-33-34.1-58.3 18.1-40.4 38-33.6 35.2 33 34.1 58.3z" fill="#D5B865" />
        <path class="st3" d="M53.6 91.8c-2.8 0-5.7-.5-8.6-1.5-17.9-6.1-31.6-29.6-30.7-52.3.5-12.4 5.4-22.6 13.3-28 6.2-4.2 13.8-5 21.5-2.4 17.9 6.1 31.7 29.6 30.7 52.3-.5 12.4-5.4 22.6-13.3 28-3.8 2.6-8.2 3.9-12.9 3.9zm-13.1-83.7c-4.2 0-8.3 1.2-11.8 3.6-7.4 5-11.9 14.6-12.4 26.4-.9 21.9 12.3 44.4 29.4 50.3 7.1 2.4 14.1 1.6 19.7-2.2 7.4-5 11.9-14.6 12.4-26.4.9-21.9-12.2-44.4-29.3-50.3-2.7-.9-5.4-1.4-8-1.4z" fill="#EFE4C4" />
        <path class="st4" d="M57 43.9c-.6-5.4-3.8-8.7-7.7-11l-.3-7.4-3-1.4.3 7.1-2.4-1.1-.3-7.2-3-1.4.3 7.3c-.7-.3-1.3-.6-1.9-.9l-4.2-2 .2 4.8 2.2 1c1.2.6 1.7 1.8 1.8 2.8l.4 8.3c.1 0 .2.1.3.2l-.3-.2.5 11.7c0 .5-.2 1.3-1.1.9 0 .1-2.2-1-2.2-1l-.4 5 3.9 1.9c.7.3 1.5.7 2.2 1.1l.3 7.4 3 1.4-.3-7.2 2.4 1.2.3 7.3 3 1.4-.3-7.4c5.1 2 8.6 1.8 8.7-5.1.1-5.5-1.8-8.9-4.7-11.3 1.7-.5 2.7-2.3 2.3-6.2zm-3.6 13.8c.2 5.5-6.2 1.9-8.3.9l-.4-9.8c2.1.9 8.5 3.1 8.7 8.9zm-2-14.5c.2 5-5.2 1.9-6.9 1.1l-.4-8.9c1.7.8 7.1 2.5 7.3 7.8z" fill="#C29E45" />
    </g>
</svg>