<!-- Generator: Adobe Illustrator 21.1.0, SVG Export Plug-In  -->
<svg version="1.1"
	 xmlns="http://www.w3.org/2000/svg" xmlns:xlink="http://www.w3.org/1999/xlink" xmlns:a="http://ns.adobe.com/AdobeSVGViewerExtensions/3.0/"
	 x="0px" y="0px" width="81.8px" height="93.4px" viewBox="0 0 81.8 93.4" style="enable-background:new 0 0 81.8 93.4;"
	 xml:space="preserve">
<style type="text/css">
	.st0{opacity:0.31;fill:#D5B865;}
	.st1{fill:#1B3657;}
	.st2{fill:none;stroke:#1A2147;stroke-width:2;stroke-linecap:round;stroke-linejoin:round;stroke-miterlimit:10;}
	.st3{fill:url(#SVGID_1_);}
	.st4{fill:#09224C;}
	.st5{fill:url(#SVGID_2_);}
</style>
<defs>
</defs>
<path class="st0" d="M64.2,78.9c13.3,3.6,11.7,9.1-3.5,12.3C45.5,94.4,22.3,94.1,9,90.5s-11.7-9.1,3.5-12.3
	C27.7,75,50.9,75.3,64.2,78.9z"/>
<g>
	<path class="st1" d="M80.4,55.1C77.8,77.8,61.7,91,44.6,84.5c-17.1-6.4-28.9-30.1-26.2-52.7S37-4,54.2,2.4S83.1,32.5,80.4,55.1z"/>
</g>
<g>
	<path class="st2" d="M80.4,55.1c-1.8,15.2-8.8,25.4-18.9,28.9c-1.5,0.5-7.9,2.6-9.5,2.8c-3.6,0.4-3.6-0.9-7.5-2.3
		c-17.1-6.4-28.9-30.1-26.2-52.7c2-17.5,6.7-28.4,19-30c0.6-0.1,7-0.8,7.6-0.8c3.1-0.1,5.9,0.1,9.2,1.4
		C71.3,8.8,83.1,32.5,80.4,55.1z"/>
</g>
<linearGradient id="SVGID_1_" gradientUnits="userSpaceOnUse" x1="11.796" y1="44.6852" x2="76.0698" y2="44.6852" gradientTransform="matrix(0.9932 1.852102e-02 -7.484197e-02 1.0054 3.1912 -1.1737)">
	<stop  offset="0" style="stop-color:#133E71"/>
	<stop  offset="1" style="stop-color:#25527F"/>
</linearGradient>
<path class="st3" d="M74.5,56.2c-2.7,22.7-18.7,35.8-35.8,29.4S9.8,55.6,12.4,32.9S31.1-2.9,48.3,3.5S77.2,33.6,74.5,56.2z"/>
<g>
	<path class="st2" d="M74.5,56.2c-2.7,22.7-18.7,35.8-35.8,29.4S9.8,55.6,12.4,32.9S31.1-2.9,48.3,3.5S77.2,33.6,74.5,56.2z"/>
</g>
<g id="_x34_UvO8a.tif_1_">
	<g>
		<g>
			<path class="st4" d="M47.7,8.6c0.6,0.3,1.3,0.7,1.9,1c5.1,2.7,9.3,7,12.9,13c0,0,0,0.1,0,0.1c-1.1,1-2.2,2-3.2,3
				C54.5,18.1,48.8,13.8,42,13.1c-5.6-0.6-10.4,1.6-14.5,6.3c-8,9.2-9.3,26.2-3,40.1c6.3,13.9,19.3,21.2,30,14.1
				c0.7,1.7,1.5,3.4,2.2,5.1c0.1,0,0.1-0.1,0.2-0.1c-0.2,0.1-0.3,0.2-0.5,0.3c-4.4,2.9-9.1,3.9-14.2,2.9c-0.8-0.2-1.6-0.4-2.4-0.5
				c-0.7-0.3-1.4-0.5-2.1-0.8c-0.2-0.1-0.4-0.2-0.6-0.4c-0.7-0.4-1.4-0.7-2-1.1c-6.1-3.7-10.9-9.4-14.4-17.5
				C16.1,50.9,15,40,17.5,29.2c1.8-8,5.4-14,10.5-18c4.9-3.9,10.4-5.1,16.3-3.7c0.6,0.1,1.2,0.3,1.8,0.4C46.6,8.1,47.2,8.3,47.7,8.6
				z"/>
			<path class="st4" d="M59.1,29.5c1.6-1.4,3.3-2.8,4.9-4.1c8.8,16.8,7.1,41-5.2,51.7c-1.2-2.4-2.4-4.9-3.6-7.4
				c-5.9,4.7-12.2,5.1-18.9,0.8C31.2,67.2,27.5,62,25,55c-4.8-13.5-2.1-28.7,6.3-35.7C40,12.1,52.3,16.4,59.1,29.5z M37.1,66
				c-1.1-0.6-2.9-2.3-4.2-3.9c-6.1-7.3-8.5-19.2-5.7-28.6c3-10.3,10.9-15.2,19.1-11.8c0.4,0.2,0.5,0.4,0.4,0.9
				c-0.2,1.3-0.3,2.7-0.5,4c0,0.4,0,0.5,0.3,0.7c1.1,0.8,2.3,1.6,3.3,2.5c0.7,0.7,1.4,1.6,2.1,2.4c-0.1,0.1-0.1,0.2-0.1,0.2
				c-0.2,0.2-0.4,0.4-0.6,0.6c-0.2,0.3-0.4,0.3-0.7-0.1c-1.4-1.9-3-3.3-4.8-4.1c-4.9-2.1-8.8-0.6-11.9,4.3c-1,1.6-1.6,3.5-2,5.6
				c0.6,0.2,1.1,0.4,1.6,0.6c0.3,0.1,0.4,0,0.5-0.3c1.2-4.8,3.6-7.7,7.3-8.2c3.6-0.5,6.8,1.6,9.3,5.8c0.1,0.2,0.2,0.4,0.4,0.6
				c1.4-1.4,2.8-2.7,4.3-4.1c-0.1-0.2-0.3-0.3-0.3-0.5c-1.6-2.9-3.5-5.3-5.8-6.9c-0.4-0.3-0.5-0.6-0.4-1.2c0.2-1.3,0.3-2.6,0.4-3.9
				c0.1-0.4,0-0.7-0.4-0.9c-3.8-2.2-7.7-2.8-11.5-1.6C29,20.7,23.5,31.1,24.1,43c0.5,10.3,4.2,18.4,10.6,24.3c1.2,1.1,2.5,2,3.9,2.6
				c0.3-2.7,0.6-5.3,0.9-7.9c-7.1-4-9.7-13.6-9.6-18.1c0.3,0.1,0.6,0.3,0.9,0.3c0.4,0.1,0.6,0.4,0.7,1c0.9,9.3,7.4,16.8,13.8,16
				c0.9-0.1,1.8-0.4,2.8-0.6c0.1,0.2,0.2,0.5,0.4,0.7c0.2,0.3,0.3,0.5,0.5,0.8c-2.4,1.3-4.8,1.4-7.3,0.7c-0.1,0.5-0.1,0.9-0.2,1.4
				c0,0.4-0.1,0.9-0.1,1.3c2.9,1.4,8.7,0.2,10.6-2.2c-1.1-2.2-2.1-4.3-3.2-6.5c-0.1,0-0.1,0-0.1,0.1c-0.1,0-0.1,0.1-0.2,0.1
				c-2.5,1.8-5.1,1.9-7.9,0.4c-4.2-2.3-7.2-8.3-7.2-14.3c0-0.5-0.1-0.7-0.4-0.8c-1.6-0.6-3.1-1.2-4.7-1.8c-0.1-0.1-0.3-0.1-0.4-0.1
				c0,0.1,0,0.2,0,0.2c0,0.3,0,0.5,0,0.8c-0.1,5.3,1,10.1,3.4,14.6c1.6,3,3.5,5.4,5.8,7.2c0.1,0.1,0.3,0.4,0.3,0.6
				C37.3,64.5,37.2,65.2,37.1,66z M30.2,38.3c0.1-0.3,0.1-0.5,0.2-0.7c1-4.8,3.1-8.1,6.3-10.1c2.2-1.4,4.6-1.7,7.1-1.1
				c0.1,0,0.4-0.1,0.4-0.2c0.1-0.8,0.2-1.6,0.3-2.4c-7.9-2.5-14.9,4.4-16.2,13.9c0.1,0,0.3,0.1,0.4,0.1
				C29.1,37.9,29.6,38.1,30.2,38.3z M40.8,70.8c5,1.6,9.5,0.7,13.5-2.6c-0.4-0.9-0.7-1.7-1.1-2.5c-3.6,3-7.6,3.8-12,2.4
				C41,68.9,40.9,69.8,40.8,70.8z M51,21.6c-0.1,0.9-0.2,1.6-0.3,2.4c-0.1,0.4,0,0.6,0.3,0.8c2,1.8,3.8,4.1,5.3,6.8
				c0.1,0.1,0.2,0.2,0.2,0.4c0.5-0.5,1-1,1.6-1.5C56.1,26.9,53.8,23.9,51,21.6z"/>
		</g>
	</g>
</g>
</svg>
