<?xml version="1.0" encoding="utf-8"?>
<!-- Generator: Adobe Illustrator 21.1.0, SVG Export Plug-In . SVG Version: 6.00 Build 0)  -->
<svg version="1.1" id="Layer_1" xmlns="http://www.w3.org/2000/svg" xmlns:xlink="http://www.w3.org/1999/xlink" x="0px" y="0px"
	 viewBox="0 0 70.3 70.3" style="enable-background:new 0 0 70.3 70.3;" xml:space="preserve">
<style type="text/css">
	.st0{fill:#313552;}
</style>
<path class="st0" d="M70.3,29.1L41.1,0l-6,6l-6-6L0,29.1l6,6l-6,6l29.1,29.1l6-6l6,6l29.1-29.1l-6-6C64.2,35.1,70.3,29.1,70.3,29.1z
	 M64.6,41.1L54.3,51.5l-6.7-6.7l-2.8,2.8l6.7,6.7L41.1,64.6L38,61.4l6.7-6.7l-2.8-2.8l-6.7,6.7l-6.7-6.7l-2.8,2.8l6.7,6.7l-3.2,3.2
	L18.8,54.3l6.7-6.7l-2.8-2.8L16,51.5L5.7,41.1L8.8,38l6.7,6.7l2.8-2.8l-6.7-6.7l6.7-6.7l-2.8-2.8l-6.7,6.7l-3.2-3.2L16,18.8l6.7,6.7
	l2.8-2.8L18.8,16L29.1,5.7l3.2,3.2l-6.7,6.7l2.8,2.8l6.7-6.7l6.7,6.7l2.8-2.8L38,8.8l3.2-3.2L51.5,16l-6.7,6.7l2.8,2.8l6.7-6.7
	l10.3,10.3l-3.2,3.2l-6.7-6.7l-2.8,2.8l6.7,6.7l-6.7,6.7l2.8,2.8l6.7-6.7L64.6,41.1z M20.3,35.1l14.8,14.8l14.8-14.8L35.1,20.3
	L20.3,35.1z M35.1,44.3L26,35.1l9.1-9.1l9.1,9.1L35.1,44.3z"/>
</svg>
