<!-- Generator: Adobe Illustrator 21.1.0, SVG Export Plug-In  -->
<svg version="1.1"
	 xmlns="http://www.w3.org/2000/svg" xmlns:xlink="http://www.w3.org/1999/xlink" xmlns:a="http://ns.adobe.com/AdobeSVGViewerExtensions/3.0/"
	 x="0px" y="0px" width="60px" height="319.7px" viewBox="0 0 60 319.7" style="enable-background:new 0 0 60 319.7;"
	 xml:space="preserve">
<style type="text/css">
	.st0{opacity:0.27;fill:url(#SVGID_1_);enable-background:new    ;}
	.st1{opacity:0.2;fill:url(#SVGID_2_);enable-background:new    ;}
	.st2{opacity:0.86;fill:url(#SVGID_3_);enable-background:new    ;}
	.st3{opacity:0.86;fill:url(#SVGID_4_);enable-background:new    ;}
	.st4{fill:#2B2F4F;}
	.st5{opacity:0.27;fill:#FFFFFF;enable-background:new    ;}
	.st6{opacity:0.27;fill:url(#SVGID_5_);enable-background:new    ;}
	.st7{opacity:0.2;fill:url(#SVGID_6_);enable-background:new    ;}
	.st8{opacity:0.86;fill:url(#SVGID_7_);enable-background:new    ;}
	.st9{opacity:0.86;fill:url(#SVGID_8_);enable-background:new    ;}
</style>
<defs>
</defs>
<linearGradient id="SVGID_1_" gradientUnits="userSpaceOnUse" x1="0.7" y1="-698.85" x2="58.9" y2="-698.85" gradientTransform="matrix(1 0 0 -1 0 -539.4)">
	<stop  offset="0" style="stop-color:#353957"/>
	<stop  offset="1" style="stop-color:#353957"/>
</linearGradient>
<path class="st0" d="M4.9,0v298.6c-2.6,2-4.2,4.4-4.2,6.9c0,7.4,13,13.4,29.1,13.4s29.1-6,29.1-13.4c0-2.5-1.5-4.8-4.1-6.9V0"/>
<linearGradient id="SVGID_2_" gradientUnits="userSpaceOnUse" x1="0.7" y1="-698.85" x2="58.9" y2="-698.85" gradientTransform="matrix(1 0 0 -1 0 -539.4)">
	<stop  offset="1.653439e-04" style="stop-color:#FFFFFF;stop-opacity:0"/>
	<stop  offset="1" style="stop-color:#353957"/>
</linearGradient>
<path class="st1" d="M4.9,0v298.6c-2.6,2-4.2,4.4-4.2,6.9c0,7.4,13,13.4,29.1,13.4s29.1-6,29.1-13.4c0-2.5-1.5-4.8-4.1-6.9V0"/>
<linearGradient id="SVGID_3_" gradientUnits="userSpaceOnUse" x1="0.7" y1="-698.85" x2="58.9" y2="-698.85" gradientTransform="matrix(1 0 0 -1 0 -539.4)">
	<stop  offset="0" style="stop-color:#353957;stop-opacity:0.4"/>
	<stop  offset="3.752616e-02" style="stop-color:#4B4E69;stop-opacity:0.3688"/>
	<stop  offset="0.1558" style="stop-color:#8A8D9E;stop-opacity:0.2706"/>
	<stop  offset="0.2635" style="stop-color:#BDBEC8;stop-opacity:0.1811"/>
	<stop  offset="0.3571" style="stop-color:#E1E1E6;stop-opacity:0.1034"/>
	<stop  offset="0.433" style="stop-color:#F7F7F8;stop-opacity:4.036874e-02"/>
	<stop  offset="0.4816" style="stop-color:#FFFFFF;stop-opacity:0"/>
	<stop  offset="0.5442" style="stop-color:#FAFAFB;stop-opacity:3.624742e-02"/>
	<stop  offset="0.6174" style="stop-color:#ECECEF;stop-opacity:7.857388e-02"/>
	<stop  offset="0.6958" style="stop-color:#D4D5DC;stop-opacity:0.124"/>
	<stop  offset="0.778" style="stop-color:#B4B5C0;stop-opacity:0.1715"/>
	<stop  offset="0.8631" style="stop-color:#898C9D;stop-opacity:0.2208"/>
	<stop  offset="0.9493" style="stop-color:#565A73;stop-opacity:0.2707"/>
	<stop  offset="1" style="stop-color:#353957;stop-opacity:0.3"/>
</linearGradient>
<path class="st2" d="M4.9,0v298.6c-2.6,2-4.2,4.4-4.2,6.9c0,7.4,13,13.4,29.1,13.4s29.1-6,29.1-13.4c0-2.5-1.5-4.8-4.1-6.9V0"/>
<linearGradient id="SVGID_4_" gradientUnits="userSpaceOnUse" x1="0.7" y1="-698.85" x2="58.9" y2="-698.85" gradientTransform="matrix(1 0 0 -1 0 -539.4)">
	<stop  offset="0" style="stop-color:#353957;stop-opacity:0.4"/>
	<stop  offset="3.752616e-02" style="stop-color:#4B4E69;stop-opacity:0.3688"/>
	<stop  offset="0.1558" style="stop-color:#8A8D9E;stop-opacity:0.2706"/>
	<stop  offset="0.2635" style="stop-color:#BDBEC8;stop-opacity:0.1811"/>
	<stop  offset="0.3571" style="stop-color:#E1E1E6;stop-opacity:0.1034"/>
	<stop  offset="0.433" style="stop-color:#F7F7F8;stop-opacity:4.036874e-02"/>
	<stop  offset="0.4816" style="stop-color:#FFFFFF;stop-opacity:0"/>
	<stop  offset="0.5442" style="stop-color:#FAFAFB;stop-opacity:3.624742e-02"/>
	<stop  offset="0.6174" style="stop-color:#ECECEF;stop-opacity:7.857388e-02"/>
	<stop  offset="0.6958" style="stop-color:#D4D5DC;stop-opacity:0.124"/>
	<stop  offset="0.778" style="stop-color:#B4B5C0;stop-opacity:0.1715"/>
	<stop  offset="0.8631" style="stop-color:#898C9D;stop-opacity:0.2208"/>
	<stop  offset="0.9493" style="stop-color:#565A73;stop-opacity:0.2707"/>
	<stop  offset="1" style="stop-color:#353957;stop-opacity:0.3"/>
</linearGradient>
<path class="st3" d="M4.9,0v298.6c-2.6,2-4.2,4.4-4.2,6.9c0,7.4,13,13.4,29.1,13.4s29.1-6,29.1-13.4c0-2.5-1.5-4.8-4.1-6.9V0"/>
<path class="st4" d="M55.9,298.3V1.3c0-0.4-0.3-0.7-0.8-0.7s-0.8,0.3-0.8,0.7v296.8c-0.1,0.1-0.2,0.3-0.2,0.5
	c0,5.9-11.1,10.8-24.2,10.8c-12.8,0-23.7-4.8-24.2-10.5c0.1-0.1,0.1-0.2,0.1-0.3V1.3c0-0.4-0.3-0.7-0.8-0.7S4.2,0.9,4.2,1.3v296.9
	c-2.8,2.2-4.2,4.7-4.2,7.3c0,8,13.1,14.2,29.9,14.2c16.7,0,29.8-6.2,30.1-14.2C60,303,58.6,300.5,55.9,298.3z M30,318.2
	c-15.7,0-28.4-5.7-28.4-12.7c0-1.8,1-3.6,2.7-5.3c1.6,6.1,12.2,10.7,25.5,10.7c13.4,0,24.2-4.7,25.7-10.9c1.9,1.8,2.9,3.6,2.9,5.5
	C58.4,312.5,45.7,318.2,30,318.2z"/>
<path class="st5" d="M46.3,221.4c-1.7,0-3-1.3-3-3v-45.7c0-1.7,1.3-3,3-3s3,1.3,3,3v45.7C49.3,220,47.9,221.4,46.3,221.4z"/>
<path class="st5" d="M46.3,250.6c-1.7,0-3-1.3-3-3v-18c0-1.7,1.3-3,3-3s3,1.3,3,3v18C49.3,249.3,47.9,250.6,46.3,250.6z"/>
</svg>
