<?xml version="1.0" encoding="utf-8"?>
<!-- Generator: Adobe Illustrator 21.1.0, SVG Export Plug-In . SVG Version: 6.00 Build 0)  -->
<svg version="1.1" id="Layer_1" xmlns="http://www.w3.org/2000/svg" xmlns:xlink="http://www.w3.org/1999/xlink" x="0px" y="0px"
	 viewBox="0 0 119.4 86.6" style="enable-background:new 0 0 119.4 86.6;" xml:space="preserve">
<style type="text/css">
	.st0{fill:#1B3657;}
	.st1{fill:#1A2147;}
	.st2{fill:url(#SVGID_1_);}
	.st3{fill:url(#SVGID_2_);}
	.st4{fill:url(#SVGID_3_);}
	.st5{fill:url(#SVGID_4_);}
	.st6{fill:url(#SVGID_5_);}
	.st7{fill:url(#SVGID_6_);}
</style>
<polygon class="st0" points="86.4,52.7 48.1,69.8 0.7,43.7 45.8,16.6 56.5,36.8 "/>
<path class="st1" d="M0.7,44.4c-0.2,0-0.5-0.1-0.6-0.3c-0.2-0.3-0.1-0.8,0.2-1l45.1-27.2l0.7,1.3l-45,27.1
	C0.9,44.3,0.8,44.4,0.7,44.4z"/>
<path class="st1" d="M31.1,61c-0.2,0-0.5-0.1-0.6-0.3c-0.2-0.3-0.1-0.8,0.2-1l23.7-14.4l0,1.7L31.5,60.9C31.4,60.9,31.3,61,31.1,61z
	"/>
<g>
	
		<linearGradient id="SVGID_1_" gradientUnits="userSpaceOnUse" x1="83.4233" y1="-16.6256" x2="128.8714" y2="-27.1181" gradientTransform="matrix(0.8479 7.108149e-06 0 -0.8479 -34.0523 34.9041)">
		<stop  offset="0.289" style="stop-color:#B0955B"/>
		<stop  offset="0.9997" style="stop-color:#D5B865"/>
	</linearGradient>
	<polygon class="st2" points="51.7,36.9 51.7,34.7 41.3,29 38.7,60.2 70.6,77.9 73.3,48.8 	"/>
	
		<linearGradient id="SVGID_2_" gradientUnits="userSpaceOnUse" x1="80.4344" y1="-16.2895" x2="128.8481" y2="-27.4667" gradientTransform="matrix(0.8479 7.108149e-06 0 -0.8479 -34.0523 34.9041)">
		<stop  offset="0" style="stop-color:#D5B865"/>
		<stop  offset="1" style="stop-color:#E4D7AF"/>
	</linearGradient>
	<polygon class="st3" points="49.1,36.9 49.1,34.7 38.7,29 38.7,31.1 38.7,38.5 38.7,60.2 70.6,77.9 70.6,48.8 	"/>
</g>
<g>
	
		<linearGradient id="SVGID_3_" gradientUnits="userSpaceOnUse" x1="75.4034" y1="-21.9328" x2="120.8516" y2="-32.4254" gradientTransform="matrix(0.8479 7.108149e-06 0 -0.8479 -34.0523 34.9041)">
		<stop  offset="0.289" style="stop-color:#B0955B"/>
		<stop  offset="0.9997" style="stop-color:#D5B865"/>
	</linearGradient>
	<polygon class="st4" points="44.9,41.4 44.9,39.3 34.5,33.5 31.9,64.8 63.8,82.4 66.5,53.3 	"/>
	
		<linearGradient id="SVGID_4_" gradientUnits="userSpaceOnUse" x1="72.4146" y1="-21.5968" x2="120.8284" y2="-32.774" gradientTransform="matrix(0.8479 7.108149e-06 0 -0.8479 -34.0523 34.9041)">
		<stop  offset="0" style="stop-color:#D5B865"/>
		<stop  offset="1" style="stop-color:#E4D7AF"/>
	</linearGradient>
	<polygon class="st5" points="42.3,41.4 42.3,39.3 31.9,33.5 31.9,35.7 31.9,43 31.9,64.8 63.8,82.4 63.8,53.3 	"/>
</g>
<g>
	
		<linearGradient id="SVGID_5_" gradientUnits="userSpaceOnUse" x1="66.8069" y1="-26.9483" x2="112.2291" y2="-37.4349" gradientTransform="matrix(0.8479 7.108149e-06 0 -0.8479 -34.0523 34.9041)">
		<stop  offset="0.289" style="stop-color:#B0955B"/>
		<stop  offset="0.9997" style="stop-color:#D5B865"/>
	</linearGradient>
	<polygon class="st6" points="37.6,45.7 37.6,43.5 27.2,37.8 24.5,69 56.5,86.6 59.1,57.6 	"/>
	
		<linearGradient id="SVGID_6_" gradientUnits="userSpaceOnUse" x1="63.7031" y1="-26.5993" x2="112.1486" y2="-37.7839" gradientTransform="matrix(0.8479 7.108149e-06 0 -0.8479 -34.0523 34.9041)">
		<stop  offset="0" style="stop-color:#D5B865"/>
		<stop  offset="1" style="stop-color:#E4D7AF"/>
	</linearGradient>
	<polygon class="st7" points="34.9,45.7 34.9,43.5 24.5,37.8 24.5,39.9 24.5,47.3 24.5,69 56.5,86.6 56.5,57.6 	"/>
</g>
</svg>
