<!-- Generator: Adobe Illustrator 21.1.0, SVG Export Plug-In  -->
<svg version="1.1"
	 xmlns="http://www.w3.org/2000/svg" xmlns:xlink="http://www.w3.org/1999/xlink" xmlns:a="http://ns.adobe.com/AdobeSVGViewerExtensions/3.0/"
	 x="0px" y="0px" width="92.5px" height="97.8px" viewBox="0 0 92.5 97.8" style="enable-background:new 0 0 92.5 97.8;"
	 xml:space="preserve">
<style type="text/css">
	.st0{clip-path:url(#SVGID_2_);}
	.st1{fill:#1B3657;}
	.st2{fill:url(#SVGID_3_);}
	.st3{fill:none;stroke:#1A2147;stroke-width:2;stroke-linecap:round;stroke-linejoin:round;stroke-miterlimit:10;}
	.st4{fill:url(#SVGID_4_);}
	.st5{fill:#1A2147;}
	.st6{clip-path:url(#SVGID_2_);fill:#091235;enable-background:new    ;}
	.st7{fill:#113562;}
	.st8{clip-path:url(#SVGID_6_);}
	.st9{fill:url(#SVGID_7_);}
	.st10{fill:url(#SVGID_8_);}
	.st11{clip-path:url(#SVGID_6_);fill:#091235;enable-background:new    ;}
</style>
<defs>
</defs>
<g>
	<defs>
		<polyline id="SVGID_1_" points="0,1.6 0,97.8 92.5,97.8 92.5,53.4 		"/>
	</defs>
	<clipPath id="SVGID_2_">
		<use xlink:href="#SVGID_1_"  style="overflow:visible;"/>
	</clipPath>
	<g class="st0">
		<polygon class="st1" points="91.7,27.1 48.6,53.4 0.7,27 44,0.8 		"/>
		
			<linearGradient id="SVGID_3_" gradientUnits="userSpaceOnUse" x1="-5.7596" y1="45.2011" x2="55.0596" y2="31.1599" gradientTransform="matrix(1 0 0 -1 0 100.161)">
			<stop  offset="0" style="stop-color:#134071"/>
			<stop  offset="1" style="stop-color:#25527F"/>
		</linearGradient>
		<polygon class="st2" points="48.6,97 0.7,70.3 0.7,27 48.6,53.4 		"/>
		<path class="st3" d="M31.4,43.9"/>
		<path class="st3" d="M72.2,19.2"/>
		<path class="st3" d="M89.3,28.6"/>
		<path class="st3" d="M72.2,19.2"/>
		
			<linearGradient id="SVGID_4_" gradientUnits="userSpaceOnUse" x1="48.6" y1="38.1305" x2="91.758" y2="38.1305" gradientTransform="matrix(1 0 0 -1 0 100.161)">
			<stop  offset="0" style="stop-color:#134071"/>
			<stop  offset="1" style="stop-color:#25527F"/>
		</linearGradient>
		<polygon class="st4" points="48.6,97 48.6,53.4 91.7,27.1 91.7,70.6 		"/>
		<path class="st5" d="M48.6,54.2c-0.2,0-0.5-0.1-0.6-0.3c-0.2-0.3-0.1-0.8,0.2-1l43.2-26.3c0.3-0.2,0.8-0.1,1,0.2
			c0.2,0.3,0.1,0.8-0.2,1L48.9,54.1C48.8,54.1,48.7,54.2,48.6,54.2z"/>
		<path class="st5" d="M91.7,71.4c-0.4,0-0.7-0.3-0.7-0.7V27.6L43.7,1.4c-0.3-0.2-0.5-0.6-0.3-1c0.2-0.3,0.6-0.5,1-0.3l47.7,26.3
			c0.2,0.1,0.4,0.4,0.4,0.6v43.5C92.4,71,92.1,71.4,91.7,71.4z"/>
		<path class="st5" d="M48.6,97.8c-0.1,0-0.2,0-0.3-0.1L0.4,71c-0.3-0.2-0.5-0.6-0.3-1c0.2-0.3,0.6-0.5,1-0.3l47.5,26.5L91.4,70
			c0.3-0.2,0.8-0.1,1,0.2c0.2,0.3,0.1,0.8-0.2,1L48.9,97.7C48.8,97.7,48.7,97.8,48.6,97.8z"/>
		<path class="st5" d="M48.6,97.8c-0.4,0-0.7-0.3-0.7-0.7V53.7L0.4,27.6c-0.3-0.2-0.5-0.6-0.3-1c0.2-0.3,0.6-0.5,1-0.3L49,52.6
			c0.2,0.1,0.4,0.4,0.4,0.6v43.9C49.3,97.5,48.9,97.8,48.6,97.8z"/>
		<path class="st5" d="M0.7,71.1c-0.4,0-0.7-0.3-0.7-0.7V26.9c0-0.2,0.1-0.5,0.3-0.6L43.7,0.2c0.3-0.2,0.8-0.1,1,0.2s0.1,0.8-0.2,1
			l-43,25.9v43.1C1.4,70.8,1.1,71.1,0.7,71.1z"/>
	</g>
	<polygon class="st6" points="59,39.9 22.7,19.6 31.5,14.3 67.8,34.5 	"/>
	<g class="st0">
		<path class="st7" d="M19.2,48c-0.4,0.7-1.1,0.9-1.9,0.5c-1.3-0.7-2.3-2.8-2.4-4.7c0-1.9,1-2.9,2.2-2.2c0.8,0.4,1.5,1.5,2,2.6
			c0.1,0-0.9,0.4-0.9,0.4c-0.2-0.6-0.6-1.2-1-1.4c-0.7-0.4-1.2,0.2-1.2,1.2s0.6,2.1,1.2,2.5c0.4,0.2,0.8,0.1,1-0.3L19.2,48z"/>
		<path class="st7" d="M19.9,47.5c0-1.5,0.7-2,1.6-1.5s1.7,1.9,1.7,3.3c0,1.4-0.7,2-1.6,1.5S19.9,49,19.9,47.5z M21.5,49.4
			c0.3,0.2,0.6-0.1,0.6-0.6s-0.3-1.1-0.7-1.3s-0.6,0.1-0.6,0.6S21.1,49.2,21.5,49.4z"/>
		<path class="st7" d="M24.8,52.6l-1.4-5.3l1.1,0.6l0.7,2.9l0.6-2.3l1.1,0.6l-1.2,4L24.8,52.6z"/>
		<path class="st7" d="M29.7,50.7l1,0.6l0.1,4.6l-1-0.6v-0.5c-0.2,0.3-0.5,0.3-0.8,0.1c-0.8-0.4-1.5-1.7-1.5-3.2s0.7-2,1.4-1.6
			c0.3,0.2,0.7,0.6,0.9,1.1L29.7,50.7z M29.1,53.6c0.3,0.2,0.6-0.1,0.6-0.6s-0.3-1.1-0.7-1.3c-0.3-0.2-0.6,0.1-0.6,0.6
			C28.5,52.8,28.8,53.4,29.1,53.6z"/>
		<path class="st7" d="M31.7,49.5l1,0.6l0.1,7l-1-0.6L31.7,49.5z"/>
	</g>
</g>
</svg>
