<!-- Generator: Adobe Illustrator 21.1.0, SVG Export Plug-In  -->
<svg version="1.1"
	 xmlns="http://www.w3.org/2000/svg" xmlns:xlink="http://www.w3.org/1999/xlink" xmlns:a="http://ns.adobe.com/AdobeSVGViewerExtensions/3.0/"
	 x="0px" y="0px" width="40.3px" height="49.4px" viewBox="0 0 40.3 49.4" style="enable-background:new 0 0 40.3 49.4;"
	 xml:space="preserve">
<style type="text/css">
	.st0{fill:#99772C;}
	.st1{fill:#D5B865;}
	.st2{fill:#EFE4C4;}
	.st3{fill:#1A2147;}
</style>
<defs>
</defs>
<g>
	<g>
		<path class="st0" d="M40.3,30.7c-0.6,13-9.3,20.7-19.5,17.2C10.6,44.3,2.8,31,3.4,18S12.7-2.7,22.9,0.8S40.8,17.7,40.3,30.7z"/>
	</g>
	<g>
		<path class="st1" d="M36.9,31.4c-0.6,13-9.3,20.7-19.5,17.2S-0.5,31.7,0,18.7S9.3-2,19.5,1.5S37.5,18.4,36.9,31.4z"/>
	</g>
	<g>
		<path class="st2" d="M21.8,47.1c-1.5,0-3-0.3-4.5-0.8C8.2,43.1,1.1,31.1,1.6,19.4C1.9,13.1,4.4,7.8,8.5,5
			c3.2-2.2,7.1-2.6,11.1-1.3C28.8,6.9,35.8,19,35.3,30.6C35.1,37,32.6,42.3,28.5,45C26.5,46.4,24.2,47.1,21.8,47.1z M15.1,4.2
			C13,4.2,11,4.9,9.2,6.1c-3.7,2.5-6,7.4-6.3,13.4C2.4,30.6,9.1,42.1,17.8,45.1c3.6,1.2,7.1,0.9,10-1.1c3.7-2.5,6-7.4,6.3-13.4
			C34.6,19.4,27.9,7.9,19.2,5C17.8,4.5,16.4,4.2,15.1,4.2z"/>
	</g>
	<g>
		<g>
			<g>
				<polygon class="st3" points="11.7,26.4 7.1,18.6 17,9.9 21.7,17.9 20.5,18.6 16.7,12.1 9,18.9 12.9,25.7 				"/>
				<rect x="13" y="14.5" transform="matrix(0.8633 -0.5047 0.5047 0.8633 -6.6842 9.2184)" class="st3" width="1.4" height="4.8"/>
			</g>
			<g>
				<polygon class="st3" points="19.4,39.6 14.7,31.5 15.9,30.8 19.7,37.3 27.5,30.5 23.5,23.8 24.7,23 29.3,30.8 				"/>
				<rect x="22" y="30" transform="matrix(0.8632 -0.5048 0.5048 0.8632 -13.2789 15.9249)" class="st3" width="1.4" height="4.8"/>
			</g>
			<g>
				<polygon class="st3" points="24.3,30.5 23.4,29.4 27.7,25.7 20.5,13.4 16.4,17 15.5,15.9 20.9,11.2 29.5,25.9 				"/>
				
					<rect x="21.5" y="19.5" transform="matrix(0.7496 -0.6618 0.6618 0.7496 -7.5713 20.4702)" class="st3" width="3.6" height="1.4"/>
			</g>
			<g>
				<polygon class="st3" points="15.6,38.3 6.9,23.5 12.1,18.9 13.1,20 8.8,23.8 15.9,36 20,32.4 21,33.5 				"/>
				
					<rect x="11.3" y="28.4" transform="matrix(0.7496 -0.6618 0.6618 0.7496 -16.0151 16.0075)" class="st3" width="3.6" height="1.4"/>
			</g>
		</g>
		<path class="st3" d="M17.8,30.7l-4.3-7.4l5.1-4.5l4.3,7.4L17.8,30.7z M15.3,23.6l2.9,4.9l2.9-2.6L18.2,21L15.3,23.6z"/>
	</g>
</g>
</svg>
