<!-- Generator: Adobe Illustrator 21.1.0, SVG Export Plug-In  -->
<svg version="1.1"
	 xmlns="http://www.w3.org/2000/svg" xmlns:xlink="http://www.w3.org/1999/xlink" xmlns:a="http://ns.adobe.com/AdobeSVGViewerExtensions/3.0/"
	 x="0px" y="0px" width="59.7px" height="1179.4px" viewBox="0 0 59.7 1179.4" style="enable-background:new 0 0 59.7 1179.4;"
	 xml:space="preserve">
<style type="text/css">
	.st0{opacity:0.27;fill:url(#SVGID_1_);}
	.st1{opacity:0.2;fill:url(#SVGID_2_);}
	.st2{opacity:0.86;fill:url(#SVGID_3_);}
	.st3{fill:#E5D8BA;}
	.st4{opacity:0.88;}
	.st5{opacity:0.5;fill:#FFFFFF;}
	.st6{fill:#E9DBB0;}
	.st7{opacity:0.27;fill:url(#SVGID_4_);}
	.st8{opacity:0.2;fill:url(#SVGID_5_);}
	.st9{opacity:0.86;fill:url(#SVGID_6_);}
</style>
<defs>
</defs>
<g>
	<linearGradient id="SVGID_1_" gradientUnits="userSpaceOnUse" x1="0.7499" y1="589.3402" x2="58.9907" y2="589.3402">
		<stop  offset="0" style="stop-color:#D5B865"/>
		<stop  offset="5.762811e-02" style="stop-color:#D8BC6F;stop-opacity:0.876"/>
		<stop  offset="0.1542" style="stop-color:#DFC889;stop-opacity:0.6682"/>
		<stop  offset="0.2778" style="stop-color:#EADCB3;stop-opacity:0.4023"/>
		<stop  offset="0.4222" style="stop-color:#FAF6ED;stop-opacity:9.144038e-02"/>
		<stop  offset="0.4647" style="stop-color:#FFFFFF;stop-opacity:0"/>
		<stop  offset="0.5363" style="stop-color:#FEFDFA;stop-opacity:0.1337"/>
		<stop  offset="0.626" style="stop-color:#F9F5EA;stop-opacity:0.3013"/>
		<stop  offset="0.7254" style="stop-color:#F2EAD1;stop-opacity:0.487"/>
		<stop  offset="0.8318" style="stop-color:#E9D9AD;stop-opacity:0.6858"/>
		<stop  offset="0.9426" style="stop-color:#DCC47F;stop-opacity:0.8928"/>
		<stop  offset="1" style="stop-color:#D5B865"/>
	</linearGradient>
	<path class="st0" d="M4.9,0v1158.3c-2.6,2-4.2,4.4-4.2,6.9c0,7.4,13,13.4,29.1,13.4s29.1-6,29.1-13.4c0-2.5-1.5-4.8-4.1-6.9V0"/>
	<linearGradient id="SVGID_2_" gradientUnits="userSpaceOnUse" x1="0.7499" y1="589.3402" x2="58.9907" y2="589.3402">
		<stop  offset="1.653439e-04" style="stop-color:#FFFFFF;stop-opacity:0"/>
		<stop  offset="1" style="stop-color:#D5B865"/>
	</linearGradient>
	<path class="st1" d="M4.9,0v1158.3c-2.6,2-4.2,4.4-4.2,6.9c0,7.4,13,13.4,29.1,13.4s29.1-6,29.1-13.4c0-2.5-1.5-4.8-4.1-6.9V0"/>
	<linearGradient id="SVGID_3_" gradientUnits="userSpaceOnUse" x1="0.7499" y1="589.3402" x2="58.9907" y2="589.3402">
		<stop  offset="0" style="stop-color:#D5B865;stop-opacity:0.4"/>
		<stop  offset="8.782912e-02" style="stop-color:#DFC98B;stop-opacity:0.3271"/>
		<stop  offset="0.2172" style="stop-color:#EDE0BD;stop-opacity:0.2196"/>
		<stop  offset="0.3307" style="stop-color:#F7F1E1;stop-opacity:0.1254"/>
		<stop  offset="0.4226" style="stop-color:#FDFBF7;stop-opacity:4.897785e-02"/>
		<stop  offset="0.4816" style="stop-color:#FFFFFF;stop-opacity:0"/>
		<stop  offset="0.5546" style="stop-color:#FEFDFA;stop-opacity:4.226557e-02"/>
		<stop  offset="0.64" style="stop-color:#FAF6EC;stop-opacity:9.163190e-02"/>
		<stop  offset="0.7314" style="stop-color:#F3EBD4;stop-opacity:0.1445"/>
		<stop  offset="0.8271" style="stop-color:#EADCB4;stop-opacity:0.2"/>
		<stop  offset="0.9252" style="stop-color:#DFC98A;stop-opacity:0.2567"/>
		<stop  offset="1" style="stop-color:#D5B865;stop-opacity:0.3"/>
	</linearGradient>
	<path class="st2" d="M4.9,0v1158.3c-2.6,2-4.2,4.4-4.2,6.9c0,7.4,13,13.4,29.1,13.4s29.1-6,29.1-13.4c0-2.5-1.5-4.8-4.1-6.9V0"/>
	<path class="st3" d="M29.8,1170.5c-14.3,0-25.6-5.4-25.6-12.2c0-0.4,0.3-0.7,0.7-0.7s0.7,0.3,0.7,0.7c0,5.9,11.1,10.9,24.2,10.9
		c13.1,0,24.2-5,24.2-10.9c0-0.4,0.3-0.7,0.7-0.7s0.7,0.3,0.7,0.7C55.4,1165.1,44.2,1170.5,29.8,1170.5z"/>
	<g class="st4">
		<path class="st3" d="M29.9,1179.4c-16.7,0-29.9-6.2-29.9-14.2c0-2.6,1.4-5.1,4.2-7.3V1.3c0-0.4,0.3-0.7,0.8-0.7s0.8,0.3,0.8,0.7
			v1157c0,0.2-0.1,0.5-0.3,0.6c-2.5,1.9-3.9,4.1-3.9,6.3c0,7,12.7,12.7,28.4,12.7s28.4-5.7,28.4-12.7c0-2.2-1.3-4.3-3.8-6.3
			c-0.2-0.1-0.3-0.4-0.3-0.6V1.3c0-0.4,0.3-0.7,0.8-0.7s0.8,0.3,0.8,0.7V1158c2.7,2.2,4.1,4.7,4.1,7.2
			C59.7,1173.2,46.6,1179.4,29.9,1179.4z"/>
	</g>
	<path class="st5" d="M46.3,1080.8c-1.5,0-2.7-1.2-2.7-2.7v-45.7c0-1.5,1.2-2.7,2.7-2.7s2.7,1.2,2.7,2.7v45.7
		C49,1079.6,47.8,1080.8,46.3,1080.8z"/>
	<path class="st5" d="M46.3,1110c-1.5,0-2.7-1.2-2.7-2.7v-18c0-1.5,1.2-2.7,2.7-2.7s2.7,1.2,2.7,2.7v18
		C49,1108.8,47.8,1110,46.3,1110z"/>
</g>
<g>
	<g>
		<path class="st6" d="M33.5,1080.5c0.8,0,1.4-0.6,1.4-1.8c0-0.9-0.4-1.8-1.3-1.8c-0.2,0-0.7,0-1.2,1.4l-0.6,1.7
			c-0.9,3.2-2.9,3.8-4.3,3.8c-2.6,0-4.4-2.2-4.4-5c0-2.8,1.7-5,4.5-5v3.5c-0.8,0-1.3,0.4-1.3,1.5c0,0.9,0.5,1.5,1.2,1.5
			c0.3,0,0.8-0.1,1.2-1.3l0.5-1.7c1.2-3.8,3.4-4,4.4-4c3.2,0,4.4,2.9,4.4,5.3c0,3.2-1.8,5.3-4.5,5.3V1080.5z"/>
		<path class="st6" d="M33.9,1060.9v7c0.9-0.1,1.5-1.2,1.5-2.2c0-0.5-0.1-1.3-0.8-1.9c0.3-0.4,1.3-1.8,1.7-2.3
			c1.4,1,1.8,2.9,1.8,4.4c0,2.8-2.1,5.2-5.1,5.2s-5.1-2.4-5.1-5.2c0-2.8,1.9-5.1,5-5.1C33.1,1060.8,33.6,1060.9,33.9,1060.9z
			 M32,1064c-1.3,0.3-1.4,1.4-1.4,1.9c0,0.5,0.2,1.7,1.4,1.9V1064z"/>
		<path class="st6" d="M37.8,1054.8v3.3h-9.8v-3.3h1.5c-1.2-0.3-1.8-1.9-1.8-2.7c0-2.6,1.8-3.9,4.8-3.9h5.2v3.3h-5.1
			c-1.3,0-1.7,0.9-1.7,1.6c0,0.8,0.4,1.7,1.7,1.7H37.8z"/>
		<path class="st6" d="M22.9,1038.1v-3.3h14.9v3.1h-1.4c1.2,0.6,1.6,1.8,1.6,2.9c0,2.4-1.9,4.8-5.1,4.8s-5.1-2.3-5.1-4.8
			c0-1.2,0.5-2.1,1.2-2.7H22.9z M35,1040.1c0-1.1-0.9-2-2-2s-2,0.9-2,2c0,1.1,0.9,2,2,2S35,1041.2,35,1040.1z"/>
		<path class="st6" d="M22.9,1029.7c0-1.1,0.8-2,1.9-2c1,0,1.9,0.9,1.9,2c0,1.1-0.9,2-1.9,2C23.8,1031.7,22.9,1030.8,22.9,1029.7z
			 M37.8,1031.4v-3.3h-9.8v3.3H37.8z"/>
		<path class="st6" d="M37.8,1021.4v3.3h-9.8v-3.3h1.5c-1.2-0.3-1.8-1.9-1.8-2.7c0-2.6,1.8-3.9,4.8-3.9h5.2v3.3h-5.1
			c-1.3,0-1.7,0.9-1.7,1.6c0,0.8,0.4,1.7,1.7,1.7H37.8z"/>
		<path class="st6" d="M38.5,1009c0.8-0.3,1.3-1.1,1.3-2.2c0-1.6-1.1-2.6-3.1-2.6c0.8,0.5,1.4,1.5,1.4,3c0,2.4-1.9,4.8-5.1,4.8
			s-5.1-2.3-5.1-4.8c0-1,0.4-2.1,1.3-2.7h-1v-3.3h8.5c4.1,0,6.2,2,6.2,5.6c0,2.3-1.3,4.2-3.2,5L38.5,1009z M35,1006.6
			c0-1.1-0.9-2-2-2s-2,0.9-2,2c0,1.1,0.9,2,2,2S35,1007.7,35,1006.6z"/>
	</g>
</g>
</svg>
