<!-- Generator: Adobe Illustrator 21.1.0, SVG Export Plug-In  -->
<svg version="1.1"
	 xmlns="http://www.w3.org/2000/svg" xmlns:xlink="http://www.w3.org/1999/xlink" xmlns:a="http://ns.adobe.com/AdobeSVGViewerExtensions/3.0/"
	 x="0px" y="0px" width="946.9px" height="554.8px" viewBox="0 0 946.9 554.8" style="enable-background:new 0 0 946.9 554.8;"
	 xml:space="preserve">
<style type="text/css">
	.st0{opacity:0.27;}
	.st1{fill:url(#SVGID_1_);}
	.st2{opacity:0.2;}
	.st3{fill:url(#SVGID_2_);}
	.st4{opacity:0.86;}
	.st5{fill:url(#SVGID_3_);}
	.st6{fill:none;stroke:#E5D8BA;stroke-width:1.353;stroke-linecap:round;stroke-linejoin:round;stroke-miterlimit:10;}
	.st7{opacity:0.88;}
	.st8{opacity:0.5;fill:none;stroke:#FFFFFF;stroke-width:5.412;stroke-linecap:round;stroke-linejoin:round;stroke-miterlimit:10;}
	.st9{fill:url(#SVGID_4_);}
	.st10{fill:url(#SVGID_5_);}
	.st11{fill:url(#SVGID_6_);}
</style>
<defs>
</defs>
<g>
	<g>
		<g class="st0">
			
				<linearGradient id="SVGID_1_" gradientUnits="userSpaceOnUse" x1="3807.2754" y1="-756.8672" x2="3859.8083" y2="-756.8672" gradientTransform="matrix(0.4858 0.8741 0.8741 -0.4858 -725.1439 -3441.7559)">
				<stop  offset="0" style="stop-color:#D5B865"/>
				<stop  offset="5.762811e-02" style="stop-color:#D8BC6F;stop-opacity:0.876"/>
				<stop  offset="0.1542" style="stop-color:#DFC889;stop-opacity:0.6682"/>
				<stop  offset="0.2778" style="stop-color:#EADCB3;stop-opacity:0.4023"/>
				<stop  offset="0.4222" style="stop-color:#FAF6ED;stop-opacity:9.144038e-02"/>
				<stop  offset="0.4647" style="stop-color:#FFFFFF;stop-opacity:0"/>
				<stop  offset="0.5363" style="stop-color:#FEFDFA;stop-opacity:0.1337"/>
				<stop  offset="0.626" style="stop-color:#F9F5EA;stop-opacity:0.3013"/>
				<stop  offset="0.7254" style="stop-color:#F2EAD1;stop-opacity:0.487"/>
				<stop  offset="0.8318" style="stop-color:#E9D9AD;stop-opacity:0.6858"/>
				<stop  offset="0.9426" style="stop-color:#DCC47F;stop-opacity:0.8928"/>
				<stop  offset="1" style="stop-color:#D5B865"/>
			</linearGradient>
			<path class="st1" d="M0,515.3L913.2,7.8c0.4-3,1.6-5.2,3.6-6.3c5.9-3.3,16.3,4.4,23.4,17.1c7,12.7,8,25.6,2.2,28.9
				c-2,1.1-4.5,1-7.2-0.2L21.9,554.7"/>
		</g>
		<g class="st2">
			
				<linearGradient id="SVGID_2_" gradientUnits="userSpaceOnUse" x1="3562.0247" y1="-1071.9884" x2="4104.9214" y2="-447.4572" gradientTransform="matrix(0.4858 0.8741 0.8741 -0.4858 -725.1439 -3441.7559)">
				<stop  offset="1.653439e-04" style="stop-color:#FFFFFF;stop-opacity:0"/>
				<stop  offset="1" style="stop-color:#D5B865"/>
			</linearGradient>
			<path class="st3" d="M0,515.3L913.2,7.8c0.4-3,1.6-5.2,3.6-6.3c5.9-3.3,16.3,4.4,23.4,17.1c7,12.7,8,25.6,2.2,28.9
				c-2,1.1-4.5,1-7.2-0.2L21.9,554.7"/>
		</g>
		<g class="st4">
			
				<linearGradient id="SVGID_3_" gradientUnits="userSpaceOnUse" x1="3807.2754" y1="-756.8672" x2="3859.8083" y2="-756.8672" gradientTransform="matrix(0.4858 0.8741 0.8741 -0.4858 -725.1439 -3441.7559)">
				<stop  offset="0" style="stop-color:#D5B865;stop-opacity:0.4"/>
				<stop  offset="8.782912e-02" style="stop-color:#DFC98B;stop-opacity:0.3271"/>
				<stop  offset="0.2172" style="stop-color:#EDE0BD;stop-opacity:0.2196"/>
				<stop  offset="0.3307" style="stop-color:#F7F1E1;stop-opacity:0.1254"/>
				<stop  offset="0.4226" style="stop-color:#FDFBF7;stop-opacity:4.897785e-02"/>
				<stop  offset="0.4816" style="stop-color:#FFFFFF;stop-opacity:0"/>
				<stop  offset="0.5546" style="stop-color:#FEFDFA;stop-opacity:4.226557e-02"/>
				<stop  offset="0.64" style="stop-color:#FAF6EC;stop-opacity:9.163190e-02"/>
				<stop  offset="0.7314" style="stop-color:#F3EBD4;stop-opacity:0.1445"/>
				<stop  offset="0.8271" style="stop-color:#EADCB4;stop-opacity:0.2"/>
				<stop  offset="0.9252" style="stop-color:#DFC98A;stop-opacity:0.2567"/>
				<stop  offset="1" style="stop-color:#D5B865;stop-opacity:0.3"/>
			</linearGradient>
			<path class="st5" d="M0,515.3L913.2,7.8c0.4-3,1.6-5.2,3.6-6.3c5.9-3.3,16.3,4.4,23.4,17.1c7,12.7,8,25.6,2.2,28.9
				c-2,1.1-4.5,1-7.2-0.2L21.9,554.7"/>
		</g>
		<path class="st6" d="M913.2,7.8c5-2.8,14,3.7,20,14.6s6.8,21.9,1.8,24.7"/>
		<g class="st7">
			<path class="st6" d="M1,514.7l912.2-507c0.4-3,1.6-5.2,3.6-6.3c5.9-3.3,16.3,4.4,23.4,17.1c7,12.7,8,25.6,2.2,28.9
				c-2,1.1-4.5,1-7.2-0.2l-912.3,507"/>
		</g>
		<line class="st8" x1="832" y1="95.6" x2="868.1" y2="75.5"/>
		<line class="st8" x1="877" y1="70.6" x2="891.2" y2="62.7"/>
	</g>
	<g>
		<line class="st8" x1="438.9" y1="314.1" x2="474.9" y2="294"/>
		<line class="st8" x1="483.8" y1="289.1" x2="498" y2="281.2"/>
	</g>
</g>
</svg>
