<!-- Generator: Adobe Illustrator 21.1.0, SVG Export Plug-In  -->
<svg version="1.1"
	 xmlns="http://www.w3.org/2000/svg" xmlns:xlink="http://www.w3.org/1999/xlink" xmlns:a="http://ns.adobe.com/AdobeSVGViewerExtensions/3.0/"
	 x="0px" y="0px" width="946.9px" height="554.8px" viewBox="0 0 946.9 554.8" style="enable-background:new 0 0 946.9 554.8;"
	 xml:space="preserve">
<style type="text/css">
	.st0{opacity:0.27;}
	.st1{fill:url(#SVGID_1_);}
	.st2{opacity:0.2;}
	.st3{fill:url(#SVGID_2_);}
	.st4{opacity:0.86;}
	.st5{fill:url(#SVGID_3_);}
	.st6{fill:#E5D8BA;}
	.st7{opacity:0.88;}
	.st8{opacity:0.5;fill:#FFFFFF;}
	.st9{fill:#E9DBB0;}
	.st10{fill:url(#SVGID_4_);}
	.st11{fill:url(#SVGID_5_);}
	.st12{fill:url(#SVGID_6_);}
</style>
<defs>
</defs>
<g>
	<g>
		<g class="st0">
			
				<linearGradient id="SVGID_1_" gradientUnits="userSpaceOnUse" x1="2168.563" y1="190.7381" x2="2221.0962" y2="190.7381" gradientTransform="matrix(-0.4858 0.8741 -0.8741 -0.4858 1704.2821 -1549.0576)">
				<stop  offset="0" style="stop-color:#D5B865"/>
				<stop  offset="5.762811e-02" style="stop-color:#D8BC6F;stop-opacity:0.876"/>
				<stop  offset="0.1542" style="stop-color:#DFC889;stop-opacity:0.6682"/>
				<stop  offset="0.2778" style="stop-color:#EADCB3;stop-opacity:0.4023"/>
				<stop  offset="0.4222" style="stop-color:#FAF6ED;stop-opacity:9.144038e-02"/>
				<stop  offset="0.4647" style="stop-color:#FFFFFF;stop-opacity:0"/>
				<stop  offset="0.5363" style="stop-color:#FEFDFA;stop-opacity:0.1337"/>
				<stop  offset="0.626" style="stop-color:#F9F5EA;stop-opacity:0.3013"/>
				<stop  offset="0.7254" style="stop-color:#F2EAD1;stop-opacity:0.487"/>
				<stop  offset="0.8318" style="stop-color:#E9D9AD;stop-opacity:0.6858"/>
				<stop  offset="0.9426" style="stop-color:#DCC47F;stop-opacity:0.8928"/>
				<stop  offset="1" style="stop-color:#D5B865"/>
			</linearGradient>
			<path class="st1" d="M946.9,515.3L33.7,7.8c-0.4-3-1.6-5.2-3.6-6.3C24.2-1.8,13.7,5.8,6.7,18.5s-8,25.6-2.2,28.9
				c2,1.1,4.5,1,7.2-0.2L925,554.7"/>
		</g>
		<g class="st2">
			
				<linearGradient id="SVGID_2_" gradientUnits="userSpaceOnUse" x1="1923.3125" y1="-124.3831" x2="2466.2092" y2="500.1481" gradientTransform="matrix(-0.4858 0.8741 -0.8741 -0.4858 1704.2821 -1549.0576)">
				<stop  offset="1.653439e-04" style="stop-color:#FFFFFF;stop-opacity:0"/>
				<stop  offset="1" style="stop-color:#D5B865"/>
			</linearGradient>
			<path class="st3" d="M946.9,515.3L33.7,7.8c-0.4-3-1.6-5.2-3.6-6.3C24.2-1.8,13.7,5.8,6.7,18.5s-8,25.6-2.2,28.9
				c2,1.1,4.5,1,7.2-0.2L925,554.7"/>
		</g>
		<g class="st4">
			
				<linearGradient id="SVGID_3_" gradientUnits="userSpaceOnUse" x1="2168.563" y1="190.7381" x2="2221.0962" y2="190.7381" gradientTransform="matrix(-0.4858 0.8741 -0.8741 -0.4858 1704.2821 -1549.0576)">
				<stop  offset="0" style="stop-color:#D5B865;stop-opacity:0.4"/>
				<stop  offset="8.782912e-02" style="stop-color:#DFC98B;stop-opacity:0.3271"/>
				<stop  offset="0.2172" style="stop-color:#EDE0BD;stop-opacity:0.2196"/>
				<stop  offset="0.3307" style="stop-color:#F7F1E1;stop-opacity:0.1254"/>
				<stop  offset="0.4226" style="stop-color:#FDFBF7;stop-opacity:4.897785e-02"/>
				<stop  offset="0.4816" style="stop-color:#FFFFFF;stop-opacity:0"/>
				<stop  offset="0.5546" style="stop-color:#FEFDFA;stop-opacity:4.226557e-02"/>
				<stop  offset="0.64" style="stop-color:#FAF6EC;stop-opacity:9.163190e-02"/>
				<stop  offset="0.7314" style="stop-color:#F3EBD4;stop-opacity:0.1445"/>
				<stop  offset="0.8271" style="stop-color:#EADCB4;stop-opacity:0.2"/>
				<stop  offset="0.9252" style="stop-color:#DFC98A;stop-opacity:0.2567"/>
				<stop  offset="1" style="stop-color:#D5B865;stop-opacity:0.3"/>
			</linearGradient>
			<path class="st5" d="M946.9,515.3L33.7,7.8c-0.4-3-1.6-5.2-3.6-6.3C24.2-1.8,13.7,5.8,6.7,18.5s-8,25.6-2.2,28.9
				c2,1.1,4.5,1,7.2-0.2L925,554.7"/>
		</g>
		<path class="st6" d="M11.9,47.7c-0.1,0-0.2,0-0.3-0.1c-5.4-3-4.7-14.3,1.6-25.6c3-5.3,6.7-9.8,10.6-12.6c4-2.9,7.7-3.7,10.4-2.2
			c0.3,0.2,0.4,0.6,0.3,0.9c-0.2,0.3-0.6,0.4-0.9,0.3c-2.2-1.2-5.3-0.5-8.9,2.1c-3.7,2.7-7.3,7-10.2,12.2C8.5,33,7.6,43.9,12.2,46.4
			c0.3,0.2,0.4,0.6,0.3,0.9C12.3,47.6,12.1,47.7,11.9,47.7z"/>
		<g class="st7">
			<path class="st6" d="M924,554.8c-0.1,0-0.2,0-0.3-0.1L11.7,47.9c-2.9,1.2-5.5,1.2-7.5,0c-6.3-3.5-5.4-16.6,1.9-29.8
				C9.6,12,13.9,6.7,18.4,3.4c4.6-3.4,8.9-4.3,12-2.6c2,1.1,3.4,3.4,3.9,6.5l911.9,506.8c0.3,0.2,0.4,0.6,0.3,0.9
				c-0.2,0.3-0.6,0.4-0.9,0.3L33.4,8.3c-0.2-0.1-0.3-0.3-0.3-0.5C32.6,5,31.5,3,29.7,2c-2.6-1.4-6.3-0.5-10.5,2.5
				c-4.3,3.2-8.6,8.2-11.9,14.3C0.4,31.2-0.7,43.7,4.9,46.8c1.7,1,4,0.9,6.6-0.2c0.2-0.1,0.4-0.1,0.6,0l912.3,507
				c0.3,0.2,0.4,0.6,0.3,0.9C924.4,554.7,924.2,554.8,924,554.8z"/>
		</g>
		<path class="st8" d="M114.9,98.3c-0.4,0-0.9-0.1-1.3-0.3l-36-20c-1.3-0.7-1.8-2.4-1.1-3.7c0.7-1.3,2.4-1.8,3.7-1.1l36,20
			c1.3,0.7,1.8,2.4,1.1,3.7C116.8,97.8,115.8,98.3,114.9,98.3z"/>
		<path class="st8" d="M69.9,73.3c-0.4,0-0.9-0.1-1.3-0.3l-14.2-7.9c-1.3-0.7-1.8-2.4-1.1-3.7c0.7-1.3,2.4-1.8,3.7-1.1l14.2,7.9
			c1.3,0.7,1.8,2.4,1.1,3.7C71.8,72.8,70.9,73.3,69.9,73.3z"/>
	</g>
	<g>
		<path class="st8" d="M508,316.8c-0.4,0-0.9-0.1-1.3-0.3l-36-20c-1.3-0.7-1.8-2.4-1.1-3.7c0.7-1.3,2.4-1.8,3.7-1.1l36,20
			c1.3,0.7,1.8,2.4,1.1,3.7C509.9,316.3,509,316.8,508,316.8z"/>
		<path class="st8" d="M463.1,291.8c-0.4,0-0.9-0.1-1.3-0.3l-14.2-7.9c-1.3-0.7-1.8-2.4-1.1-3.7s2.4-1.8,3.7-1.1l14.2,7.9
			c1.3,0.7,1.8,2.4,1.1,3.7C465,291.3,464.1,291.8,463.1,291.8z"/>
	</g>
</g>
<g>
	<path class="st9" d="M165.1,106.2l-0.1-3.1l7.3,4.1l0.1,3.1l-2.5-1.4l0.2,11.4l-2.3-1.3l-0.2-11.4L165.1,106.2z"/>
	<path class="st9" d="M175.9,123.5l-2.2-1.2l-0.2-9.8l2.1,1.2l0,2.4c0.3-1.7,1.2-2,2-1.5c0.3,0.2,0.6,0.4,1,0.8l-0.5,2.8
		c-0.5-0.5-0.8-0.7-1-0.8c-0.8-0.5-1.3,0-1.3,2.9L175.9,123.5z"/>
	<path class="st9" d="M184.5,118.6l2.2,1.2l0.2,9.8l-2.2-1.2l0-1.1c-0.4,0.6-1.1,0.7-1.8,0.3c-1.6-0.9-3.2-3.7-3.3-6.9
		c-0.1-3.2,1.5-4.2,3.1-3.3c0.7,0.4,1.4,1.2,1.8,2.3L184.5,118.6z M183.3,124.7c0.7,0.4,1.3-0.2,1.3-1.3c0-1.1-0.7-2.4-1.4-2.8
		c-0.7-0.4-1.3,0.2-1.3,1.3C181.9,123.1,182.6,124.3,183.3,124.7z"/>
	<path class="st9" d="M193.5,118.5l2.2,1.2l0.3,14.9l-2.1-1.2l0-1.4c-0.4,0.9-1.2,0.9-1.9,0.5c-1.6-0.9-3.2-3.7-3.3-6.9
		c-0.1-3.2,1.5-4.2,3.1-3.3c0.8,0.4,1.4,1.2,1.8,2.2L193.5,118.5z M192.4,129.8c0.7,0.4,1.3-0.2,1.3-1.3c0-1.1-0.7-2.4-1.4-2.8
		c-0.7-0.4-1.3,0.2-1.3,1.3S191.6,129.4,192.4,129.8z"/>
	<path class="st9" d="M199,121.6c0.7,0.4,1.3,1.6,1.4,2.6c0,1-0.5,1.6-1.3,1.2c-0.7-0.4-1.4-1.6-1.4-2.7
		C197.7,121.7,198.3,121.2,199,121.6z M198.3,135.9l2.2,1.2l-0.2-9.8l-2.2-1.2L198.3,135.9z"/>
	<path class="st9" d="M204.9,139.6l-2.2-1.2l-0.2-9.8l2.2,1.2l0,1.5c0.2-1.1,1.2-1.1,1.8-0.8c1.7,1,2.6,3.2,2.7,6.3l0.1,5.2
		l-2.2-1.2l-0.1-5.1c0-1.3-0.6-2-1.1-2.3c-0.5-0.3-1.1-0.2-1.1,1L204.9,139.6z"/>
	<path class="st9" d="M213.2,144.8c0.2,0.9,0.8,1.7,1.5,2.1c1.1,0.6,1.7-0.1,1.7-2.2c-0.3,0.6-1,0.8-2,0.3c-1.6-0.9-3.2-3.7-3.3-6.9
		c-0.1-3.2,1.5-4.2,3.1-3.3c0.7,0.4,1.4,1.2,1.8,2.3l0-1l2.2,1.2l0.2,8.5c0.1,4.1-1.2,5.4-3.6,4.1c-1.5-0.9-2.8-2.9-3.4-5
		L213.2,144.8z M214.7,142.2c0.7,0.4,1.3-0.2,1.3-1.3c0-1.1-0.7-2.4-1.4-2.8c-0.7-0.4-1.3,0.2-1.3,1.3
		C213.3,140.5,214,141.8,214.7,142.2z"/>
</g>
<path class="st9" d="M239.5,154.8c0-0.1,0-0.1,0-0.2c0-0.1,0-0.2-0.1-0.3c0,0,0-0.1,0-0.1l-2.9-6.1c-0.3-0.6-1-0.8-1.6-0.6
	c-0.6,0.3-0.8,1-0.6,1.6l1.3,2.6l-9.5-5.4c-0.6-0.3-1.3-0.1-1.6,0.4s-0.1,1.3,0.4,1.6l10.4,5.9l-1.6,0.4c-0.6,0.2-1,0.8-0.8,1.5
	c0.1,0.5,0.6,0.9,1.1,0.9c0.1,0,0.2,0,0.3,0l4.3-1.2c0,0,0,0,0,0c0.1,0,0.3-0.1,0.4-0.2c0,0,0,0,0.1,0c0.1-0.1,0.2-0.2,0.2-0.3
	c0,0,0,0,0-0.1c0,0,0,0,0,0c0,0,0-0.1,0-0.1C239.4,155,239.5,154.9,239.5,154.8z"/>
</svg>
