<?xml version="1.0" encoding="utf-8"?>
<!-- Generator: Adobe Illustrator 21.1.0, SVG Export Plug-In . SVG Version: 6.00 Build 0)  -->
<svg version="1.1" id="Layer_1" xmlns="http://www.w3.org/2000/svg" xmlns:xlink="http://www.w3.org/1999/xlink" x="0px" y="0px"
	 viewBox="0 0 243.5 210.2" style="enable-background:new 0 0 243.5 210.2;" xml:space="preserve">
<style type="text/css">
	.st0{fill:#E4D7AF;}
	.st1{fill:url(#SVGID_1_);}
	.st2{fill:#DAC380;}
	.st3{fill:none;stroke:#D5B865;stroke-width:2;stroke-linecap:round;stroke-linejoin:round;stroke-miterlimit:10;}
	.st4{fill:none;stroke:#1A2147;stroke-width:2;stroke-linecap:round;stroke-linejoin:round;stroke-miterlimit:10;}
	.st5{fill:#1A2147;}
	.st6{fill:#1B3657;}
	.st7{opacity:0.34;fill:url(#SVGID_2_);enable-background:new    ;}
	.st8{fill:#99772C;}
	.st9{fill:#D5B865;}
	.st10{fill:none;stroke:#EFE4C4;stroke-width:1.2585;stroke-miterlimit:10;}
	.st11{fill:none;stroke:#1A2147;stroke-width:1.4453;stroke-miterlimit:10;}
	.st12{fill:url(#SVGID_3_);}
	.st13{fill:url(#SVGID_4_);}
</style>
<polygon class="st0" points="242.5,100 105,184.1 1,126.2 138.9,42.3 "/>
<linearGradient id="SVGID_1_" gradientUnits="userSpaceOnUse" x1="105" y1="57.4" x2="242.5" y2="57.4" gradientTransform="matrix(1 0 0 -1 0 212)">
	<stop  offset="0" style="stop-color:#D5B865"/>
	<stop  offset="1" style="stop-color:#E4D7AF"/>
</linearGradient>
<polygon class="st1" points="242.5,125.1 105,209.2 105,184.1 242.5,100 "/>
<polygon class="st2" points="105,209.2 1,151.3 1,126.2 105,184.1 "/>
<polygon class="st3" points="105,209.2 105,184.1 1,126.2 1,151.3 "/>
<path class="st4" d="M199.4,98.2"/>
<path class="st4" d="M95.8,40.5"/>
<path class="st5" d="M145.1,110.3"/>
<polyline class="st3" points="1,126.2 138.9,42.3 242.5,100 242.5,125.1 198.9,151.8 105,209.2 "/>
<line class="st3" x1="105" y1="184.1" x2="242.5" y2="100"/>
<polygon class="st6" points="207.4,38.6 106.2,100.3 38.3,62.8 139.7,1.2 "/>
<linearGradient id="SVGID_2_" gradientUnits="userSpaceOnUse" x1="106.2" y1="161.25" x2="207.4" y2="161.25" gradientTransform="matrix(1 0 0 -1 0 212)">
	<stop  offset="0" style="stop-color:#134071"/>
	<stop  offset="1" style="stop-color:#25527F"/>
</linearGradient>
<polygon class="st7" points="207.4,38.6 106.2,100.3 139.5,42.3 139.7,1.2 "/>
<line class="st4" x1="139.7" y1="1.2" x2="139.7" y2="51.4"/>
<line class="st4" x1="139.7" y1="51.6" x2="81.9" y2="86.7"/>
<line class="st4" x1="139.7" y1="51.6" x2="164" y2="65.1"/>
<g>
	<g>
		<g>
			<path class="st8" d="M158.7,54.7c-0.6,13-9.3,20.7-19.5,17.2s-18-16.9-17.4-29.8c0.6-13,9.3-20.7,19.5-17.2
				C151.4,28.4,159.3,41.8,158.7,54.7z"/>
		</g>
		<g>
			<path class="st9" d="M155.3,55.4c-0.6,13-9.3,20.7-19.5,17.2s-18-16.9-17.4-29.8s9.3-20.7,19.5-17.2
				C148.1,29.1,155.9,42.5,155.3,55.4z"/>
		</g>
		<g>
			<path class="st10" d="M153.1,54.7c-0.5,11.4-8.2,18.2-17.1,15.1c-9-3.1-15.8-14.8-15.3-26.2s8.2-18.2,17.1-15.1
				S153.6,43.3,153.1,54.7z"/>
		</g>
		<g>
			<g>
				<g>
					<polyline class="st11" points="139.5,42.3 135.3,35 126.5,42.8 130.7,50.1 					"/>
					<line class="st11" x1="130.9" y1="38.9" x2="133.3" y2="43.1"/>
				</g>
				<g>
					<polyline class="st11" points="142.5,47.5 146.8,54.7 138,62.5 133.7,55.2 					"/>
					<line class="st11" x1="142.4" y1="58.6" x2="139.9" y2="54.4"/>
				</g>
				<g>
					<polyline class="st11" points="142.2,54 147,49.9 139.1,36.3 134.3,40.5 					"/>
					<line class="st11" x1="143" y1="43.1" x2="140.3" y2="45.5"/>
				</g>
				<g>
					<polyline class="st11" points="138.9,57 134.1,61.2 126.2,47.7 131,43.5 					"/>
					<line class="st11" x1="130.2" y1="54.4" x2="132.9" y2="52"/>
				</g>
			</g>
			<polygon class="st11" points="136.4,53.6 132.8,47.5 136.8,43.9 140.4,50.1 			"/>
		</g>
	</g>
	<g>
		<g>
			<path class="st8" d="M180.7,62c-0.6,13-9.3,20.7-19.5,17.2s-18-16.9-17.4-29.8c0.6-13,9.3-20.7,19.5-17.2
				C173.4,35.7,181.2,49.1,180.7,62z"/>
		</g>
		<g>
			<path class="st9" d="M177.3,62.7c-0.6,13-9.3,20.7-19.5,17.2s-18-16.9-17.4-29.8c0.6-13,9.3-20.7,19.5-17.2
				S177.9,49.8,177.3,62.7z"/>
		</g>
		<g>
			<path class="st10" d="M175.1,62c-0.5,11.4-8.2,18.2-17.1,15.1s-15.8-14.8-15.3-26.2s8.2-18.2,17.1-15.1
				C168.7,38.8,175.6,50.6,175.1,62z"/>
		</g>
		<g>
			<g>
				<g>
					<polyline class="st11" points="161.5,49.6 157.3,42.3 148.4,50.1 152.7,57.4 					"/>
					<line class="st11" x1="152.8" y1="46.2" x2="155.3" y2="50.4"/>
				</g>
				<g>
					<polyline class="st11" points="164.5,54.8 168.8,62 160,69.8 155.7,62.5 					"/>
					<line class="st11" x1="164.4" y1="65.9" x2="161.9" y2="61.7"/>
				</g>
				<g>
					<polyline class="st11" points="164.2,61.3 169,57.2 161.1,43.7 156.3,47.8 					"/>
					<line class="st11" x1="165" y1="50.4" x2="162.3" y2="52.8"/>
				</g>
				<g>
					<polyline class="st11" points="160.9,64.3 156.1,68.5 148.2,55 153,50.8 					"/>
					<line class="st11" x1="152.2" y1="61.7" x2="154.9" y2="59.3"/>
				</g>
			</g>
			<polygon class="st11" points="158.4,60.9 154.8,54.8 158.8,51.2 162.4,57.4 			"/>
		</g>
	</g>
	<g>
		<g>
			<path class="st8" d="M138.1,77.6c-0.6,13-9.3,20.7-19.5,17.2s-18-16.9-17.4-29.8s9.3-20.7,19.5-17.2S138.7,64.6,138.1,77.6z"/>
		</g>
		<g>
			<path class="st9" d="M134.8,78.3c-0.6,13-9.3,20.7-19.5,17.2s-18-16.9-17.4-29.8s9.3-20.7,19.5-17.2
				C127.5,52,135.3,65.3,134.8,78.3z"/>
		</g>
		<g>
			<path class="st10" d="M132.5,77.5c-0.5,11.4-8.2,18.2-17.1,15.1s-15.8-14.8-15.3-26.2s8.2-18.2,17.1-15.1
				C126.2,54.4,133,66.1,132.5,77.5z"/>
		</g>
		<g>
			<g>
				<g>
					<polyline class="st11" points="118.9,65.2 114.7,57.9 105.9,65.7 110.1,73 					"/>
					<line class="st11" x1="110.3" y1="61.8" x2="112.7" y2="66"/>
				</g>
				<g>
					<polyline class="st11" points="122,70.3 126.2,77.6 117.4,85.4 113.1,78.1 					"/>
					<line class="st11" x1="121.8" y1="81.5" x2="119.4" y2="77.3"/>
				</g>
				<g>
					<polyline class="st11" points="121.7,76.9 126.4,72.7 118.5,59.2 113.8,63.4 					"/>
					<line class="st11" x1="122.5" y1="66" x2="119.7" y2="68.4"/>
				</g>
				<g>
					<polyline class="st11" points="118.3,79.9 113.6,84.1 105.7,70.5 110.4,66.4 					"/>
					<line class="st11" x1="109.6" y1="77.3" x2="112.3" y2="74.9"/>
				</g>
			</g>
			<polygon class="st11" points="115.8,76.5 112.2,70.3 116.2,66.8 119.8,72.9 			"/>
		</g>
	</g>
	<g>
		<g>
			<path class="st8" d="M129.1,99.3c-0.6,13-9.3,20.7-19.5,17.2s-18-16.9-17.4-29.8c0.6-13,9.3-20.7,19.5-17.2
				C121.8,73,129.6,86.4,129.1,99.3z"/>
		</g>
		<g>
			<path class="st9" d="M125.7,100c-0.6,13-9.3,20.7-19.5,17.2s-18-16.9-17.4-29.8s9.3-20.7,19.5-17.2S126.3,87.1,125.7,100z"/>
		</g>
		<g>
			<path class="st10" d="M123.5,99.3c-0.5,11.4-8.2,18.2-17.1,15.1c-9-3.1-15.8-14.8-15.3-26.2C91.5,76.7,99.2,70,108.2,73
				S124,87.9,123.5,99.3z"/>
		</g>
		<g>
			<g>
				<g>
					<polyline class="st11" points="109.9,86.9 105.7,79.6 96.8,87.4 101.1,94.7 					"/>
					<line class="st11" x1="101.3" y1="83.5" x2="103.7" y2="87.7"/>
				</g>
				<g>
					<polyline class="st11" points="112.9,92.1 117.2,99.3 108.4,107.1 104.1,99.8 					"/>
					<line class="st11" x1="112.8" y1="103.2" x2="110.3" y2="99"/>
				</g>
				<g>
					<polyline class="st11" points="112.6,98.6 117.4,94.5 109.5,81 104.7,85.1 					"/>
					<line class="st11" x1="113.4" y1="87.7" x2="110.7" y2="90.1"/>
				</g>
				<g>
					<polyline class="st11" points="109.3,101.6 104.5,105.8 96.6,92.3 101.4,88.1 					"/>
					<line class="st11" x1="100.6" y1="99" x2="103.3" y2="96.6"/>
				</g>
			</g>
			<polygon class="st11" points="106.8,98.2 103.2,92.1 107.2,88.5 110.8,94.7 			"/>
		</g>
	</g>
	<g>
		<g>
			<path class="st8" d="M104.7,83.8c-0.6,13-9.3,20.7-19.5,17.2s-18-16.9-17.4-29.8S77.1,50.5,87.3,54S105.3,70.8,104.7,83.8z"/>
		</g>
		<g>
			<path class="st9" d="M101.4,84.5c-0.6,13-9.3,20.7-19.5,17.2s-18-16.9-17.4-29.8c0.6-13,9.3-20.7,19.5-17.2
				S101.9,71.5,101.4,84.5z"/>
		</g>
		<g>
			<path class="st10" d="M99.2,83.7C98.7,95.2,91,101.9,82,98.8S66.2,84,66.7,72.6s8.2-18.2,17.1-15.1
				C92.8,60.6,99.6,72.3,99.2,83.7z"/>
		</g>
		<g>
			<g>
				<g>
					<polyline class="st11" points="85.6,71.4 81.3,64.1 72.5,71.9 76.8,79.1 					"/>
					<line class="st11" x1="76.9" y1="68" x2="79.3" y2="72.2"/>
				</g>
				<g>
					<polyline class="st11" points="88.6,76.5 92.8,83.8 84,91.6 79.8,84.3 					"/>
					<line class="st11" x1="88.4" y1="87.7" x2="86" y2="83.5"/>
				</g>
				<g>
					<polyline class="st11" points="88.3,83.1 93,78.9 85.1,65.4 80.4,69.6 					"/>
					<line class="st11" x1="89.1" y1="72.2" x2="86.4" y2="74.6"/>
				</g>
				<g>
					<polyline class="st11" points="84.9,86.1 80.2,90.3 72.3,76.7 77,72.6 					"/>
					<line class="st11" x1="76.2" y1="83.5" x2="79" y2="81.1"/>
				</g>
			</g>
			<polygon class="st11" points="82.5,82.7 78.9,76.5 82.9,73 86.5,79.1 			"/>
		</g>
	</g>
</g>
<linearGradient id="SVGID_3_" gradientUnits="userSpaceOnUse" x1="106.2" y1="111.5" x2="207.4" y2="111.5" gradientTransform="matrix(1 0 0 -1 0 212)">
	<stop  offset="0" style="stop-color:#134071"/>
	<stop  offset="1" style="stop-color:#25527F"/>
</linearGradient>
<polygon class="st12" points="106.2,162.2 106.2,100.4 207.4,38.8 207.4,100.5 "/>
<line class="st4" x1="106.2" y1="100.3" x2="207.4" y2="38.6"/>
<polyline class="st4" points="139.7,1 207.4,38.4 207.4,100.5 "/>
<polyline class="st4" points="207.4,100.5 106.2,162.2 38.3,124.7 "/>
<linearGradient id="SVGID_4_" gradientUnits="userSpaceOnUse" x1="29.1354" y1="109.4037" x2="115.3646" y2="89.4963" gradientTransform="matrix(1 0 0 -1 0 212)">
	<stop  offset="0" style="stop-color:#134071"/>
	<stop  offset="1" style="stop-color:#25527F"/>
</linearGradient>
<polygon class="st13" points="106.2,162.2 38.3,124.7 38.3,62.9 106.2,100.4 "/>
<polyline class="st4" points="38.3,62.8 106.2,100 106.2,162.2 "/>
<polyline class="st4" points="139.7,1 38.3,62.6 38.3,124.7 "/>
</svg>
