<?xml version="1.0" encoding="utf-8"?>
<!-- Generator: Adobe Illustrator 21.1.0, SVG Export Plug-In . SVG Version: 6.00 Build 0)  -->
<svg version="1.1" id="Layer_1" xmlns="http://www.w3.org/2000/svg" xmlns:xlink="http://www.w3.org/1999/xlink" x="0px" y="0px"
	 viewBox="0 0 243.5 461.1" style="enable-background:new 0 0 243.5 461.1;" xml:space="preserve">
<style type="text/css">
	.st0{fill:#E4D7AF;}
	.st1{fill:url(#SVGID_1_);}
	.st2{fill:#DAC380;}
	.st3{fill:none;stroke:#D5B865;stroke-width:2;stroke-linecap:round;stroke-linejoin:round;stroke-miterlimit:10;}
	.st4{fill:none;stroke:#1A2147;stroke-width:2;stroke-linecap:round;stroke-linejoin:round;stroke-miterlimit:10;}
	.st5{fill:#1A2147;}
	.st6{fill:url(#SVGID_2_);}
	.st7{fill:#1A2F7C;}
	.st8{fill:#1B3657;}
	.st9{fill:url(#SVGID_3_);}
	.st10{opacity:0.7;}
	
		.st11{opacity:0.7;fill:none;stroke:#304FFE;stroke-linecap:round;stroke-linejoin:round;stroke-miterlimit:10;enable-background:new    ;}
	.st12{opacity:0.47;}
	.st13{fill:none;stroke:#D5B865;stroke-width:0.8559;stroke-miterlimit:10;}
	.st14{opacity:0.3;fill:#003A75;enable-background:new    ;}
</style>
<polygon class="st0" points="242.5,350.9 105,435 1,377.1 138.9,293.1 "/>
<linearGradient id="SVGID_1_" gradientUnits="userSpaceOnUse" x1="105" y1="733.5" x2="242.5" y2="733.5" gradientTransform="matrix(1 0 0 1 0 -328)">
	<stop  offset="0" style="stop-color:#D5B865"/>
	<stop  offset="1" style="stop-color:#E4D7AF"/>
</linearGradient>
<polygon class="st1" points="242.5,376 105,460.1 105,435 242.5,350.9 "/>
<polygon class="st2" points="105,460.1 1,402.2 1,377.1 105,435 "/>
<polygon class="st3" points="105,460.1 105,435 1,377.1 1,402.2 "/>
<path class="st4" d="M199.4,349.1"/>
<path class="st4" d="M95.8,291.3"/>
<path class="st5" d="M145.1,361.2"/>
<polygon class="st0" points="242.5,350.9 182.7,387.5 76.4,331.2 138.9,293.1 "/>
<polyline class="st3" points="1,377.1 138.9,293.1 242.5,350.9 242.5,376 198.9,402.6 105,460.1 "/>
<line class="st3" x1="105" y1="435" x2="242.5" y2="350.9"/>
<line class="st4" x1="57.1" y1="41.9" x2="57.1" y2="308.8"/>
<linearGradient id="SVGID_2_" gradientUnits="userSpaceOnUse" x1="110.15" y1="738.6" x2="110.15" y2="338.7" gradientTransform="matrix(1 0 0 1 0 -328)">
	<stop  offset="0" style="stop-color:#133E71"/>
	<stop  offset="1" style="stop-color:#25527F"/>
</linearGradient>
<polygon class="st6" points="174.1,410.6 46.2,338.5 46.2,10.7 174.1,82.8 "/>
<polygon class="st7" points="161.9,367.8 57.1,308.8 57.1,41.9 161.9,100.7 "/>
<polygon class="st8" points="189.6,73.1 174.1,82.8 46.2,10.7 61.7,1 "/>
<linearGradient id="SVGID_3_" gradientUnits="userSpaceOnUse" x1="181.85" y1="738.6" x2="181.85" y2="401.1" gradientTransform="matrix(1 0 0 1 0 -328)">
	<stop  offset="0" style="stop-color:#254770"/>
	<stop  offset="1" style="stop-color:#25527F"/>
</linearGradient>
<polygon class="st9" points="189.6,400.9 174.1,410.6 174.1,82.8 189.6,73.1 "/>
<polygon class="st4" points="174.1,410.6 174.1,82.8 46.2,10.7 46.2,338.5 "/>
<polyline class="st4" points="174.1,410.6 189.6,400.9 189.6,73.1 "/>
<polyline class="st4" points="46.2,10.7 61.7,1 189.6,73.1 174.1,82.8 "/>
<path class="st4" d="M161.9,100.7"/>
<g class="st10">
	<line class="st11" x1="152" y1="130.5" x2="66.4" y2="82.4"/>
	<line class="st11" x1="152" y1="175.3" x2="66.4" y2="127.3"/>
	<line class="st11" x1="152" y1="153.5" x2="66.4" y2="105.5"/>
	<line class="st11" x1="131.4" y1="130.2" x2="66.4" y2="93.7"/>
	<line class="st11" x1="91.6" y1="130.4" x2="66.4" y2="116.2"/>
	<line class="st11" x1="152" y1="286.8" x2="66.4" y2="238.7"/>
	<line class="st11" x1="152" y1="331.6" x2="66.4" y2="283.6"/>
	<line class="st11" x1="152" y1="309.8" x2="66.4" y2="261.8"/>
	<line class="st11" x1="131.4" y1="286.5" x2="66.4" y2="250"/>
	<line class="st11" x1="91.6" y1="286.7" x2="66.4" y2="272.5"/>
</g>
<line class="st4" x1="114.2" y1="61.4" x2="106" y2="56.8"/>
<path class="st4" d="M161.9,367.8"/>
<g class="st12">
	<g>
		<g>
			<polyline class="st13" points="111.9,84.4 108.8,79.8 103.2,82.6 106.2,87.2 			"/>
			<line class="st13" x1="106" y1="81.2" x2="107.8" y2="83.8"/>
		</g>
		<g>
			<polyline class="st13" points="114,87.6 117,92.1 111.4,94.9 108.4,90.4 			"/>
			<line class="st13" x1="114.2" y1="93.5" x2="112.5" y2="90.9"/>
		</g>
		<g>
			<polyline class="st13" points="114,91 117,89.5 111.4,81.1 108.4,82.6 			"/>
			<line class="st13" x1="114.2" y1="85.3" x2="112.5" y2="86.2"/>
		</g>
		<g>
			<polyline class="st13" points="111.9,92.1 108.8,93.6 103.2,85.2 106.2,83.7 			"/>
			<line class="st13" x1="106" y1="89.4" x2="107.8" y2="88.6"/>
		</g>
	</g>
	<polygon class="st13" points="110.1,89.9 107.6,86.1 110.1,84.8 112.7,88.6 	"/>
</g>
<path class="st14" d="M112.8,357.8c-0.3,4.3-4,6-8.2,3.8c-4.2-2.3-7.3-7.6-7-12c0.3-4.3,4-6,8.2-3.8
	C110,348.1,113.1,353.4,112.8,357.8z"/>
</svg>
