<!-- Generator: Adobe Illustrator 21.1.0, SVG Export Plug-In  -->
<svg version="1.1"
	 xmlns="http://www.w3.org/2000/svg" xmlns:xlink="http://www.w3.org/1999/xlink" xmlns:a="http://ns.adobe.com/AdobeSVGViewerExtensions/3.0/"
	 x="0px" y="0px" width="50.9px" height="24.9px" viewBox="0 0 50.9 24.9" style="enable-background:new 0 0 50.9 24.9;"
	 xml:space="preserve">
<style type="text/css">
	.st0{fill:#353957;}
</style>
<defs>
</defs>
<g>
	<path class="st0" d="M17.5,11.4h-2.6c0.5-5.3,5-9.5,10.5-9.5c0.5,0,0.9-0.4,0.9-0.9S25.8,0,25.3,0C18.8,0,13.5,5,13,11.4H3.5L7.1,8
		c0.4-0.4,0.4-1,0-1.4c-0.4-0.4-1-0.4-1.4,0l-5.5,5.2c0,0,0,0,0,0c0,0,0,0,0,0c0,0,0,0,0,0c0,0,0,0.1-0.1,0.1c0,0,0,0.1-0.1,0.1
		c0,0,0,0.1-0.1,0.1c0,0,0,0,0,0c0,0.1,0,0.1,0,0.2c0,0.1,0,0.1,0,0.2c0,0,0,0,0,0s0,0,0,0c0,0.1,0,0.1,0,0.2c0,0.1,0,0.1,0,0.2
		c0,0,0,0,0,0c0,0,0,0.1,0.1,0.1c0,0,0,0.1,0.1,0.1c0,0,0,0.1,0.1,0.1c0,0,0,0,0,0c0,0,0,0,0,0c0,0,0,0,0,0l5.5,5.2
		c0.2,0.2,0.4,0.3,0.7,0.3c0.3,0,0.5-0.1,0.7-0.3c0.4-0.4,0.4-1,0-1.4l-3.6-3.4H13c0.2,2.1,0.9,4.2,2.1,5.9c0.2,0.3,0.5,0.4,0.8,0.4
		c0.2,0,0.4-0.1,0.5-0.2c0.4-0.3,0.5-0.9,0.2-1.3c-1-1.5-1.6-3.1-1.7-4.9h2.6c0.6,0,1-0.4,1-1S18,11.4,17.5,11.4z"/>
	<path class="st0" d="M50.8,12.8C50.8,12.8,50.8,12.8,50.8,12.8c0-0.1,0-0.1,0-0.2c0-0.1,0-0.1,0-0.2c0,0,0,0,0,0s0,0,0,0
		c0-0.1,0-0.1,0-0.2c0-0.1,0-0.1,0-0.2c0,0,0,0,0,0c0,0,0-0.1-0.1-0.1c0,0,0-0.1-0.1-0.1c0,0,0-0.1-0.1-0.1c0,0,0,0,0,0c0,0,0,0,0,0
		c0,0,0,0,0,0l-5.5-5.2c-0.4-0.4-1-0.4-1.4,0c-0.4,0.4-0.4,1,0,1.4l3.6,3.4h-9.7c-0.2-2.1-0.9-4.1-2.1-5.9c-0.3-0.4-0.9-0.5-1.3-0.2
		c-0.4,0.3-0.5,0.9-0.2,1.3c1,1.4,1.6,3.1,1.7,4.8h-2.4c-0.6,0-1,0.4-1,1s0.4,1,1,1h2.4c-0.5,5.4-5,9.6-10.5,9.6
		c-0.5,0-0.9,0.4-0.9,0.9s0.4,0.9,0.9,0.9c6.5,0,11.9-5.1,12.4-11.5h9.7l-3.6,3.4c-0.4,0.4-0.4,1,0,1.4c0.2,0.2,0.5,0.3,0.7,0.3
		c0.2,0,0.5-0.1,0.7-0.3l5.5-5.2c0,0,0,0,0,0c0,0,0,0,0,0c0,0,0,0,0,0c0,0,0-0.1,0.1-0.1C50.7,12.9,50.7,12.9,50.8,12.8
		C50.7,12.9,50.8,12.8,50.8,12.8z"/>
</g>
</svg>
