<?xml version="1.0" encoding="utf-8"?>
<!-- Generator: Adobe Illustrator 21.1.0, SVG Export Plug-In . SVG Version: 6.00 Build 0)  -->
<svg version="1.1" id="Layer_1" xmlns="http://www.w3.org/2000/svg" xmlns:xlink="http://www.w3.org/1999/xlink" x="0px" y="0px"
	 viewBox="0 0 155.6 286" style="enable-background:new 0 0 155.6 286;" xml:space="preserve">
<style type="text/css">
	.st0{opacity:0.8;}
	.st1{fill:#304FFE;}
	.st2{fill:#1A2147;}
	.st3{opacity:0.76;fill:#3E33D1;enable-background:new    ;}
</style>
<g class="st0">
	<path class="st1" d="M1,277l136.6-82.8V1L1,83V277z"/>
	<path class="st2" d="M1,278c-0.2,0-0.3,0-0.5-0.1C0.2,277.7,0,277.4,0,277V83c0-0.4,0.2-0.7,0.5-0.9l136.6-82c0.3-0.2,0.7-0.2,1,0
		s0.5,0.5,0.5,0.9v193.2c0,0.3-0.2,0.7-0.5,0.9L1.5,277.9C1.4,278,1.2,278,1,278z M2,83.5v191.7l134.6-81.6V2.8L2,83.5z"/>
</g>
<g>
	<path class="st1" d="M18,285l136.6-82.8V9L18,91V285z"/>
	<path class="st2" d="M18,286c-0.2,0-0.3,0-0.5-0.1c-0.3-0.2-0.5-0.5-0.5-0.9V91c0-0.4,0.2-0.7,0.5-0.9l136.6-82
		c0.3-0.2,0.7-0.2,1,0s0.5,0.5,0.5,0.9v193.2c0,0.3-0.2,0.7-0.5,0.9L18.5,285.9C18.4,286,18.2,286,18,286z M19,91.5v191.7
		l134.6-81.6V10.8L19,91.5z"/>
</g>
<polygon class="st3" points="72.3,147.9 72.3,195.6 62.9,201.4 62.9,153.8 "/>
</svg>
