<svg xmlns="http://www.w3.org/2000/svg" width="132.6" height="260.9" viewBox="0 0 132.6 260.9">
    <g>
        <path class="st0" fill="#25527F" d="M97.7 130.3l-7.9 3.8v-78.1l7.9-4.8z" />
        <path class="st1" opacity=".4" fill="#25527F" d="M97.7 130.3l-7.9 3.8v-78.1l7.9-4.8z" />
        <path class="st0" fill="#25527F" d="M89.8 56l-88.8-49.5 9-5.5 87.7 50.2zM1 6.5v78.1l88.8 49.5v-78.1l-88.8-49.5z" />
        <path class="st2" d="M98.7 51.1c0-.2-.1-.3-.1-.4-.1-.1-.1-.2-.2-.2l-.1-.1h-.1l-87.7-50.3h-.1c-.1-.1-.1-.1-.2-.1h-.4c-.1 0-.1 0-.2.1h-.1l-9 5.5c-.1 0-.1.1-.2.2l-.1.1c-.2.2-.2.4-.2.6v78.1c0 .4.2.7.5.9l42.6 23.8v100.5c0 .6.4 1 1 1s1-.4 1-1v-99.4l44.2 24.6s.1 0 .1.1h.4c.1 0 .3 0 .4-.1l7.8-3.8.1-.1.2-.1s.1-.1.1-.2l.1-.2v-.30000000000000004l.2-79.2zm-9.9 81.3l-86.8-48.4v-75.8l86.8 48.4v75.8zm1-77.6l-86.8-48.4 7-4.3 85.7 49.1-5.9 3.6zm6.9 74.8l-5.8 2.8v-75.9l5.8-3.6v76.7z" fill="#1A2147" />
        <linearGradient id="sign-a" gradientUnits="userSpaceOnUse" x1="43.15" y1="234.796" x2="132.637" y2="234.796">
            <stop offset="0" stop-color="#1A2147" />
            <stop offset="1" stop-color="#353957" stop-opacity="0" />
        </linearGradient>
        <path class="st3" d="M131.6 260.9c-.2 0-.3 0-.5-.1l-87.5-50.2c-.5-.3-.6-.9-.4-1.4.3-.5.9-.6 1.4-.4l87.5 50.2c.5.3.6.9.4 1.4-.2.3-.5.5-.9.5z" opacity=".19" fill="url(#sign-a)" />
        <g fill="#203F69">
            <path class="st4" d="M12.6 67.6l-.3-14.4 4 2.2c2.3 1.3 3.3 4.2 3.4 6.7 0 2.1-.7 3.6-2.2 3.3l2.5 6.3-2.7-1.5-2.2-6-.2-.1.1 4.8-2.4-1.3zm2.1-10l.1 3.5 1.5.9c.8.4 1-.3 1-1.2 0-.9-.3-1.9-1.1-2.3l-1.5-.9zM28 72.2l-4.7-2.6c.1 1 .8 1.9 1.5 2.3.4.2.9.3 1.2-.1.3.5 1.2 1.9 1.6 2.5-.7 1-1.9.8-2.9.2-1.9-1-3.5-4-3.6-7.1s1.5-4.2 3.4-3.1c1.9 1 3.4 3.8 3.5 6.9v1zm-2.1-3c-.2-1.4-1-2-1.3-2.2-.3-.2-1.1-.4-1.3.7l2.6 1.5zM36 78.4c-.6 1.1-1.6 1.5-2.8.8-1.9-1.1-3.7-4-3.7-7.1-.2-3.1 1.5-4.2 3.4-3.1 1.3.7 2.2 2.2 2.9 4l-1.8.6c-.2-.7-.7-1.3-1.2-1.6-.7-.4-1.3.2-1.3 1.3s.7 2.4 1.4 2.8c.5.3.9.1 1.1-.3l2 2.6zM44.1 81.2l-4.7-2.6c.1 1 .8 1.9 1.5 2.3.4.2.9.3 1.2-.1.3.5 1.2 1.9 1.6 2.5-.7 1-1.9.8-2.9.2-1.9-1-3.5-4-3.6-7.1-.1-3.1 1.5-4.2 3.4-3.1 1.9 1 3.4 3.8 3.5 6.9v1zm-2.1-3c-.2-1.4-1-2-1.3-2.2-.3-.2-1.1-.4-1.3.7l2.6 1.5zM46.8 71.9c.7.4 1.3 1.6 1.4 2.6 0 1-.5 1.6-1.3 1.2-.7-.4-1.4-1.6-1.4-2.7-.1-1.1.5-1.5 1.3-1.1zm-.8 14.3l2.2 1.2-.2-9.8-2.2-1.2.2 9.8zM52.3 89.7l-3-11.3 2.4 1.3 1.5 6.3 1.2-4.8 2.4 1.3-2.6 8.2-1.9-1zM59.2 78.8c.7.4 1.3 1.6 1.4 2.6 0 1-.5 1.6-1.3 1.2-.7-.4-1.4-1.6-1.4-2.7s.6-1.5 1.3-1.1zm-.8 14.3l2.2 1.2-.2-9.8-2.2-1.2.2 9.8zM65.1 96.8l-2.2-1.2-.2-9.8 2.2 1.2v1.5c.2-1.1 1.2-1.1 1.8-.8 1.7 1 2.6 3.2 2.7 6.3l.1 5.2-2.2-1.2-.1-5.1c0-1.3-.6-2-1.1-2.3-.5-.3-1.1-.2-1.1 1l.1 5.2zM73.3 102c.2.9.8 1.7 1.5 2.1 1.1.6 1.7-.1 1.7-2.2-.3.6-1 .8-2 .3-1.6-.9-3.2-3.7-3.3-6.9-.1-3.2 1.5-4.2 3.1-3.3.7.4 1.4 1.2 1.8 2.3v-1l2.2 1.2.2 8.5c.1 4.1-1.2 5.4-3.6 4.1-1.5-.9-2.8-2.9-3.4-5l1.8-.1zm1.5-2.6c.7.4 1.3-.2 1.3-1.3s-.7-2.4-1.4-2.8c-.7-.4-1.3.2-1.3 1.3.1 1.1.7 2.4 1.4 2.8z" />
        </g>
        <path class="st4" d="M51.7 56.5l-5-8.6c-.2-.3-.5-.5-.8-.6-.4-.1-.7 0-1 .3l-3.9 3.4c-.5.4-.5 1.2-.1 1.7s1.2.5 1.7.1l1.9-1.7v9.6c0 .7.5 1.2 1.2 1.2s1.2-.5 1.2-1.2v-7.7l2.8 4.7c.2.4.6.6 1 .6.2 0 .4-.1.6-.2.6-.3.8-1 .4-1.6z" fill="#203F69" />
        <ellipse class="st2" cx="44.1" cy="209.7" rx="12.4" ry="6.4" fill="#1A2147" />
    </g>
</svg>