<?xml version="1.0" encoding="utf-8"?>
<!-- Generator: Adobe Illustrator 21.1.0, SVG Export Plug-In . SVG Version: 6.00 Build 0)  -->
<svg version="1.1" id="Layer_1" xmlns="http://www.w3.org/2000/svg" xmlns:xlink="http://www.w3.org/1999/xlink" x="0px" y="0px"
	 viewBox="0 0 550.7 367.1" style="enable-background:new 0 0 550.7 367.1;" xml:space="preserve">
<style type="text/css">
	.st0{fill:#1A2147;}
	.st1{fill:none;stroke:#1A2147;stroke-width:2;stroke-linecap:round;stroke-linejoin:round;stroke-miterlimit:10;}
	.st2{fill:#1B3657;}
</style>
<path class="st0" d="M408,334.1l135.2-82.3L138.8,24.1L1,108.2L408,334.1"/>
<path class="st0" d="M107.8,257.4c-0.6,0-1-0.4-1-1V144.1c0-0.6,0.4-1,1-1s1,0.4,1,1v112.2C108.8,256.9,108.3,257.4,107.8,257.4z"/>
<path class="st1" d="M408,334.1l135.2-82.3L138.8,24.1L1,108.2L408,334.1"/>
<path class="st2" d="M545.4,227.1L407.5,311L3.4,85.7L141.2,1.8L545.4,227.1z"/>
<path class="st1" d="M545.9,250.2"/>
<path class="st1" d="M520.5,248.1"/>
<path class="st2" d="M545.9,250.2c8.9-11.4-0.5-23.1-0.5-23.1L407.5,311c0,0,9.3,11.6,0.5,23.1L545.9,250.2L545.9,250.2z"/>
<path class="st0" d="M546.2,226.5l-0.3-0.3L141.7,0.9c-0.5-0.3-1.1-0.1-1.4,0.4c-0.3,0.5-0.1,1.1,0.4,1.4l402.7,224.5l-135.9,82.7
	L3.8,84.8c-0.5-0.3-1.1-0.1-1.4,0.4s-0.1,1.1,0.4,1.4l404,225.2c1,1.4,8.2,11.5,0.3,21.7c-0.3,0.4-0.3,0.9,0,1.3
	c0.2,0.2,0.5,0.3,0.7,0.3s0.4,0,0.5-0.1l138.1-84l0.3-0.2C555.8,238.9,546.4,226.8,546.2,226.5L546.2,226.5z M545.2,249.4L411,331
	c4.2-8.8-0.3-17-2.1-19.7l136.2-82.9C546.9,231,552.1,240.3,545.2,249.4L545.2,249.4z M3.4,85.9c-0.3,0-0.7-0.2-0.9-0.5
	c-0.3-0.5-0.1-1.1,0.3-1.4L140.7,0.1c0.5-0.3,1.1-0.1,1.4,0.3c0.3,0.5,0.1,1.1-0.3,1.4L3.9,85.8C3.7,85.9,3.5,85.9,3.4,85.9z
	 M303.9,367.1c-0.6,0-1-0.4-1-1V253.3c0-0.6,0.4-1,1-1s1,0.4,1,1v112.9C304.9,366.7,304.4,367.1,303.9,367.1z"/>
</svg>
