<?xml version="1.0" encoding="utf-8"?>
<!-- Generator: Adobe Illustrator 21.1.0, SVG Export Plug-In . SVG Version: 6.00 Build 0)  -->
<svg version="1.1" id="Layer_1" xmlns="http://www.w3.org/2000/svg" xmlns:xlink="http://www.w3.org/1999/xlink" x="0px" y="0px"
	 viewBox="0 0 1161.9 670" style="enable-background:new 0 0 1161.9 670;" xml:space="preserve">
<style type="text/css">
	.st0{opacity:0.27;}
	.st1{fill:url(#SVGID_1_);}
	.st2{opacity:0.2;}
	.st3{fill:url(#SVGID_2_);}
	.st4{opacity:0.86;}
	.st5{fill:url(#SVGID_3_);}
	.st6{fill:url(#SVGID_4_);}
	.st7{opacity:0.5;fill:#FFFFFF;enable-background:new    ;}
	.st8{fill:url(#SVGID_5_);}
	.st9{fill:url(#SVGID_6_);}
	.st10{fill:#E5D8BA;}
</style>
<g class="st0">
	
		<linearGradient id="SVGID_1_" gradientUnits="userSpaceOnUse" x1="-296.9354" y1="-2189.9011" x2="-249.2175" y2="-2189.9011" gradientTransform="matrix(-0.486 0.874 0.874 0.486 2360.2891 1637.4341)">
		<stop  offset="0" style="stop-color:#D5B865"/>
		<stop  offset="5.800000e-02" style="stop-color:#D8BC6F;stop-opacity:0.876"/>
		<stop  offset="0.154" style="stop-color:#DFC889;stop-opacity:0.668"/>
		<stop  offset="0.278" style="stop-color:#EADCB3;stop-opacity:0.402"/>
		<stop  offset="0.422" style="stop-color:#FAF6ED;stop-opacity:9.100000e-02"/>
		<stop  offset="0.465" style="stop-color:#FFFFFF;stop-opacity:0"/>
		<stop  offset="0.536" style="stop-color:#FEFDFA;stop-opacity:0.134"/>
		<stop  offset="0.626" style="stop-color:#F9F5EA;stop-opacity:0.301"/>
		<stop  offset="0.725" style="stop-color:#F2EAD1;stop-opacity:0.487"/>
		<stop  offset="0.832" style="stop-color:#E9D9AD;stop-opacity:0.686"/>
		<stop  offset="0.943" style="stop-color:#DCC47F;stop-opacity:0.893"/>
		<stop  offset="1" style="stop-color:#D5B865"/>
	</linearGradient>
	<path class="st1" d="M1161.9,634.3L30.6,7.1c-0.4-2.7-1.5-4.7-3.3-5.8c-5.3-3-14.8,4-21.2,15.5s-7.3,23.3-2,26.2
		c1.8,1,4.1,0.9,6.5-0.2L1142,670"/>
</g>
<g class="st2">
	
		<linearGradient id="SVGID_2_" gradientUnits="userSpaceOnUse" x1="-605.3256" y1="-1805.2267" x2="59.0308" y2="-2569.4807" gradientTransform="matrix(-0.486 0.874 0.874 0.486 2360.2891 1637.4341)">
		<stop  offset="0" style="stop-color:#FFFFFF;stop-opacity:0"/>
		<stop  offset="1" style="stop-color:#D5B865"/>
	</linearGradient>
	<path class="st3" d="M1161.9,634.3L30.6,7.1c-0.4-2.7-1.5-4.7-3.3-5.8c-5.3-3-14.8,4-21.2,15.5s-7.3,23.3-2,26.2
		c1.8,1,4.1,0.9,6.5-0.2L1142,670"/>
</g>
<g class="st4">
	
		<linearGradient id="SVGID_3_" gradientUnits="userSpaceOnUse" x1="-296.9354" y1="-2189.9011" x2="-249.2175" y2="-2189.9011" gradientTransform="matrix(-0.486 0.874 0.874 0.486 2360.2891 1637.4341)">
		<stop  offset="0" style="stop-color:#D5B865;stop-opacity:0.4"/>
		<stop  offset="8.800000e-02" style="stop-color:#DFC98B;stop-opacity:0.327"/>
		<stop  offset="0.217" style="stop-color:#EDE0BD;stop-opacity:0.22"/>
		<stop  offset="0.331" style="stop-color:#F7F1E1;stop-opacity:0.125"/>
		<stop  offset="0.423" style="stop-color:#FDFBF7;stop-opacity:4.900000e-02"/>
		<stop  offset="0.482" style="stop-color:#FFFFFF;stop-opacity:0"/>
		<stop  offset="0.555" style="stop-color:#FEFDFA;stop-opacity:4.200000e-02"/>
		<stop  offset="0.64" style="stop-color:#FAF6EC;stop-opacity:9.200000e-02"/>
		<stop  offset="0.731" style="stop-color:#F3EBD4;stop-opacity:0.144"/>
		<stop  offset="0.827" style="stop-color:#EADCB4;stop-opacity:0.2"/>
		<stop  offset="0.925" style="stop-color:#DFC98A;stop-opacity:0.257"/>
		<stop  offset="1" style="stop-color:#D5B865;stop-opacity:0.3"/>
	</linearGradient>
	<path class="st5" d="M1161.9,634.3L30.6,7.1c-0.4-2.7-1.5-4.7-3.3-5.8c-5.3-3-14.8,4-21.2,15.5s-7.3,23.3-2,26.2
		c1.8,1,4.1,0.9,6.5-0.2L1142,670"/>
</g>
<linearGradient id="SVGID_4_" gradientUnits="userSpaceOnUse" x1="-296.9354" y1="-2189.9011" x2="-249.2175" y2="-2189.9011" gradientTransform="matrix(-0.486 0.874 0.874 0.486 2360.2891 1637.4341)">
	<stop  offset="0" style="stop-color:#D5B865;stop-opacity:0.4"/>
	<stop  offset="8.800000e-02" style="stop-color:#DFC98B;stop-opacity:0.327"/>
	<stop  offset="0.217" style="stop-color:#EDE0BD;stop-opacity:0.22"/>
	<stop  offset="0.331" style="stop-color:#F7F1E1;stop-opacity:0.125"/>
	<stop  offset="0.423" style="stop-color:#FDFBF7;stop-opacity:4.900000e-02"/>
	<stop  offset="0.482" style="stop-color:#FFFFFF;stop-opacity:0"/>
	<stop  offset="0.555" style="stop-color:#FEFDFA;stop-opacity:4.200000e-02"/>
	<stop  offset="0.64" style="stop-color:#FAF6EC;stop-opacity:9.200000e-02"/>
	<stop  offset="0.731" style="stop-color:#F3EBD4;stop-opacity:0.144"/>
	<stop  offset="0.827" style="stop-color:#EADCB4;stop-opacity:0.2"/>
	<stop  offset="0.925" style="stop-color:#DFC98A;stop-opacity:0.257"/>
	<stop  offset="1" style="stop-color:#D5B865;stop-opacity:0.3"/>
</linearGradient>
<path class="st6" d="M1161.9,634.3L30.6,7.1c-0.4-2.7-1.5-4.7-3.3-5.8c-5.3-3-14.8,4-21.2,15.5s-7.3,23.3-2,26.2
	c1.8,1,4.1,0.9,6.5-0.2L1142,670"/>
<path class="st7" d="M104.4,89.3c-0.4,0-0.8-0.1-1.2-0.3L70.5,70.8c-1.2-0.7-1.6-2.2-1-3.3c0.7-1.2,2.2-1.6,3.3-1l32.8,18.2
	c1.2,0.7,1.6,2.2,1,3.3C106.1,88.9,105.3,89.3,104.4,89.3z M63.6,66.6c-0.4,0-0.8-0.1-1.2-0.3l-12.9-7.2c-1.2-0.7-1.6-2.2-1-3.3
	c0.7-1.2,2.2-1.6,3.3-1l13,7.2c1.2,0.7,1.6,2.2,1,3.3C65.3,66.2,64.5,66.6,63.6,66.6z"/>
<g>
	<path class="st7" d="M461.8,288c-0.4,0-0.8-0.1-1.2-0.3l-32.8-18.2c-1.2-0.7-1.6-2.2-1-3.3c0.7-1.2,2.2-1.6,3.3-1l32.8,18.2
		c1.2,0.7,1.6,2.2,1,3.3C463.6,287.5,462.7,288,461.8,288L461.8,288z M421,265.3c-0.4,0-0.8-0.1-1.2-0.3l-12.9-7.2
		c-1.2-0.7-1.6-2.2-1-3.3s2.2-1.6,3.3-1l12.9,7.2c1.2,0.7,1.6,2.2,1,3.3C422.7,264.8,421.9,265.3,421,265.3L421,265.3z"/>
</g>
<g class="st0">
	
		<linearGradient id="SVGID_5_" gradientUnits="userSpaceOnUse" x1="-296.9354" y1="-2189.9011" x2="-249.2175" y2="-2189.9011" gradientTransform="matrix(-0.486 0.874 0.874 0.486 2360.2891 1637.4341)">
		<stop  offset="0" style="stop-color:#D5B865"/>
		<stop  offset="5.800000e-02" style="stop-color:#D8BC6F;stop-opacity:0.876"/>
		<stop  offset="0.154" style="stop-color:#DFC889;stop-opacity:0.668"/>
		<stop  offset="0.278" style="stop-color:#EADCB3;stop-opacity:0.402"/>
		<stop  offset="0.422" style="stop-color:#FAF6ED;stop-opacity:9.100000e-02"/>
		<stop  offset="0.465" style="stop-color:#FFFFFF;stop-opacity:0"/>
		<stop  offset="0.536" style="stop-color:#FEFDFA;stop-opacity:0.134"/>
		<stop  offset="0.626" style="stop-color:#F9F5EA;stop-opacity:0.301"/>
		<stop  offset="0.725" style="stop-color:#F2EAD1;stop-opacity:0.487"/>
		<stop  offset="0.832" style="stop-color:#E9D9AD;stop-opacity:0.686"/>
		<stop  offset="0.943" style="stop-color:#DCC47F;stop-opacity:0.893"/>
		<stop  offset="1" style="stop-color:#D5B865"/>
	</linearGradient>
	<path class="st8" d="M1161.9,634.3L30.6,7.1c-0.4-2.7-1.5-4.7-3.3-5.8c-5.3-3-14.8,4-21.2,15.5s-7.3,23.3-2,26.2
		c1.8,1,4.1,0.9,6.5-0.2L1142,670"/>
</g>
<g class="st2">
	
		<linearGradient id="SVGID_6_" gradientUnits="userSpaceOnUse" x1="-605.3256" y1="-1805.2267" x2="59.0308" y2="-2569.4807" gradientTransform="matrix(-0.486 0.874 0.874 0.486 2360.2891 1637.4341)">
		<stop  offset="0" style="stop-color:#FFFFFF;stop-opacity:0"/>
		<stop  offset="1" style="stop-color:#D5B865"/>
	</linearGradient>
	<path class="st9" d="M1161.9,634.3L30.6,7.1c-0.4-2.7-1.5-4.7-3.3-5.8c-5.3-3-14.8,4-21.2,15.5s-7.3,23.3-2,26.2
		c1.8,1,4.1,0.9,6.5-0.2L1142,670"/>
</g>
<path class="st10" d="M1161.3,633.2L31.2,6.7c-0.5-2.8-1.7-4.9-3.6-5.9C24.8-0.8,21,0,16.7,3.1c-4.1,3-8.1,7.7-11.2,13.4
	c-6.7,12-7.4,23.9-1.7,27.1c1.8,1,4.2,1,6.8,0l1130.2,626.6c0.1,0.1,0.2,0.1,0.3,0.1c0.2,0,0.4-0.1,0.5-0.3c0.2-0.3,0.1-0.7-0.2-0.8
	L11.3,42.5c-0.1-0.1-0.1-0.2-0.3-0.3c-2-1.1-2.9-3.9-2.6-7.9c0.3-4.2,1.9-9,4.5-13.7s5.9-8.6,9.3-11.1c3.2-2.4,6.1-3,8.1-1.9
	l1130.4,626.7c0.3,0.2,0.7,0.1,0.8-0.2C1161.7,633.7,1161.6,633.4,1161.3,633.2L1161.3,633.2z M21.5,8.5c-3.5,2.6-6.9,6.6-9.6,11.5
	c-2.7,4.8-4.4,9.9-4.7,14.2C7,38.1,7.8,41,9.6,42.6c-2,0.7-3.8,0.6-5.1-0.1c-5-2.8-4-14.2,2.2-25.4c3.1-5.5,6.9-10.1,10.9-13
	c3.8-2.8,7.2-3.6,9.5-2.3C28.5,2.6,29.4,4,29.9,6C27.5,5.4,24.6,6.3,21.5,8.5z"/>
<path class="st7" d="M104.4,89.3c-0.4,0-0.8-0.1-1.2-0.3L70.5,70.8c-1.2-0.7-1.6-2.2-1-3.3c0.7-1.2,2.2-1.6,3.3-1l32.8,18.2
	c1.2,0.7,1.6,2.2,1,3.3C106.1,88.9,105.3,89.3,104.4,89.3z M63.6,66.6c-0.4,0-0.8-0.1-1.2-0.3l-12.9-7.2c-1.2-0.7-1.6-2.2-1-3.3
	c0.7-1.2,2.2-1.6,3.3-1l13,7.2c1.2,0.7,1.6,2.2,1,3.3C65.3,66.2,64.5,66.6,63.6,66.6z"/>
<g>
	<path class="st7" d="M461.8,288c-0.4,0-0.8-0.1-1.2-0.3l-32.8-18.2c-1.2-0.7-1.6-2.2-1-3.3c0.7-1.2,2.2-1.6,3.3-1l32.8,18.2
		c1.2,0.7,1.6,2.2,1,3.3C463.6,287.5,462.7,288,461.8,288L461.8,288z M421,265.3c-0.4,0-0.8-0.1-1.2-0.3l-12.9-7.2
		c-1.2-0.7-1.6-2.2-1-3.3s2.2-1.6,3.3-1l12.9,7.2c1.2,0.7,1.6,2.2,1,3.3C422.7,264.8,421.9,265.3,421,265.3L421,265.3z"/>
</g>
</svg>
