<svg xmlns="http://www.w3.org/2000/svg" width="31.4" height="169.8" viewBox="0 0 31.4 169.8">
    <g>
        <linearGradient id="platform-stand-a" gradientUnits="userSpaceOnUse" x1="-2.384" y1="83.573" x2="34.422" y2="85.502">
            <stop offset=".289" stop-color="#1A2147" />
            <stop offset=".451" stop-color="#1A264B" />
            <stop offset="1" stop-color="#1B3657" />
        </linearGradient>
        <path class="st0" d="M1 162.4v-143.4l29.4-18v161.7-.3c0 3.5-6.6 6.3-14.7 6.3s-14.7-2.8-14.7-6.3" fill="url(#platform-stand-a)" />
        <path class="st1" d="M15.7 169.8c-8.9 0-15.7-3.2-15.7-7.3v-143.5c0-.3.2-.7.5-.9l29.4-18c.3-.2.7-.2 1 0 .3.2.5.5.5.9v162c-.6 3.9-7.2 6.8-15.7 6.8zm-13.7-150.2v142.9c0 2.5 5.6 5.3 13.7 5.3s13.7-2.8 13.7-5.3v-159.7l-27.4 16.8z" fill="#1A2147" />
    </g>
</svg>