<?xml version="1.0" encoding="utf-8"?>
<!-- Generator: Adobe Illustrator 21.1.0, SVG Export Plug-In . SVG Version: 6.00 Build 0)  -->
<svg version="1.1" id="Layer_2" xmlns="http://www.w3.org/2000/svg" xmlns:xlink="http://www.w3.org/1999/xlink" x="0px" y="0px"
	 viewBox="0 0 1134.4 694.1" style="enable-background:new 0 0 1134.4 694.1;" xml:space="preserve">
<style type="text/css">
	.st0{fill:#1A2147;}
	.st1{fill:#1B3657;}
</style>
<polygon class="st0" points="995.3,660.6 995.8,639.3 1110.6,569 116.7,12.8 0,84.9 0,106.2 "/>
<polygon class="st1" points="995.5,640.2 -0.9,84.4 137.8,-0.4 1133.4,556.3 "/>
<path class="st0" d="M1134.3,556.7c0-0.1,0.1-0.1,0.1-0.2c0-0.1,0-0.1,0-0.2c0-0.1,0-0.1,0-0.2c0-0.1,0-0.1-0.1-0.2v-0.1l0,0
	c0-0.1-0.1-0.1-0.1-0.1l-0.1-0.1l0,0L997,479.1l0,0L139.4-0.9c-0.3-0.2-0.7-0.1-1,0c-0.3-0.2-0.7-0.2-1,0l-137.9,84
	C-1,83.4-1.1,84-0.9,84.4c0.2,0.3,0.5,0.5,0.9,0.5L994.8,641c0.1,0,0.1,0,0.2,0.1c0.1,0.1,0.3,0.1,0.5,0.1s0.4,0,0.5-0.1l137.9-83.9
	l0,0c0.1-0.1,0.2-0.1,0.2-0.2c0,0,0-0.1,0.1-0.1c0,0,0,0,0-0.1C1134.2,556.8,1134.2,556.7,1134.3,556.7z M138.4,0.9l857.4,479.8l0,0
	l135.5,75.7l-135.9,82.7L2.1,83.8L138.4,0.9z"/>
<path class="st0" d="M891.8,695.1c-0.6,0-1-0.4-1-1V582.2c0-0.6,0.4-1,1-1s1,0.4,1,1v111.9C892.8,694.7,892.3,695.1,891.8,695.1z"/>
<path class="st0" d="M697.2,586.8c-0.6,0-1-0.4-1-1V474.3c0-0.6,0.4-1,1-1s1,0.4,1,1v111.5C698.2,586.4,697.7,586.8,697.2,586.8z"/>
<path class="st0" d="M498.3,475.2c-0.6,0-1-0.4-1-1V362.7c0-0.6,0.4-1,1-1s1,0.4,1,1v111.5C499.3,474.8,498.9,475.2,498.3,475.2z"/>
<path class="st0" d="M296.3,362.1c-0.6,0-1-0.4-1-1V249.5c0-0.6,0.4-1,1-1s1,0.4,1,1V361C297.3,361.6,296.8,362.1,296.3,362.1z"/>
<path class="st0" d="M97.4,250.5c-0.6,0-1-0.4-1-1V137.9c0-0.6,0.4-1,1-1s1,0.4,1,1v111.5C98.4,250,98,250.5,97.4,250.5z"/>
</svg>
