<?xml version="1.0" encoding="utf-8"?>
<!-- Generator: Adobe Illustrator 21.1.0, SVG Export Plug-In . SVG Version: 6.00 Build 0)  -->
<svg version="1.1" id="Layer_1" xmlns="http://www.w3.org/2000/svg" xmlns:xlink="http://www.w3.org/1999/xlink" x="0px" y="0px"
	 viewBox="0 0 89.8 107.8" style="enable-background:new 0 0 89.8 107.8;" xml:space="preserve">
<style type="text/css">
	.st0{fill:#17304F;}
	.st1{opacity:0.15;fill:#003A75;enable-background:new    ;}
	.st2{fill:#99772C;}
	.st3{fill:#D5B865;}
	.st4{fill:none;stroke:#EFE4C4;stroke-width:2;stroke-miterlimit:10;}
	.st5{opacity:0.6;}
	.st6{fill:#AF8D37;}
	.st7{opacity:0.45;}
	.st8{opacity:0.8;}
</style>
<g>
	<path class="st0" d="M63.7,87.1c13.5,4.6,12.4,12.3-2.6,17S23,109,9.4,104.4C-4.1,99.8-3,92.1,12,87.4S50.2,82.4,63.7,87.1z"/>
	<g>
		<path class="st1" d="M63.7,87.1c13.5,4.6,12.4,12.3-2.6,17S23,109,9.5,104.4s-12.4-12.3,2.6-17S50.2,82.5,63.7,87.1z"/>
	</g>
</g>
<g>
	<g>
		<path class="st2" d="M89.7,60c-1.1,25.4-18.1,40.4-38,33.6S16.5,60.6,17.6,35.2c1.1-25.4,18.1-40.4,38-33.6S90.8,34.6,89.7,60z"/>
	</g>
	<g>
		<path class="st3" d="M83.1,61.3c-1.1,25.4-18.1,40.4-38,33.6S9.9,61.9,11,36.6S29.1-3.8,49.1,3S84.2,36,83.1,61.3z"/>
	</g>
	<g>
		<path class="st4" d="M78.8,59.8c-1,22.3-15.9,35.5-33.5,29.5c-17.5-6-30.9-29-30-51.3S31.3,2.5,48.8,8.5S79.8,37.5,78.8,59.8z"/>
	</g>
	<g class="st5">
		<g>
			<path class="st6" d="M46,39.5l-9.4,2.8l10,13l9.3-4.8L46,39.5z"/>
		</g>
	</g>
	<g class="st7">
		<g>
			<path class="st6" d="M36.6,42.3l10,13l-1.4-34L36.6,42.3z"/>
		</g>
	</g>
	<g class="st8">
		<g>
			<path class="st6" d="M45.3,21.3l1.4,34l9.3-4.8L45.3,21.3z"/>
		</g>
	</g>
	<g class="st7">
		<g>
			<path class="st6" d="M36.7,45.2l10.5,25.3l-0.5-12.3L36.7,45.2z"/>
		</g>
	</g>
	<g class="st8">
		<g>
			<path class="st6" d="M46.8,58.2l0.5,12.3l8.8-17.2L46.8,58.2z"/>
		</g>
	</g>
	<g class="st5">
		<g>
			<path class="st6" d="M46,39.5l-9.4,2.8l10,13l9.3-4.8L46,39.5z"/>
		</g>
	</g>
	<g class="st7">
		<g>
			<path class="st6" d="M36.6,42.3l10,13l-1.4-34L36.6,42.3z"/>
		</g>
	</g>
	<g class="st7">
		<g>
			<path class="st6" d="M36.7,45.2l10.5,25.3l-0.5-12.3L36.7,45.2z"/>
		</g>
	</g>
	<g class="st8">
		<g>
			<path class="st6" d="M46.8,58.2l0.5,12.3l8.8-17.2L46.8,58.2z"/>
		</g>
	</g>
</g>
</svg>
