<?xml version="1.0" encoding="utf-8"?>
<!-- Generator: Adobe Illustrator 21.1.0, SVG Export Plug-In . SVG Version: 6.00 Build 0)  -->
<svg version="1.1" id="Layer_1" xmlns="http://www.w3.org/2000/svg" xmlns:xlink="http://www.w3.org/1999/xlink" x="0px" y="0px"
	 viewBox="0 0 89.8 107.8" style="enable-background:new 0 0 89.8 107.8;" xml:space="preserve">
<style type="text/css">
	.st0{fill:#17304F;}
	.st1{opacity:0.15;fill:#003A75;enable-background:new    ;}
	.st2{fill:#99772C;}
	.st3{fill:#D5B865;}
	.st4{fill:#EFE4C4;}
	.st5{fill:#BD9F55;}
</style>
<g>
	<path class="st0" d="M63.7,87.1c13.5,4.6,12.4,12.3-2.6,17S23,109,9.4,104.4C-4.1,99.8-3,92.1,12,87.4S50.2,82.4,63.7,87.1z"/>
	<g>
		<path class="st1" d="M63.7,87.1c13.5,4.6,12.4,12.3-2.6,17S23,109,9.5,104.4s-12.4-12.3,2.6-17S50.2,82.5,63.7,87.1z"/>
	</g>
</g>
<g>
	<g>
		<path class="st2" d="M89.7,60c-1.1,25.4-18.1,40.4-38,33.6S16.5,60.6,17.6,35.2s18.1-40.4,38-33.6S90.8,34.6,89.7,60z"/>
	</g>
	<g>
		<path class="st3" d="M83.2,61.3c-1.1,25.4-18.1,40.4-38,33.6S10,61.9,11,36.6S29.2-3.8,49.1,3S84.3,36,83.2,61.3z"/>
	</g>
	<g>
		<path class="st4" d="M53.7,91.8c-2.8,0-5.7-0.5-8.6-1.5C27.2,84.2,13.4,60.7,14.4,38c0.5-12.4,5.4-22.6,13.3-28
			C33.8,5.8,41.5,5,49.2,7.6C67,13.7,80.8,37.2,79.8,59.9c-0.5,12.4-5.4,22.6-13.3,28C62.7,90.5,58.3,91.8,53.7,91.8z M40.5,8.1
			c-4.2,0-8.3,1.2-11.8,3.6c-7.4,5-11.9,14.6-12.4,26.4C15.4,60,28.6,82.5,45.7,88.4c7.1,2.4,14.1,1.6,19.7-2.2
			c7.4-5,11.9-14.6,12.4-26.4l0,0c0.9-21.9-12.2-44.4-29.3-50.3C45.8,8.6,43.1,8.1,40.5,8.1z"/>
	</g>
</g>
<path class="st5" d="M60.4,72c0,0-0.1,0-0.1,0c-0.5-0.1-0.8-0.5-0.7-1l3.7-26l-12.5-6.3c-0.2-0.1-0.3-0.2-0.4-0.3l-3.1-5.5l-9.5-4.8
	l0.1,2.4c0,0.5-0.3,0.9-0.8,0.9c-0.5,0-0.9-0.3-0.9-0.8l-0.1-3.8c0-0.3,0.1-0.6,0.4-0.8c0.3-0.2,0.6-0.2,0.8,0l11,5.6
	c0.2,0.1,0.3,0.2,0.4,0.3l3.1,5.5l12.8,6.5c0.3,0.2,0.5,0.5,0.5,0.9l-3.8,26.6C61.2,71.7,60.9,72,60.4,72z"/>
<path class="st5" d="M60.4,72c-0.1,0-0.3,0-0.4-0.1L31.8,57.7c-0.3-0.1-0.5-0.4-0.5-0.7l-1.1-29.4c0-0.3,0.1-0.6,0.4-0.8
	s0.6-0.2,0.8,0l11.1,5.6c0.2,0.1,0.3,0.2,0.4,0.3l3.1,5.5l13.9,7c0.3,0.1,0.5,0.4,0.5,0.7l1,25.2c0,0.3-0.1,0.6-0.4,0.8
	C60.8,72,60.6,72,60.4,72z M33.1,56.4l26.5,13.4l-0.9-23.3L45,39.6c-0.2-0.1-0.3-0.2-0.4-0.3l-3.1-5.5L32,28.9L33.1,56.4z"/>
</svg>
