<svg xmlns="http://www.w3.org/2000/svg" width="475.6" height="579" viewBox="0 0 475.6 579">
    <path class="st0" d="M256.8 579c-.2 0-.3 0-.5-.1l-255.8-142.8c-.5-.3-.7-.9-.4-1.4.3-.5.9-.7 1.4-.4l255.8 142.8c.5.3.7.9.4 1.4-.2.3-.5.5-.9.5zM256.8 579c-.2 0-.3 0-.5-.1l-255.8-142.8c-.5-.3-.7-.9-.4-1.4.3-.5.9-.7 1.4-.4l255.8 142.8c.5.3.7.9.4 1.4-.2.3-.5.5-.9.5z" fill="#1A2147" />
    <path class="st1" fill="#1B3657" d="M256.8 509.7l-255.8-143.1v68.6l255.8 142.8" />
    <linearGradient id="a" gradientUnits="userSpaceOnUse" x1="418.863" y1="437.034" x2="487.323" y2="412.116">
        <stop offset=".014" stop-color="#03174D" />
        <stop offset=".113" stop-color="#061B4E" />
        <stop offset=".639" stop-color="#162F55" />
        <stop offset="1" stop-color="#1B3657" />
    </linearGradient>
    <path class="st2" fill="url(#a)" d="M474.6 446l-43 26v-68.8l43-26z" />
    <linearGradient id="b" gradientUnits="userSpaceOnUse" x1="344.208" y1="403.172" x2="344.208" y2="577.982">
        <stop offset=".014" stop-color="#03174D" />
        <stop offset=".035" stop-color="#03174D" />
        <stop offset=".289" stop-color="#03174D" />
        <stop offset=".501" stop-color="#102853" />
        <stop offset=".729" stop-color="#183356" />
        <stop offset="1" stop-color="#1B3657" />
    </linearGradient>
    <path class="st3" fill="url(#b)" d="M431.6 403.2v68.8l-174.8 106v-68.3" />
    <path class="st4" fill="#274187" d="M35.9 342.8l-18 10.5v-214.8l122.8-69.3 33 19.3-137.8 76z" />
    <path class="st1" fill="#1B3657" d="M434.2 401.6l-2.6 1.6v-47.8l43 21.8z" />
    <path class="st4" fill="#274187" d="M237.6 475.4l-219.7-122.1 18-10.5 201.7 112.4z" />
    <linearGradient id="c" gradientUnits="userSpaceOnUse" x1="1" y1="308.534" x2="256.829" y2="308.534">
        <stop offset="0" stop-color="#254770" />
        <stop offset="1" stop-color="#25527F" />
    </linearGradient>
    <path class="st5" d="M1 107.4v259.2l255.8 143.1v-259.7l-255.8-142.6zm16.9 245.9v-214.8l219.7 122.8v214.1l-219.7-122.1z" fill="url(#c)" />
    <path class="st1" fill="#1B3657" d="M431.6 143.6l-255.8-142.4-174.8 106.2 255.8 142.6z" />
    <linearGradient id="d" gradientUnits="userSpaceOnUse" x1="256.829" y1="326.652" x2="431.587" y2="326.652">
        <stop offset="0" stop-color="#133E71" />
        <stop offset="1" stop-color="#25527F" />
    </linearGradient>
    <path class="st6" d="M256.8 250v259.7l174.8-106.5v-259.6l-174.8 106.4zm157.3 142.8l-137.9 83.9v-180.1l137.9-83.5v179.7z" fill="url(#d)" />
    <path class="st0" d="M237.6 456.2c-.2 0-.3 0-.5-.1l-201.7-112.5c-.5-.3-.7-.9-.4-1.4.3-.5.9-.7 1.4-.4l201.7 112.5c.5.3.7.9.4 1.4-.2.3-.6.5-.9.5zM275.2 550v-34.4l58.2-35.3v34.4l-58.2 35.3zm2-33.3v29.8l54.2-32.9v-29.8l-54.2 32.9zM17.9 354.3c-.3 0-.7-.2-.9-.5-.3-.5-.1-1.1.4-1.4l18-10.5c.5-.3 1.1-.1 1.4.4.3.5.1 1.1-.4 1.4l-18 10.5-.5.1zM276.2 477.8c-.6 0-1-.4-1-1v-180.2c0-.3.2-.7.5-.9l137.9-83.9c.3-.2.7-.2 1 0 .3.2.5.5.5.9v180.1c0 .6-.4 1-1 1s-1-.4-1-1v-178.3l-135.9 82.7v179.6c0 .5-.4 1-1 1zM475.1 376.3l-32-16.2v-141.6c0-.4-.2-.7-.6-.9-.4-.2-.8-.1-1.1.2l-8.8 7.8v-81.9c0-.4-.2-.7-.5-.9l-255.9-142.5-.5-.3-175.2 106.5c-.3.2-.5.5-.5.9v327.8c0 .4.2.7.5.9l255.8 142.8c.1 0 .1 0 .2.1l.3.1h.30000000000000004c.1 0 .1 0 .2-.1l174.8-106 43-26c.3-.2.5-.5.5-.9v-68.8c0-.5-.2-.8-.5-1zm-412.8 26.7v65.3l-60.3-33.7v-66.4l60.7 34c-.2.2-.4.5-.4.8zm193.5 173.3l-191.5-106.9v-66.3l191.5 107.1v66.1zm0-68.3l-253.8-142v-256.9l253.8 141.5v257.4zm1-259.2l-253.8-141.5 172.8-105 253.8 141.3-172.8 105.2zm173.8 222.6l-172.8 104.8v-66l172.8-105.2v66.4zm0-68.8l-172.8 105.3v-257.3l172.8-105.2v257.2zm2-174.4l8.5-7.5v138.3l-8.5-4.3v-126.5zm0 128.8l8.5 4.3v11.5l-4.1 2.5c-.3.2-.5.5-.5.9v12.2c0 .6.4 1 1 1s1-.4 1-1v-11.7l7.2-4.3v10.5c0 .6.4 1 1 1s1-.4 1-1v-12.2c0-.4-.2-.7-.5-.9-.3-.2-.7-.2-1 0l-3.1 1.9v-9.2l29.5 14.9-40 24.2v-44.6zm41 88.4l-41 24.8v-66.5l41-24.8v66.5z" fill="#1A2147" />
    <g class="st7" opacity=".3" fill="#003A75">
        <path class="st8" d="M15.7 366.9l-.2-7.7 3.3 1.9v1.6l-2.1-1.2v1.5l1.8 1.1v1.6l-1.8-1.1v1.4l2.2 1.2v1.6l-3.2-1.9zM24.9 364.6l1.1.6.8 8.1-1.3-.7-.4-4.3-1 2.7-.9-.5-1.1-3.9-.2 4-1.3-.7.5-7.4 1 .6 1.5 5.5 1.3-4zM31.3 371.8c.7.6 1 1.7 1 2.4 0 1.1-.4 2-1.7 1.3l-2.3-1.3-.2-7.7 2.1 1.2c1 .6 1.6 1.7 1.6 3 .2.4.1 1.1-.5 1.1zm-1-1.3c.3.1.4 0 .4-.4s-.1-.8-.4-.9l-.7-.4v1.3l.7.4zm-.7 1.2v1.6l.8.5c.4.2.6-.1.6-.5s-.2-.9-.6-1.1l-.8-.5zM34 377.4l-.2-7.7 1.3.7.1 6.1 1.9 1.1v1.6l-3.1-1.8zM38.6 380l-.2-7.7 3.3 1.9v1.6l-2.1-1.2v1.5l1.8 1.1v1.6l-1.8-1.1v1.4l2.2 1.2v1.6l-3.2-1.9zM47.8 377.7l1.1.6.8 8.1-1.3-.7-.4-4.3-1 2.7-.9-.5-1.1-3.9-.2 4-1.3-.7.5-7.4 1 .6 1.5 5.5 1.3-4zM54 387.1l-1.6-.9-.4 1.5-1.3-.8 1.7-6.6 1.4.8 2.1 8.8-1.3-.8-.6-2zm-1.3-2.3l1 .6-.6-2.8-.4 2.2zM56.1 384.1v-1.6l3.9 2.3v1.6l-1.3-.8.1 6.1-1.3-.7-.1-6.1-1.3-.8zM61.5 385.6l1.3.7.2 7.7-1.3-.7-.2-7.7zM69.4 396.1c-.4.8-1.2 1-2.2.5-1.5-.8-2.7-3.3-2.7-5.5s1.1-3.3 2.5-2.5c.9.5 1.7 1.7 2.2 3 .1 0-1 .5-1 .5-.3-.7-.7-1.4-1.2-1.6-.8-.4-1.3.1-1.3 1.3s.6 2.4 1.4 2.9c.5.3.9.1 1.1-.3l1.2 1.7zM76.7 401.9l-3.5-2v-1l2-2.4c.1-.1.2-.3.2-.5 0-.3-.1-.7-.5-.9-.4-.2-.6.1-.6.6l-1.1-.9c.1-1.4.7-2 1.7-1.4.9.5 1.6 1.9 1.7 3.2 0 .7-.2 1.2-.5 1.5l-1 1.1 1.6.9v1.8zM80 396.4c1.4.8 1.9 2.7 1.9 4.9 0 2.1-.3 3.5-1.8 2.7-1.4-.8-1.9-2.7-1.9-4.8-.1-2.2.3-3.6 1.8-2.8zm.1 5.9c.5.3.6-.6.6-1.7s-.2-2.2-.7-2.4c-.5-.3-.6.5-.6 1.7 0 1.1.2 2.1.7 2.4zM85.2 399.5c1.4.8 1.9 2.7 1.9 4.9 0 2.1-.3 3.5-1.8 2.7-1.4-.8-1.9-2.7-1.9-4.8 0-2.2.4-3.7 1.8-2.8zm.2 5.8c.5.3.6-.6.6-1.7s-.2-2.2-.7-2.4c-.5-.3-.6.5-.6 1.7 0 1.1.2 2.1.7 2.4zM90.5 402.5c1.4.8 1.9 2.7 1.9 4.9 0 2.1-.3 3.5-1.8 2.7-1.4-.8-1.9-2.7-1.9-4.8 0-2.2.4-3.6 1.8-2.8zm.1 5.8c.5.3.6-.6.6-1.7s-.2-2.2-.7-2.4c-.5-.3-.6.5-.6 1.7.1 1.1.3 2.2.7 2.4z" />
    </g>
    <path class="st0" d="M238.6 477l-221.7-123.1v-217.1l221.7 123.9v216.3zm-219.7-124.3l217.7 121v-211.8l-217.7-121.7v212.5zM276.2 477.8c-.3 0-.7-.2-.9-.5-.3-.5-.1-1.1.3-1.4l138-83.9c.5-.3 1.1-.1 1.4.3.3.5.1 1.1-.3 1.4l-137.9 83.9c-.2.1-.4.2-.6.2z" fill="#1A2147" />
    <g>
        <radialGradient id="e" cx="127.728" cy="306.918" r="142.197" gradientUnits="userSpaceOnUse">
            <stop offset="0" stop-color="#fff" stop-opacity="0" />
            <stop offset=".153" stop-color="#C5C8DE" stop-opacity=".153" />
            <stop offset=".311" stop-color="#9296C1" stop-opacity=".311" />
            <stop offset=".466" stop-color="#676DA9" stop-opacity=".466" />
            <stop offset=".616" stop-color="#454D96" stop-opacity=".616" />
            <stop offset=".757" stop-color="#2D3689" stop-opacity=".757" />
            <stop offset=".889" stop-color="#1F2881" stop-opacity=".889" />
            <stop offset="1" stop-color="#1A237E" />
        </radialGradient>
        <path class="st9" opacity=".42" fill="url(#e)" d="M237.6 475.4l-219.7-122.1v-214.8l219.7 122.7z" />
        <linearGradient id="f" gradientUnits="userSpaceOnUse" x1="17.861" y1="306.918" x2="237.594" y2="306.918">
            <stop offset="0" stop-color="#fff" stop-opacity="0" />
            <stop offset=".153" stop-color="#C5C8DE" stop-opacity=".153" />
            <stop offset=".311" stop-color="#9296C1" stop-opacity=".311" />
            <stop offset=".466" stop-color="#676DA9" stop-opacity=".466" />
            <stop offset=".616" stop-color="#454D96" stop-opacity=".616" />
            <stop offset=".757" stop-color="#2D3689" stop-opacity=".757" />
            <stop offset=".889" stop-color="#1F2881" stop-opacity=".889" />
            <stop offset="1" stop-color="#1A237E" />
        </linearGradient>
        <path class="st10" opacity=".42" fill="url(#f)" d="M237.6 475.4l-219.7-122.1v-214.8l219.7 122.7z" />
        <path class="st11" opacity=".26" fill="#1B3657" d="M237.6 475.4l-219.7-122.1v-214.8l219.7 122.7z" />
    </g>
    <g fill="#1A2147">
        <path class="st0" d="M39.8 402c-.2 0-.3 0-.5-.1l-28-15.9c-.5-.3-.6-.9-.4-1.4s.9-.6 1.4-.4l28 15.9c.5.3.6.9.4 1.4-.2.3-.6.5-.9.5zM23.9 436.5c-.2 0-.3 0-.5-.1l-12.1-6.9c-.5-.3-.6-.9-.4-1.4s.9-.6 1.4-.4l12.1 6.9c.5.3.6.9.4 1.4-.2.3-.6.5-.9.5zM52.6 409.3c-.2 0-.3 0-.5-.1l-6.6-3.8c-.5-.3-.6-.9-.4-1.4.3-.5.9-.6 1.4-.4l6.6 3.8c.5.3.6.9.4 1.4-.2.3-.5.5-.9.5zM32.2 406.5c-.2 0-.3 0-.5-.1l-20.4-11.6c-.5-.3-.6-.9-.4-1.4s.9-.6 1.4-.4l20.4 11.6c.5.3.6.9.4 1.4-.2.4-.6.5-.9.5zM44.8 413.7c-.2 0-.3 0-.5-.1l-7.1-4c-.5-.3-.6-.9-.4-1.4s.9-.6 1.4-.4l7.1 4c.5.3.6.9.4 1.4-.2.3-.6.5-.9.5zM32.2 433c-.2 0-.3 0-.5-.1l-20.4-11.6c-.5-.3-.6-.9-.4-1.4.3-.5.9-.6 1.4-.4l20.4 11.6c.5.3.6.9.4 1.4-.2.3-.6.5-.9.5zM44.8 440.1c-.2 0-.3 0-.5-.1l-7.1-4c-.5-.3-.6-.9-.4-1.4s.9-.6 1.4-.4l7.1 4c.5.3.6.9.4 1.4-.2.3-.6.5-.9.5zM53.9 427.8c-.2 0-.3 0-.5-.1l-42.1-23.9c-.5-.3-.6-.9-.4-1.4.3-.5.9-.6 1.4-.4l42.1 23.9c.5.3.6.9.4 1.4-.2.3-.6.5-.9.5zM32.2 424.3c-.2 0-.3 0-.5-.1l-20.4-11.6c-.5-.3-.6-.9-.4-1.4s.9-.6 1.4-.4l20.4 11.6c.5.3.6.9.4 1.4-.2.3-.6.5-.9.5z" />
    </g>
</svg>