<svg xmlns="http://www.w3.org/2000/svg" xmlns:xlink="http://www.w3.org/1999/xlink" width="2223.7" height="1093" viewBox="0 0 2223.7 1093"><style type="text/css">.st0{fill:#353958;} .st1{fill:#1A2147;} .st2{opacity:0.19;fill:#1A2147;} .st3{fill:#1B3657;} .st4{fill:url(#SVGID_1_);} .st5{fill:url(#SVGID_2_);} .st6{fill:#173050;} .st7{fill:#99772C;} .st8{fill:#D5B865;} .st9{fill:#EFE4C4;} .st10{opacity:0.6;} .st11{fill:#AF8D37;} .st12{opacity:0.45;} .st13{opacity:0.8;} .st14{fill:#2644A3;} .st15{opacity:0.3;fill:#003A75;} .st16{opacity:0.25;fill:#003A75;} .st17{clip-path:url(#SVGID_4_);} .st18{opacity:0.15;fill:#003A75;} .st19{opacity:0.5;fill:#D5B865;} .st20{opacity:0.76;fill:#304FFE;} .st21{fill:url(#SVGID_5_);} .st22{fill:url(#SVGID_6_);} .st23{fill:none;stroke:#1A2147;stroke-width:2.75;stroke-miterlimit:10;} .st24{fill:#112648;} .st25{fill:#103361;} .st26{fill:none;stroke:#D5B865;stroke-width:1.5;stroke-linecap:round;stroke-linejoin:round;stroke-miterlimit:10;} .st27{opacity:0.38;fill:#003A75;} .st28{opacity:0.57;fill:#D5B865;} .st29{fill:#E8CE8B;} .st30{opacity:0.35;clip-path:url(#SVGID_8_);fill:#FFFFFF;} .st31{opacity:0.74;fill:url(#SVGID_9_);} .st32{clip-path:url(#SVGID_11_);} .st33{opacity:0.42;fill:url(#SVGID_12_);} .st34{opacity:0.42;fill:url(#SVGID_13_);} .st35{opacity:0.1;fill:#1A2147;} .st36{opacity:0.3;} .st37{fill:#003A75;} .st38{fill:#C39E46;} .st39{fill:#9B7924;} .st40{opacity:0.59;} .st41{opacity:0.35;clip-path:url(#SVGID_15_);fill:#FFFFFF;} .st42{fill:#AD8C44;} .st43{opacity:0.26;fill:#1B3657;} .st44{fill:none;stroke:#1A2147;stroke-width:2.75;stroke-linecap:round;stroke-linejoin:round;stroke-miterlimit:10;} .st45{opacity:0.27;} .st46{fill:url(#SVGID_16_);} .st47{opacity:0.2;} .st48{fill:url(#SVGID_17_);} .st49{opacity:0.86;} .st50{fill:url(#SVGID_18_);} .st51{fill:#E5D8BA;} .st52{opacity:0.88;} .st53{opacity:0.5;fill:#FFFFFF;} .st54{fill:url(#SVGID_19_);} .st55{fill:url(#SVGID_20_);} .st56{fill:url(#SVGID_21_);} .st57{fill:#25527F;} .st58{opacity:0.4;fill:#25527F;} .st59{fill:#1A3F6A;} .st60{fill:url(#SVGID_22_);} .st61{fill:url(#SVGID_23_);} .st62{clip-path:url(#SVGID_25_);} .st63{fill:url(#SVGID_26_);} .st64{fill:url(#SVGID_27_);} .st65{opacity:0.35;clip-path:url(#SVGID_29_);fill:#FFFFFF;} .st66{opacity:0.74;fill:url(#SVGID_30_);} .st67{clip-path:url(#SVGID_32_);} .st68{opacity:0.42;fill:url(#SVGID_33_);} .st69{opacity:0.42;fill:url(#SVGID_34_);} .st70{opacity:0.35;clip-path:url(#SVGID_36_);fill:#FFFFFF;} .st71{fill:url(#SVGID_37_);} .st72{fill:url(#SVGID_38_);} .st73{fill:url(#SVGID_39_);} .st74{fill:url(#SVGID_40_);} .st75{fill:url(#SVGID_41_);} .st76{fill:url(#SVGID_42_);}</style><path class="st0" d="M1961.1 1093l-1961.1-1093v1093z"/><path class="st1" d="M724.7 788.9c-.2 0-.5-.1-.7-.2l-312-174.1c-.7-.4-.9-1.2-.5-1.9s1.2-.9 1.9-.5l312 174.1c.7.4.9 1.2.5 1.9-.2.4-.7.7-1.2.7zM724.7 788.9c-.2 0-.5-.1-.7-.2l-312-174.1c-.7-.4-.9-1.2-.5-1.9s1.2-.9 1.9-.5l312 174.1c.7.4.9 1.2.5 1.9-.2.4-.7.7-1.2.7z"/><path class="st2" d="M0 357.7l1146.2 639.7 157.1-95.6-1303.3-747.4z"/><path class="st3" d="M916.5 561.7l-168.1 102.4-293.2-163.4 168.2-102.4zM724.7 704.2l-312-174.5v83.7l312 174.1M724.7 387.5l-312-173.9v76.3l312 177.6"/><linearGradient id="SVGID_1_" gradientUnits="userSpaceOnUse" x1="922.338" y1="615.634" x2="1005.825" y2="585.247"><stop offset=".014" stop-color="#03174D"/><stop offset=".113" stop-color="#061B4E"/><stop offset=".639" stop-color="#162F55"/><stop offset="1" stop-color="#1B3657"/></linearGradient><path class="st4" d="M990.3 626.5l-52.4 31.8v-84l52.4-31.7z"/><linearGradient id="SVGID_2_" gradientUnits="userSpaceOnUse" x1="831.295" y1="574.339" x2="831.295" y2="787.522"><stop offset=".014" stop-color="#03174D"/><stop offset=".035" stop-color="#03174D"/><stop offset=".289" stop-color="#03174D"/><stop offset=".501" stop-color="#102853"/><stop offset=".729" stop-color="#183356"/><stop offset="1" stop-color="#1B3657"/></linearGradient><path class="st5" d="M937.9 574.3v84l-213.2 129.2v-83.3"/><path class="st6" d="M768.4 566c6.9 2.4 6.3 6.3-1.3 8.7-7.7 2.4-19.5 2.5-26.4.1s-6.3-6.3 1.3-8.7c7.6-2.5 19.5-2.5 26.4-.1z"/><path class="st7" d="M781.7 552.1c-.6 13-9.3 20.7-19.5 17.2s-18-16.9-17.4-29.8 9.3-20.7 19.5-17.2 17.9 16.8 17.4 29.8z"/><path class="st8" d="M778.3 552.8c-.6 13-9.3 20.7-19.5 17.2s-18-16.9-17.4-29.8 9.3-20.7 19.5-17.2c10.2 3.4 18 16.8 17.4 29.8z"/><path class="st9" d="M763.2 568.5c-1.5 0-3-.3-4.5-.8-9.2-3.2-16.3-15.2-15.8-26.9.3-6.4 2.8-11.6 6.8-14.4 3.2-2.2 7.1-2.6 11.1-1.3 9.2 3.2 16.3 15.2 15.8 26.9-.3 6.4-2.8 11.6-6.8 14.4-1.9 1.4-4.2 2.1-6.6 2.1zm-6.7-42.8c-2.1 0-4.1.6-5.9 1.8-3.7 2.5-6 7.4-6.3 13.4-.5 11.1 6.2 22.6 14.9 25.6 3.6 1.2 7.1.9 10-1.1 3.7-2.5 6-7.4 6.3-13.4.5-11.1-6.2-22.6-14.9-25.6-1.4-.5-2.8-.7-4.1-.7z"/><path class="st1" d="M753.1 547.8l-4.6-7.8 9.9-8.7 4.7 8-1.2.7-3.8-6.5-7.7 6.8 3.9 6.8zM753.165 536.677l1.209-.707 2.423 4.144-1.209.707zM760.8 561l-4.7-8.1 1.2-.7 3.8 6.5 7.7-6.8-3.9-6.7 1.2-.8 4.6 7.8zM762.272 552.217l1.208-.707 2.423 4.143-1.208.707zM765.7 551.9l-.9-1.1 4.2-3.7-7.1-12.3-4.1 3.6-.9-1.1 5.4-4.7 8.6 14.8zM762.808 542.304l2.7-2.381.926 1.05-2.7 2.381zM756.9 559.7l-8.6-14.8 5.2-4.6.9 1.1-4.2 3.8 7.1 12.2 4.1-3.6.9 1.1zM752.749 551.273l2.7-2.381.926 1.05-2.7 2.381zM759.2 552.1l-4.3-7.4 5.1-4.5 4.3 7.4-5.1 4.5zm-2.5-7.1l2.9 4.9 2.9-2.6-2.9-4.9-2.9 2.6zM433.4 513.5l167.3-97-600.7-337.2v193.1z"/><path class="st3" d="M455.2 500.7l-455.2-252.4v-198.6l623.4 348.6z"/><path class="st1" d="M624.7 398.7c0-.2.1-.4 0-.5v-.1c0-.2-.1-.3-.2-.5l-.3-.4h-.1s-.1 0-.1-.1l-125.9-70.3c-.3-.4-.7-.6-1.1-.6l-40.1-22.4c-.7-.4-1.5-.1-1.9.5-.4.7-.1 1.5.5 1.9l38.5 21.5-165.6 100.8-112-62.3 165.9-101 29.8 16.7c.2.1.4.2.7.2.5 0 .9-.3 1.2-.7.4-.7.1-1.5-.5-1.9l-30.3-16.9-.3-.2-245.9-137.5c-.2-.3-.6-.5-1-.6l-136-76.1v3.2l14.8 8.3-14.8 8.9v3.2l17.5-10.7 115.5 64.6-133 81.1v3.2l135.8-82.7 121.8 68.2-166.2 101.2-91.4-50.8v3.1l412.1 229.2c.2.1.4.2.7.2.5 0 1-.3 1.2-.7.4-.7.1-1.5-.5-1.9l-82.3-45.8 165.6-100.8 123.9 69.2-166.2 101.1c-.6.4-.9 1.2-.5 1.9.3.4.7.7 1.2.7.2 0 .5-.1.7-.2l168.1-102.3.3-.3.1-.1.1-.1c.2-.2.2-.3.2-.4zm-364.4-201.6l119.2 66.6-165.9 101-119.4-66.5 166.1-101.1z"/><path class="st6" d="M381.9 345.5c16.5 5.7 15.1 15-3.2 20.8-18.3 5.8-46.5 5.9-63 .3-16.5-5.7-15.1-15 3.2-20.8 18.3-5.9 46.5-6 63-.3z"/><path class="st7" d="M413.6 312.4c-1.3 30.9-22.1 49.3-46.4 40.9s-42.9-40.2-41.6-71.1c1.3-30.9 22.1-49.3 46.4-40.9 24.3 8.3 42.9 40.1 41.6 71.1z"/><path class="st8" d="M405.6 314c-1.3 30.9-22.1 49.3-46.4 40.9s-42.9-40.2-41.6-71.1c1.3-30.9 22.1-49.3 46.4-40.9 24.3 8.4 42.9 40.2 41.6 71.1z"/><path class="st9" d="M369.6 351.3c-3.5 0-7-.6-10.6-1.8-21.9-7.5-38.7-36.2-37.5-63.9.6-15.2 6.6-27.6 16.2-34.2 7.6-5.2 17-6.3 26.4-3 21.9 7.5 38.7 36.2 37.5 63.9-.6 15.2-6.6 27.6-16.2 34.2-4.7 3.2-10.1 4.8-15.8 4.8zm-16-102c-5.1 0-10 1.5-14.3 4.4-8.9 6.1-14.4 17.8-15 32.1-1.1 26.6 14.9 54.1 35.6 61.2 8.6 2.9 17.1 2 23.9-2.7 8.9-6.1 14.4-17.8 15-32.1 1.1-26.6-14.9-54.1-35.6-61.2-3.2-1.2-6.5-1.7-9.6-1.7z"/><path class="st11" d="M360.3 287.4l-11.5 3.4 12.2 15.9 11.4-5.9-12.1-13.4zM348.8 290.8l12.2 15.9-1.7-41.4-10.5 25.5zM359.4 265.3l1.7 41.4 11.4-5.9-13.1-35.5zM348.9 294.3l12.9 30.9-.6-15.1-12.3-15.8zM361.2 310.2l.6 15.1 10.8-20.9-11.4 5.8zM360.3 287.4l-11.5 3.4 12.2 15.9 11.4-5.9-12.1-13.4zM348.8 290.8l12.2 15.9-1.7-41.4-10.5 25.5zM348.9 294.3l12.9 30.9-.6-15.1-12.3-15.8zM361.2 310.2l.6 15.1 10.8-20.9-11.4 5.8z"/><path class="st14" d="M455.2 500.7l-21.9 12.8v-261.9l22 12.2z"/><path class="st15" d="M455.2 500.7l-21.9 12.8v-261.9l22 12.2z"/><path class="st3" d="M701.3 441.6l-77.9-43.3v-40.6l77.9 43.5z"/><path class="st16" d="M701.3 441.6l-77.9-43.3v-40.6l77.9 43.5z"/><path class="st1" d="M701.3 442.9c-.2 0-.5-.1-.7-.2l-77.9-43.3c-.7-.4-.9-1.2-.5-1.9s1.2-.9 1.9-.5l77.9 43.3c.7.4.9 1.2.5 1.9-.3.5-.8.7-1.2.7zM455.2 502c-.2 0-.5-.1-.7-.2-.4-.2-.7-.7-.7-1.2v-236.8c0-.8.6-1.4 1.4-1.4s1.4.6 1.4 1.4v234.4l165.4-100.7v-39.8c0-.8.6-1.4 1.4-1.4s1.4.6 1.4 1.4v40.6c0 .5-.2.9-.7 1.2l-168.1 102.3c-.3.2-.5.2-.8.2z"/><defs><path id="SVGID_3_" d="M538.9 284.5v228.6l57.6 35.7v-237.3z"/></defs><clipPath id="SVGID_4_"><use xlink:href="#SVGID_3_" overflow="visible"/></clipPath><g class="st17"><path class="st18" d="M619.4 488c16.5 5.7 15.1 15-3.2 20.8-18.3 5.8-46.5 5.9-63 .3-16.5-5.7-15.1-15 3.2-20.8s46.4-6 63-.3z"/><path class="st1" d="M651 454.9c-1.3 30.9-22.1 49.3-46.4 40.9-24.3-8.3-42.9-40.2-41.6-71.1 1.3-30.9 22.1-49.3 46.4-40.9 24.4 8.3 43 40.2 41.6 71.1z"/><path class="st8" d="M643 456.6c-1.3 30.9-22.1 49.3-46.4 40.9-24.3-8.3-42.9-40.2-41.6-71.1s22.1-49.3 46.4-40.9c24.3 8.3 42.9 40.1 41.6 71.1z"/><path class="st9" d="M607.1 493.9c-3.5 0-7-.6-10.6-1.8-21.9-7.5-38.7-36.2-37.5-63.9.6-15.2 6.6-27.6 16.2-34.2 7.6-5.2 17-6.3 26.4-3 21.9 7.5 38.7 36.2 37.5 63.9-.6 15.2-6.6 27.6-16.2 34.2-4.8 3.1-10.2 4.8-15.8 4.8zm-16.1-102.1c-5.1 0-10 1.5-14.3 4.4-8.9 6.1-14.4 17.8-15 32.1-1.1 26.6 14.9 54.1 35.6 61.2 8.6 2.9 17.1 2 23.9-2.7 8.9-6.1 14.4-17.8 15-32.1 1.1-26.6-14.9-54.1-35.6-61.2-3.2-1.1-6.4-1.7-9.6-1.7z"/><path class="st19" d="M598 453.4l.5-20.1 5.6-3.7-.1-7.9-5.2 3.4.3-15.3-11.6-.9-.4 23.7-5.4 3.5.1 8.2 5.1-3.4-.3 18.6 29.5 11.3 4.2-8.9z"/></g><path class="st20" d="M701.3 401.2v90l-125.4 76.3v-236.4z"/><path class="st1" d="M575.9 568.8c-.2 0-.5-.1-.7-.2-.4-.2-.7-.7-.7-1.2v-235.3c0-.8.6-1.4 1.4-1.4s1.4.6 1.4 1.4v232.9l123.3-75c.6-.4 1.5-.2 1.9.5.4.6.2 1.5-.5 1.9l-125.3 76.3c-.3.1-.5.1-.8.1z"/><path class="st20" d="M701.3 401.2v116.2l-102.7 62.5v-236.1z"/><path class="st1" d="M598.6 581.3c-.2 0-.5-.1-.7-.2-.4-.2-.7-.7-.7-1.2v-235.2c0-.8.6-1.4 1.4-1.4s1.4.6 1.4 1.4v232.8l100.6-61.3c.6-.4 1.5-.2 1.9.5.4.6.2 1.5-.5 1.9l-102.7 62.5c-.2.1-.5.2-.7.2z"/><path class="st3" d="M941.1 572.4l-3.2 1.9v-58.2l52.4 26.5zM916.5 561.7l-168.1-93.7v-23.6l168.1-101.8z"/><path class="st16" d="M916.5 561.7l-168.1-93.7v-23.6l168.1-101.8z"/><path class="st14" d="M701.3 662.4l-268-148.9 21.9-12.8 246.1 137.1z"/><path class="st15" d="M701.3 662.4l-268-148.9 21.9-12.8 246.1 137.1z"/><linearGradient id="SVGID_5_" gradientUnits="userSpaceOnUse" x1="412.75" y1="458.927" x2="724.735" y2="458.927"><stop offset="0" stop-color="#254770"/><stop offset="1" stop-color="#25527F"/></linearGradient><path class="st21" d="M412.7 213.6v316.1l312 174.5v-316.7l-312-173.9zm20.6 299.9v-262l267.9 149.7v261.1l-267.9-148.8z"/><path class="st3" d="M937.9 257.8l-312-173.7-213.2 129.5 312 173.9z"/><linearGradient id="SVGID_6_" gradientUnits="userSpaceOnUse" x1="724.735" y1="481.022" x2="937.855" y2="481.022"><stop offset="0" stop-color="#133E71"/><stop offset="1" stop-color="#25527F"/></linearGradient><path class="st22" d="M724.7 387.5v316.7l213.1-129.9v-316.5l-213.1 129.7zm191.8 174.2l-168.1 102.4v-219.7l168.1-101.9v219.2z"/><path class="st1" d="M861.7 335.4c-.5 0-.9-.2-1.2-.7-.4-.6-.2-1.5.5-1.9l47.3-28.8c.6-.4 1.5-.2 1.9.5.4.6.2 1.5-.5 1.9l-47.3 28.8c-.2.1-.5.2-.7.2z"/><path class="st8" d="M885.4 320.4c-.3 0-.5-.1-.6-.4-.2-.4-.1-.8.3-1l9.1-5.5c.4-.2.8-.1 1 .3.2.4.1.8-.3 1l-9.1 5.5c-.2 0-.3.1-.4.1z"/><path class="st1" d="M861.7 349.8c-.5 0-.9-.2-1.2-.7-.4-.6-.2-1.5.5-1.9l47.3-28.8c.6-.4 1.5-.2 1.9.5.4.6.2 1.5-.5 1.9l-47.3 28.8c-.2.2-.5.2-.7.2z"/><path class="st8" d="M867.6 345.6c-.3 0-.5-.1-.6-.4-.2-.4-.1-.8.3-1l9.8-5.9c.4-.2.8-.1 1 .3.2.4.1.8-.3 1l-9.8 5.9c-.1.1-.3.1-.4.1z"/><path class="st1" d="M937.9 659.6c-.2 0-.5-.1-.7-.2-.4-.2-.7-.7-.7-1.2v-83.9c0-.5.3-.9.7-1.2l52.5-31.7c.4-.3 1-.3 1.4 0 .4.2.7.7.7 1.2v83.9c0 .5-.3.9-.7 1.2l-52.5 31.7c-.3.2-.5.2-.7.2zm1.3-84.5v80.7l49.7-30.1v-80.7l-49.7 30.1zm51.1 51.4zM702.7 754.6l-89.8-51v-42.3l89.8 51v42.3zm-87.1-52.6l84.3 47.9v-36l-84.3-47.9v36zM700.3 734.5c-1.6-1.7-3.1-3.5-4.4-5.3-2.8-3.7-5.5-7.1-10.2-9.7-4.3-2.4-5.8-1.7-7.8-.8-2.2 1-4.7 2.2-10.3-.8-5.1-2.9-8.1-6.7-11-10.5-2.8-3.7-5.5-7.1-10.2-9.7-4.3-2.4-5.8-1.7-7.8-.8-2.2 1-4.7 2.2-10.3-.8-5.1-2.9-8.1-6.7-11-10.4-1.4-1.9-2.8-3.6-4.4-5.3l2-1.9c1.7 1.8 3.2 3.7 4.6 5.5 2.8 3.7 5.5 7.1 10.2 9.7 4.3 2.4 5.8 1.7 7.8.8 2.2-1 4.8-2.2 10.3.8 5.1 2.9 8.1 6.7 11 10.5 2.8 3.7 5.5 7.1 10.2 9.7 4.3 2.4 5.8 1.7 7.8.8 2.2-1 4.8-2.2 10.3.8 5.1 2.9 8.1 6.7 11 10.5 1.4 1.8 2.7 3.5 4.2 5.1l-2 1.8z"/><path class="st8" d="M647.2 697.3c-.1 0-.2 0-.4-.1-1.1-.6-2.1-1.1-3-1.3-.4-.1-.6-.5-.5-.9.1-.4.5-.6.9-.5 1 .3 2.1.8 3.3 1.5.4.2.5.7.3 1-.1.1-.3.3-.6.3z"/><path class="st23" d="M829.5 685.3M916.5 632.5"/><path class="st1" d="M701.3 639.2c-.2 0-.5-.1-.7-.2l-246-137.1c-.7-.4-.9-1.2-.5-1.9s1.2-.9 1.9-.5l246 137.1c.7.4.9 1.2.5 1.9-.3.4-.8.7-1.2.7zM916.5 563.1c-.2 0-.5-.1-.7-.2l-168.1-93.7c-.7-.4-.9-1.2-.5-1.9s1.2-.9 1.9-.5l168.1 93.7c.7.4.9 1.2.5 1.9-.2.5-.7.7-1.2.7zM458.8 572c-.2 0-.5-.1-.7-.2l-34.1-19.4c-.7-.4-.9-1.2-.5-1.9s1.2-.9 1.9-.5l34.1 19.4c.7.4.9 1.2.5 1.9-.3.5-.7.7-1.2.7zM439.4 614.1c-.2 0-.5-.1-.7-.2l-14.7-8.4c-.7-.4-.9-1.2-.5-1.9s1.2-.9 1.9-.5l14.7 8.4c.7.4.9 1.2.5 1.9-.2.5-.7.7-1.2.7zM474.5 580.9c-.2 0-.5-.1-.7-.2l-8.1-4.6c-.7-.4-.9-1.2-.5-1.9s1.2-.9 1.9-.5l8.1 4.6c.7.4.9 1.2.5 1.9-.3.5-.8.7-1.2.7zM449.6 577.6c-.2 0-.5-.1-.7-.2l-24.9-14.2c-.7-.4-.9-1.2-.5-1.9s1.2-.9 1.9-.5l24.9 14.2c.7.4.9 1.2.5 1.9-.3.4-.8.7-1.2.7zM464.9 586.3c-.2 0-.5-.1-.7-.2l-8.6-4.9c-.7-.4-.9-1.2-.5-1.9s1.2-.9 1.9-.5l8.6 4.9c.7.4.9 1.2.5 1.9-.3.4-.7.7-1.2.7zM449.6 609.8c-.2 0-.5-.1-.7-.2l-24.9-14.1c-.7-.4-.9-1.2-.5-1.9s1.2-.9 1.9-.5l24.9 14.2c.7.4.9 1.2.5 1.9-.3.4-.8.6-1.2.6zM464.9 618.5c-.2 0-.5-.1-.7-.2l-8.6-4.9c-.7-.4-.9-1.2-.5-1.9s1.2-.9 1.9-.5l8.6 4.9c.7.4.9 1.2.5 1.9-.3.5-.7.7-1.2.7zM476 603.5c-.2 0-.5-.1-.7-.2l-51.3-29.2c-.7-.4-.9-1.2-.5-1.9s1.2-.9 1.9-.5l51.4 29.2c.7.4.9 1.2.5 1.9-.3.4-.8.7-1.3.7zM449.6 599.2c-.2 0-.5-.1-.7-.2l-24.9-14.1c-.7-.4-.9-1.2-.5-1.9s1.2-.9 1.9-.5l24.9 14.2c.7.4.9 1.2.5 1.9-.3.4-.8.6-1.2.6zM937.2 259l-311.3-173.3-212.4 129.1-1.5-2.3 213.8-130 .7.4 312 173.7zM937.181 517.222l1.219-2.409 52.467 26.548-1.219 2.409z"/><path class="st8" d="M556.1 650.8c0 1.2 1 2.6 2.2 3.1s2.2-.1 2.2-1.3-1-2.6-2.2-3.1-2.2 0-2.2 1.3zM546.2 645c0 1.2 1 2.6 2.2 3.1s2.2-.1 2.2-1.3-1-2.6-2.2-3.1c-1.3-.5-2.2.1-2.2 1.3zM556.1 663.9c0 1.2 1 2.6 2.2 3.1 1.2.5 2.2-.1 2.2-1.3s-1-2.6-2.2-3.1c-1.2-.6-2.2 0-2.2 1.3zM546.2 658.1c0 1.2 1 2.6 2.2 3.1 1.2.5 2.2-.1 2.2-1.3s-1-2.6-2.2-3.1-2.2.1-2.2 1.3z"/><path class="st15" d="M767 724.1l4.6-7.6M584.1 674.1l-4.5-7.6"/><path class="st1" d="M570.7 666.3c0 7.4 6 16.9 13.4 21.2 7.4 4.3 13.4 1.8 13.4-5.6s-6-16.9-13.4-21.2c-7.4-4.3-13.4-1.8-13.4 5.6z"/><path class="st8" d="M584.1 671.6l-.4-.2-3.2-5.4-1.7 1 3 5.1c-.1.2-.1.4-.1.6 0 1.4 1.1 3.1 2.5 3.9 1.4.8 2.5.3 2.5-1-.1-1.4-1.2-3.2-2.6-4z"/><path class="st1" d="M747 753.7v-42.4l71.3-43.2v42.4l-71.3 43.2zm2.8-40.8v35.9l65.8-39.9v-35.9l-65.8 39.9zM828.1 705.2v-42.2l89.8-54.7v42.4l-.7.4-89.1 54.1zm2.8-40.7v35.8l84.3-51.1v-35.9l-84.3 51.2zM828.858 681.223l86.964-52.731 1.452 2.394-86.964 52.731z"/><path class="st8" d="M872 657.5c-.3 0-.5-.1-.6-.4-.2-.4-.1-.8.3-1l11.1-6.7c.4-.2.8-.1 1 .3.2.4.1.8-.3 1l-11.1 6.7c-.2.1-.3.1-.4.1zM840.3 667.2c0 1.2-1 2.6-2.2 3.1-1.2.5-2.2-.1-2.2-1.3s1-2.6 2.2-3.1 2.2.1 2.2 1.3zM848.2 663.4c0 1.2-1 2.6-2.2 3.1s-2.2-.1-2.2-1.3 1-2.6 2.2-3.1c1.2-.5 2.2.1 2.2 1.3z"/><path class="st24" d="M780.5 713.4c0 7.4-6 16.9-13.4 21.2-7.4 4.3-13.4 1.8-13.4-5.6s6-16.9 13.4-21.2c7.4-4.4 13.4-1.9 13.4 5.6z"/><path class="st8" d="M769.5 720.7c0 1.4-1.1 3.1-2.5 3.9-1.4.8-2.5.3-2.5-1s1.1-3.1 2.5-3.9c1.4-.8 2.5-.4 2.5 1zM766.149 720.556l4.555-7.646 1.718 1.024-4.555 7.646z"/><path class="st15" d="M797.6 702.1l4.5-7.6"/><path class="st15" d="M811 694.3c0 7.4-6 16.9-13.4 21.2-7.4 4.3-13.4 1.8-13.4-5.6s6-16.9 13.4-21.2c7.4-4.3 13.4-1.8 13.4 5.6z"/><path class="st8" d="M800.1 700.6c0 1.4-1.1 3.1-2.5 3.9s-2.5.3-2.5-1c0-1.4 1.1-3.1 2.5-3.9s2.5-.3 2.5 1zM796.722 701.57l4.555-7.646 1.718 1.024-4.555 7.646z"/><path class="st25" d="M777.7 394.3c0 7.3-6.1 16.6-13.6 20.6s-13.6 1.3-13.5-6c0-7.3 6.1-16.6 13.6-20.6 7.4-4 13.5-1.4 13.5 6z"/><path class="st8" d="M766.6 400.2c0 1.4-1.1 3-2.5 3.8s-2.5.2-2.5-1.1 1.1-3 2.5-3.8c1.4-.7 2.5-.2 2.5 1.1zM763.316 400.999l4.596-7.387 1.698 1.057-4.596 7.387z"/><path class="st15" d="M795 383.6l4.6-7.3"/><path class="st25" d="M808.6 376.3c0 7.3-6.1 16.6-13.6 20.6s-13.6 1.3-13.5-6c0-7.3 6.1-16.6 13.6-20.6s13.5-1.3 13.5 6z"/><path class="st8" d="M797.5 382.3c0 1.4-1.1 3-2.5 3.8-1.4.7-2.5.2-2.5-1.1 0-1.4 1.1-3 2.5-3.8s2.5-.2 2.5 1.1zM794.167 383.035l4.596-7.387 1.698 1.057-4.596 7.387z"/><path class="st15" d="M826.3 364.1l4.6-7.3"/><path class="st25" d="M839.8 356.8c0 7.3-6.1 16.6-13.6 20.6s-13.6 1.3-13.5-6c0-7.3 6.1-16.6 13.6-20.6s13.6-1.3 13.5 6z"/><path class="st8" d="M828.8 362.8c0 1.4-1.1 3-2.5 3.8-1.4.7-2.5.2-2.5-1.1 0-1.4 1.1-3 2.5-3.8s2.5-.2 2.5 1.1zM825.393 363.58l4.596-7.387 1.698 1.057-4.596 7.387z"/><path class="st1" d="M948.2 630.9c-.8 0-1.4-.6-1.4-1.4v-35.8c0-.8.6-1.4 1.4-1.4s1.4.6 1.4 1.4v35.8c0 .8-.6 1.4-1.4 1.4z"/><path class="st8" d="M948.2 616.5c-.4 0-.8-.3-.8-.8v-7.9c0-.4.3-.8.8-.8s.8.3.8.8v7.9c0 .4-.3.8-.8.8z"/><path class="st1" d="M958.6 624.7c-.8 0-1.4-.6-1.4-1.4v-35.8c0-.8.6-1.4 1.4-1.4s1.4.6 1.4 1.4v35.8c0 .8-.6 1.4-1.4 1.4z"/><path class="st8" d="M958.6 610.2c-.4 0-.8-.3-.8-.8v-7.9c0-.4.3-.8.8-.8s.8.3.8.8v7.9c0 .5-.4.8-.8.8z"/><path class="st1" d="M969 618.5c-.8 0-1.4-.6-1.4-1.4v-35.8c0-.8.6-1.4 1.4-1.4s1.4.6 1.4 1.4v35.8c0 .8-.6 1.4-1.4 1.4z"/><path class="st8" d="M969 604c-.4 0-.8-.3-.8-.8v-7.9c0-.4.3-.8.8-.8s.8.3.8.8v7.9c0 .5-.4.8-.8.8z"/><path class="st1" d="M979.4 612c-.8 0-1.4-.6-1.4-1.4v-35.8c0-.8.6-1.4 1.4-1.4s1.4.6 1.4 1.4v35.8c0 .8-.6 1.4-1.4 1.4z"/><path class="st8" d="M979.4 597.6c-.4 0-.8-.3-.8-.8v-7.9c0-.4.3-.8.8-.8s.8.3.8.8v7.9c0 .4-.4.8-.8.8z"/><path class="st1" d="M533.4 656.6c-.8 0-1.4-.6-1.4-1.4v-35.8c0-.8.6-1.4 1.4-1.4s1.4.6 1.4 1.4v35.8c0 .7-.6 1.4-1.4 1.4z"/><path class="st8" d="M533.4 642.1c-.4 0-.8-.3-.8-.8v-7.9c0-.4.3-.8.8-.8s.8.3.8.8v7.9c0 .5-.4.8-.8.8z"/><path class="st1" d="M523 650.3c-.8 0-1.4-.6-1.4-1.4v-35.8c0-.8.6-1.4 1.4-1.4s1.4.6 1.4 1.4v35.9c0 .7-.6 1.3-1.4 1.3z"/><path class="st8" d="M523 635.9c-.4 0-.8-.3-.8-.8v-7.9c0-.4.3-.8.8-.8s.8.3.8.8v7.9c0 .4-.3.8-.8.8z"/><path class="st1" d="M512.7 644.1c-.8 0-1.4-.6-1.4-1.4v-35.8c0-.8.6-1.4 1.4-1.4s1.4.6 1.4 1.4v35.8c-.1.8-.7 1.4-1.4 1.4z"/><path class="st8" d="M512.7 629.6c-.4 0-.8-.3-.8-.8v-7.9c0-.4.3-.8.8-.8s.8.3.8.8v7.9c-.1.5-.4.8-.8.8z"/><path class="st1" d="M502.3 637.6c-.8 0-1.4-.6-1.4-1.4v-35.8c0-.8.6-1.4 1.4-1.4s1.4.6 1.4 1.4v35.8c-.1.8-.7 1.4-1.4 1.4z"/><path class="st8" d="M502.3 623.2c-.4 0-.8-.3-.8-.8v-7.9c0-.4.3-.8.8-.8s.8.3.8.8v7.9c-.1.4-.4.8-.8.8z"/><path class="st1" d="M488.7 656.7c-.8 0-1.4-.6-1.4-1.4v-81.2c0-.8.6-1.4 1.4-1.4s1.4.6 1.4 1.4v81.2c0 .8-.6 1.4-1.4 1.4z"/><path class="st26" d="M724.7 735.6"/><path class="st1" d="M945.1 557.6c-.8 0-1.4-.6-1.4-1.4v-14.9c0-.5.3-.9.7-1.2l11.2-6.7c.4-.3 1-.3 1.4 0 .4.2.7.7.7 1.2v14.9c0 .8-.6 1.4-1.4 1.4s-1.4-.6-1.4-1.4v-12.5l-8.5 5.1v14.2c0 .7-.6 1.3-1.3 1.3z"/><path class="st27" d="M886.6 245.6c12.6 5 10.5 12.8-4.7 17.4s-37.9 4.1-50.5-.9c-12.6-5-10.5-12.8 4.7-17.4 15.2-4.5 37.8-4.1 50.5.9z"/><path class="st28" d="M862.8 253.4v-27.9c0-8 6.5-14.5 14.5-14.5s14.5 6.5 14.5 14.5v27.9"/><path class="st29" d="M862.8 253.4v-27.9c0-8 6.5-14.5 14.5-14.5s14.5 6.5 14.5 14.5v27.9"/><ellipse class="st8" cx="877.2" cy="253.4" rx="16.5" ry="8"/><ellipse class="st29" cx="877.2" cy="253.9" rx="18.3" ry="8.4"/><path class="st8" d="M883.1 241.5c-2.1 0-3.1-1.1-3.9-1.9-.7-.7-1.1-1.1-2-1.1-.9 0-1.3.3-2 1.1-.8.8-1.9 1.9-3.9 1.9-2.1 0-3.1-1.1-3.9-1.9-.7-.7-1.1-1.1-2-1.1v-2.8c2.1 0 3.1 1.1 3.9 1.9.7.7 1.1 1.1 2 1.1.9 0 1.3-.3 2-1.1.8-.8 1.9-1.9 3.9-1.9 2.1 0 3.1 1.1 3.9 1.9.7.7 1.1 1.1 2 1.1s1.3-.3 2-1.1c.8-.8 1.9-1.9 3.9-1.9v2.8c-.9 0-1.3.3-2 1.1s-1.8 1.9-3.9 1.9zM870.794 232.112l2.78-.337 2.601 21.442-2.78.337zM878.078 253.273l2.592-21.444 2.78.336-2.592 21.444z"/><defs><path id="SVGID_7_" d="M862.7 253.4v-27.9c0-8 6.5-14.5 14.5-14.5s14.5 6.5 14.5 14.5v27.9"/></defs><clipPath id="SVGID_8_"><use xlink:href="#SVGID_7_" overflow="visible"/></clipPath><circle class="st30" cx="886.5" cy="216.9" r="12"/><linearGradient id="SVGID_9_" gradientUnits="userSpaceOnUse" x1="872.851" y1="255.953" x2="883.742" y2="212.271"><stop offset="0" stop-color="#fff" stop-opacity="0"/><stop offset="1" stop-color="#D5B865"/></linearGradient><path class="st31" d="M862.7 253.4v-27.9c0-8 6.5-14.5 14.5-14.5s14.5 6.5 14.5 14.5v27.9"/><path class="st29" d="M892.7 253.4h-2v-27.9c0-7.4-6-13.5-13.5-13.5-7.4 0-13.5 6-13.5 13.5v27.9h-2v-27.9c0-8.5 6.9-15.5 15.5-15.5s15.5 6.9 15.5 15.5v27.9z"/><path class="st1" d="M433.3 514.9c-.5 0-.9-.2-1.2-.7-.4-.7-.2-1.5.5-1.9l21.9-12.8c.7-.4 1.5-.2 1.9.5.4.7.2 1.5-.5 1.9l-21.9 12.8c-.2.1-.4.2-.7.2zM724.7 788.9c-.5 0-.9-.2-1.2-.7-.4-.6-.2-1.5.5-1.9l213.1-129.3c.6-.4 1.5-.2 1.9.5.4.6.2 1.5-.5 1.9l-213.1 129.3c-.2.1-.4.2-.7.2z"/><path class="st20" d="M664.7 429v58.1l-11.5 7.1v-58.1z"/><defs><path id="SVGID_10_" d="M656.7 382.2v149.5l53.8 35.7v-158.3z"/></defs><clipPath id="SVGID_11_"><use xlink:href="#SVGID_10_" overflow="visible"/></clipPath><g class="st32"><path class="st7" d="M679.7 469.2c-.6 13-9.3 20.7-19.5 17.2s-18-16.9-17.4-29.8c.6-13 9.3-20.7 19.5-17.2 10.2 3.4 18 16.8 17.4 29.8z"/><path class="st8" d="M676.4 469.9c-.6 13-9.3 20.7-19.5 17.2s-18-16.9-17.4-29.8c.6-13 9.3-20.7 19.5-17.2 10.1 3.4 17.9 16.8 17.4 29.8z"/><path class="st9" d="M661.3 485.6c-1.5 0-3-.3-4.5-.8-9.2-3.2-16.3-15.2-15.8-26.9.3-6.4 2.8-11.6 6.8-14.4 3.2-2.2 7.1-2.6 11.1-1.3 9.2 3.2 16.3 15.2 15.8 26.9-.3 6.4-2.8 11.6-6.8 14.4-1.9 1.4-4.2 2.1-6.6 2.1zm-6.8-42.9c-2.1 0-4.1.6-5.9 1.8-3.7 2.5-6 7.4-6.3 13.4-.5 11.1 6.2 22.6 14.9 25.6 3.6 1.2 7.1.9 10-1.1 3.7-2.5 6-7.4 6.3-13.4.5-11.1-6.2-22.6-14.9-25.6-1.4-.4-2.8-.7-4.1-.7z"/><path class="st1" d="M651.1 464.9l-4.5-7.8 9.9-8.8 4.7 8.1-1.3.7-3.8-6.5-7.7 6.8 4 6.7zM651.278 453.674l1.209-.707 2.423 4.144-1.209.707zM658.8 478l-4.7-8 1.3-.7 3.8 6.5 7.7-6.8-4-6.8 1.3-.7 4.5 7.8zM660.365 469.163l1.209-.707 2.423 4.144-1.209.707zM663.8 469l-1-1.1 4.3-3.8-7.2-12.2-4 3.6-1-1.1 5.4-4.8 8.7 14.8zM660.908 459.37l2.7-2.381.926 1.05-2.7 2.381zM655 476.7l-8.6-14.8 5.1-4.5 1 1.1-4.3 3.7 7.2 12.3 4-3.6 1 1.1zM650.783 468.265l2.7-2.381.926 1.05-2.7 2.381zM657.3 469.2l-4.3-7.4 5.1-4.5 4.3 7.4-5.1 4.5zm-2.5-7.2l2.9 4.9 2.9-2.6-2.9-4.9-2.9 2.6z"/></g><radialGradient id="SVGID_12_" cx="567.295" cy="456.956" r="173.411" gradientUnits="userSpaceOnUse"><stop offset="0" stop-color="#fff" stop-opacity="0"/><stop offset=".153" stop-color="#C5C8DE" stop-opacity=".153"/><stop offset=".311" stop-color="#9296C1" stop-opacity=".311"/><stop offset=".466" stop-color="#676DA9" stop-opacity=".466"/><stop offset=".616" stop-color="#454D96" stop-opacity=".616"/><stop offset=".757" stop-color="#2D3689" stop-opacity=".757"/><stop offset=".889" stop-color="#1F2881" stop-opacity=".889"/><stop offset="1" stop-color="#1A237E"/></radialGradient><path class="st33" d="M701.3 662.4l-268-148.9v-261.9l268 149.6z"/><linearGradient id="SVGID_13_" gradientUnits="userSpaceOnUse" x1="433.312" y1="456.956" x2="701.278" y2="456.956"><stop offset="0" stop-color="#fff" stop-opacity="0"/><stop offset=".153" stop-color="#C5C8DE" stop-opacity=".153"/><stop offset=".311" stop-color="#9296C1" stop-opacity=".311"/><stop offset=".466" stop-color="#676DA9" stop-opacity=".466"/><stop offset=".616" stop-color="#454D96" stop-opacity=".616"/><stop offset=".757" stop-color="#2D3689" stop-opacity=".757"/><stop offset=".889" stop-color="#1F2881" stop-opacity=".889"/><stop offset="1" stop-color="#1A237E"/></linearGradient><path class="st34" d="M701.3 662.4l-268-148.9v-261.9l268 149.6z"/><path class="st1" d="M748.4 526.3v-81.9l168.1-102.3v81.8z"/><path class="st35" d="M748.4 472v-27.6l168.1-102.3v27.6zM748.4 526.1v-25.3l168.1-102.3v25.3z"/><path class="st1" d="M748.4 665.5c-.8 0-1.4-.6-1.4-1.4v-219.7c0-.5.2-.9.7-1.2l168.1-102.3c.4-.3 1-.3 1.4 0 .4.2.7.7.7 1.2v219.7c0 .8-.6 1.4-1.4 1.4s-1.4-.6-1.4-1.4v-217.3l-165.3 100.7v218.9c0 .7-.6 1.4-1.4 1.4zM951.2 347.9c-.5-.2-1.1-.1-1.5.2l-10.5 9.2v-99.5c0-.5-.3-1-.7-1.2-.4-.2-1-.2-1.4 0l-212.4 129.4-311.3-173.6c-.4-.2-.9-.2-1.4 0-.4.2-.7.7-.7 1.2v399.8c0 .5.3 1 .7 1.2l312 174.1c.1.1.2.1.3.1h.7c.1 0 .2-.1.2-.1l213.1-129.3c.4-.2.7-.7.7-1.2v-81.9c0-.4-.2-.7-.4-1 .3-.3.4-.6.4-1v-213.3l10.1-8.8v185.8c0 .8.6 1.4 1.4 1.4s1.4-.6 1.4-1.4v-188.8c.1-.6-.2-1.1-.7-1.3zm-227.8 437.3l-309.3-172.6v-80.6l309.2 173v80.2zm0-83.3l-309.2-173v-312.9l309.2 172.4v313.5zm213.1-44.4l-210.4 127.6v-80.1l210.4-128.2v80.7zm0-83.9l-210.4 128.2v-313.5l210.4-128.1v313.4z"/><g class="st36"><path class="st37" d="M430.7 530.1l-.2-9.4 4.1 2.3v2l-2.6-1.5v1.8l2.2 1.3v2l-2.2-1.3v1.7l2.6 1.5v2l-3.9-2.4zM442 527.2l1.3.7 1 9.9-1.6-.9-.5-5.3-1.2 3.3-1.1-.7-1.4-4.7-.3 4.9-1.6-.9.6-9 1.3.7 1.9 6.8 1.6-4.8zM449.7 536c.9.7 1.2 2 1.3 2.9 0 1.4-.5 2.5-2 1.6l-2.8-1.6-.2-9.4 2.6 1.5c1.2.7 1.9 2.1 2 3.6 0 .6-.2 1.5-.9 1.4zm-1.3-1.5c.3.2.5 0 .5-.5s-.2-.9-.5-1.2l-.8-.5v1.6l.8.6zm-.7 1.4v1.9l1 .6c.5.3.7-.1.7-.6 0-.4-.2-1.1-.7-1.4l-1-.5zM453 542.9l-.2-9.4 1.5.9.2 7.4 2.3 1.3v2l-3.8-2.2zM458.6 546.1l-.2-9.4 4.1 2.3v2l-2.6-1.5v1.8l2.2 1.3v2l-2.2-1.3v1.7l2.6 1.5v2l-3.9-2.4zM469.9 543.3l1.3.7 1 9.9-1.6-.9-.5-5.3-1.2 3.3-1.1-.7-1.4-4.7-.3 4.9-1.6-.9.6-9 1.3.7 1.9 6.8 1.6-4.8zM477.4 554.8l-2-1.1-.5 1.9-1.6-.9 2.1-8.1 1.7 1 2.5 10.8-1.6-.9-.6-2.7zm-1.6-2.9l1.2.7-.7-3.5-.5 2.8zM480 551.1v-2l4.8 2.7v2l-1.6-.9.2 7.4-1.5-.9-.2-7.4-1.7-.9zM486.6 552.9l1.5.9.2 9.4-1.5-.9-.2-9.4zM496.1 565.7c-.5 1-1.5 1.3-2.6.6-1.8-1-3.2-4-3.3-6.7-.1-2.7 1.3-4 3.1-3 1.1.6 2.1 2.1 2.7 3.7.1-.1-1.2.6-1.2.6-.3-.9-.8-1.7-1.4-2-.9-.5-1.6.2-1.6 1.6 0 1.4.8 3 1.7 3.5.6.3 1.1.2 1.4-.4l1.2 2.1zM505 572.8l-4.2-2.4v-1.2l2.4-2.9c.1-.2.3-.4.3-.7 0-.3-.2-.8-.6-1.1-.5-.3-.7.2-.7.8l-1.3-1.1c.2-1.7.9-2.4 2.1-1.7 1.1.6 2 2.3 2 3.9 0 .9-.2 1.5-.6 1.9l-1.3 1.4 1.9 1.1v2zM509.1 566.1c1.7 1 2.3 3.3 2.3 5.9.1 2.6-.4 4.3-2.1 3.3-1.8-1-2.3-3.3-2.4-5.9-.1-2.5.4-4.3 2.2-3.3zm.1 7.2c.6.3.8-.7.7-2 0-1.4-.3-2.6-.8-3-.6-.3-.8.7-.8 2.1.1 1.3.3 2.5.9 2.9zM515.5 569.8c1.7 1 2.3 3.3 2.3 5.9.1 2.6-.4 4.3-2.1 3.3-1.8-1-2.3-3.3-2.4-5.9 0-2.5.4-4.3 2.2-3.3zm.2 7.2c.6.3.8-.7.7-2 0-1.4-.3-2.6-.8-3-.6-.3-.8.7-.8 2.1 0 1.3.3 2.5.9 2.9zM521.9 573.5c1.7 1 2.3 3.3 2.3 5.9.1 2.6-.4 4.3-2.1 3.3-1.8-1-2.3-3.3-2.4-5.9 0-2.5.5-4.3 2.2-3.3zm.2 7.1c.6.3.8-.7.7-2 0-1.4-.3-2.6-.8-3-.6-.3-.8.7-.8 2.1 0 1.4.3 2.6.9 2.9z"/></g><path class="st6" d="M148.3 206.7c16.5 5.7 15.1 15-3.2 20.8-18.3 5.8-46.5 5.9-63 .3s-15.1-15 3.2-20.8c18.3-5.8 46.5-6 63-.3z"/><path class="st7" d="M180 173.6c-1.3 30.9-22.1 49.3-46.4 40.9s-42.9-40.2-41.6-71.1c1.3-30.9 22.1-49.3 46.4-40.9s43 40.2 41.6 71.1z"/><path class="st8" d="M172 175.3c-1.3 30.9-22.1 49.3-46.4 40.9-24.3-8.3-42.9-40.2-41.6-71.1 1.3-30.9 22.1-49.3 46.4-40.9s42.9 40.2 41.6 71.1z"/><path class="st9" d="M136.1 212.6c-3.5 0-7-.6-10.6-1.8-21.9-7.5-38.7-36.2-37.5-63.9.6-15.2 6.6-27.6 16.2-34.2 7.6-5.2 17-6.3 26.4-3 21.9 7.5 38.7 36.2 37.5 63.9-.6 15.2-6.6 27.6-16.2 34.2-4.8 3.2-10.2 4.8-15.8 4.8zm-16.1-102.1c-5.1 0-10 1.5-14.3 4.4-8.9 6.1-14.4 17.8-15 32.1-1.1 26.6 14.9 54.1 35.6 61.2 8.6 2.9 17.1 2 23.9-2.7 8.9-6.1 14.4-17.8 15-32.1 1.1-26.6-14.9-54.1-35.6-61.2-3.2-1.1-6.4-1.7-9.6-1.7z"/><path class="st38" d="M140.1 154c-.7-6.6-4.6-10.6-9.4-13.5l-.4-8.9-3.7-1.7.4 8.7c-1-.5-2-.9-2.9-1.3l-.4-8.8-3.7-1.7.4 8.9-2.4-1.1-5.1-2.4.3 5.8s2.7 1.2 2.7 1.3c1.5.7 2 2.2 2.2 3.4l.4 10.2c.1 0 .2.1.4.2l-.4-.2.6 14.3c0 .7-.3 1.6-1.3 1.1 0 .1-2.7-1.3-2.7-1.3l-.5 6.2 4.8 2.3c.9.4 1.8.9 2.6 1.3l.4 9 3.7 1.7-.4-8.9c1 .5 2 1 3 1.4l.4 8.9 3.7 1.7-.4-9c6.2 2.4 10.4 2.2 10.6-6.2.1-6.7-2.2-10.8-5.8-13.8 2.2-.5 3.4-2.7 2.9-7.6zm-4.3 16.9c.3 6.8-7.6 2.3-10.1 1.1l-.5-12c2.4 1.2 10.3 3.8 10.6 10.9zm-2.5-17.7c.3 6.1-6.3 2.3-8.4 1.3l-.5-10.9c2.1 1 8.6 3.2 8.9 9.6z"/><path class="st27" d="M839.4 271.6c12.6 5 10.5 12.8-4.7 17.4s-37.9 4.1-50.5-.9-10.5-12.8 4.7-17.4 37.9-4.2 50.5.9z"/><ellipse class="st8" cx="829.4" cy="279" rx="16.5" ry="8"/><ellipse class="st11" cx="829.4" cy="279.4" rx="18.3" ry="8.4"/><path class="st11" d="M814.9 279v-27.9c0-8 6.5-14.5 14.5-14.5s14.5 6.5 14.5 14.5v27.9"/><path class="st39" d="M835.3 267c-2.1 0-3.1-1.1-3.9-1.9-.7-.7-1.1-1.1-2-1.1-.9 0-1.3.3-2 1.1-.8.8-1.9 1.9-3.9 1.9-2.1 0-3.1-1.1-3.9-1.9-.7-.7-1.1-1.1-2-1.1v-2.8c2.1 0 3.1 1.1 3.9 1.9.7.7 1.1 1.1 2 1.1.9 0 1.3-.3 2-1.1.8-.8 1.9-1.9 3.9-1.9 2.1 0 3.1 1.1 3.9 1.9.7.7 1.1 1.1 2 1.1s1.3-.3 2-1.1c.8-.8 1.9-1.9 3.9-1.9v2.8c-.9 0-1.3.3-2 1.1-.8.8-1.8 1.9-3.9 1.9zM822.991 257.609l2.78-.337 2.601 21.442-2.78.337zM830.207 278.773l2.592-21.444 2.78.336-2.592 21.444z"/><g class="st40"><defs><path id="SVGID_14_" class="st40" d="M814.9 279v-27.9c0-8 6.5-14.5 14.5-14.5s14.5 6.5 14.5 14.5v27.9"/></defs><clipPath id="SVGID_15_"><use xlink:href="#SVGID_14_" overflow="visible"/></clipPath><circle class="st41" cx="838.7" cy="242.5" r="12"/></g><path class="st42" d="M844.8 279h-2v-27.9c0-7.4-6-13.5-13.5-13.5s-13.5 6-13.5 13.5v27.9h-2v-27.9c0-8.5 6.9-15.5 15.5-15.5s15.5 6.9 15.5 15.5v27.9z"/><path class="st43" d="M701.3 662.4l-268-148.9v-261.9l268 149.6z"/><path class="st1" d="M702.7 664.7l-270.7-150.4v-265.1l2 1.1 268.7 150.1v264.3zm-268-152l265.2 147.3v-258l-265.2-148.1v258.8z"/><path class="st44" d="M413.2 613M909.8 608.1M748.4 692.5"/><path class="st1" d="M1241.8 968.3c-.2 0-.5-.1-.7-.2l-496.2-275.3c-.4-.2-.7-.7-.7-1.2s.2-.9.7-1.2l168.1-102.7c.4-.3 1-.3 1.4 0l493.1 277.7c.4.2.7.7.7 1.2s-.2.9-.7 1.2l-164.9 100.4c-.3.1-.5.1-.8.1zm-493.5-276.8l493.6 273.9 162.2-98.7-490.5-276.2-165.3 101z"/><path class="st44" d="M1241.7 873.5M1283 766"/><path class="st2" d="M724.7 787.5l-493.3 305.5h-231.4v-223.1l411.2-255.6z"/><path class="st1" d="M1118.8 1007.7"/><path class="st44" d="M1357 803.4M1230.2 733.2"/><path class="st1" d="M328.8 567.7c-.8 0-1.4-.6-1.4-1.4v-136.4c0-.8.6-1.4 1.4-1.4s1.4.6 1.4 1.4v136.5c0 .7-.6 1.3-1.4 1.3zM91.5 435.7c-.8 0-1.4-.6-1.4-1.4v-136c0-.8.6-1.4 1.4-1.4s1.4.6 1.4 1.4v136c0 .8-.7 1.4-1.4 1.4zM1406.7 866.6l-493.1-277.7-168.1 102.7 128.9 71.4v109.2c0 .8.6 1.4 1.4 1.4s1.4-.6 1.4-1.4v-107.6l236.4 131.2v110.2c0 .8.6 1.4 1.4 1.4s1.4-.6 1.4-1.4v-108.7l125.6 69.7 164.7-100.4z"/><path class="st3" d="M1409.4 836.5l-168.1 102.3-492.9-274.7 168.1-102.4z"/><path class="st44" d="M1241.8 967M1410 864.6"/><path class="st1" d="M1410.1 835.3l-250-139.3-.2-.1-242.7-135.4c-.7-.4-1.5-.1-1.9.5-.4.7-.1 1.5.5 1.9l125.5 70-166.3 101.3c-.6.4-.9 1.2-.5 1.9.3.4.7.7 1.2.7.2 0 .5-.1.7-.2l167.7-102.1 112.4 62.7-166 101c-.6.4-.9 1.2-.5 1.9.3.4.7.7 1.2.7.2 0 .5-.1.7-.2l167.4-101.9 121 67.4-166.1 101.1c-.6.4-.9 1.2-.5 1.9.3.4.7.7 1.2.7.2 0 .5-.1.7-.2l167.5-101.9 125.7 70.1c.2.1.4.2.7.2.5 0 1-.3 1.2-.7.3-.8.1-1.6-.6-2z"/><path class="st6" d="M910.1 650.7c6.9 2.4 6.3 6.3-1.3 8.7-7.7 2.4-19.5 2.5-26.4.1-6.9-2.4-6.3-6.3 1.3-8.7 7.6-2.4 19.5-2.5 26.4-.1z"/><path class="st7" d="M923.4 636.8c-.6 13-9.3 20.7-19.5 17.2s-18-16.9-17.4-29.8 9.3-20.7 19.5-17.2c10.1 3.5 17.9 16.9 17.4 29.8z"/><path class="st8" d="M920 637.5c-.6 13-9.3 20.7-19.5 17.2s-18-16.9-17.4-29.8 9.3-20.7 19.5-17.2 18 16.9 17.4 29.8z"/><path class="st9" d="M904.9 653.2c-1.5 0-3-.3-4.5-.8-9.2-3.2-16.3-15.2-15.8-26.9.3-6.4 2.8-11.6 6.8-14.4 3.2-2.2 7.1-2.6 11.1-1.3 9.2 3.2 16.3 15.2 15.8 26.9-.3 6.4-2.8 11.6-6.8 14.4-1.9 1.5-4.2 2.1-6.6 2.1zm-6.7-42.8c-2.1 0-4.1.6-5.9 1.8-3.7 2.5-6 7.4-6.3 13.4-.5 11.1 6.2 22.6 14.9 25.6 3.6 1.2 7.1.9 10-1.1 3.7-2.5 6-7.4 6.3-13.4.5-11.1-6.2-22.6-14.9-25.6-1.4-.5-2.8-.7-4.1-.7z"/><path class="st1" d="M894.8 632.5l-4.6-7.7 9.9-8.8 4.7 8-1.2.8-3.8-6.5-7.7 6.8 3.9 6.7zM894.894 621.385l1.209-.707 2.423 4.144-1.209.707zM902.5 645.7l-4.7-8 1.2-.7 3.8 6.5 7.7-6.8-3.9-6.8 1.2-.7 4.6 7.8zM903.981 636.873l1.209-.707 2.423 4.144-1.209.707zM907.4 636.7l-.9-1.1 4.2-3.8-7.1-12.2-4.1 3.6-1-1.1 5.4-4.8 8.7 14.8zM904.54 627.089l2.7-2.381.926 1.05-2.7 2.381zM898.6 644.4l-8.6-14.8 5.2-4.5.9 1-4.3 3.8 7.2 12.3 4.1-3.6.9 1.1zM894.416 635.983l2.7-2.381.926 1.05-2.7 2.381zM900.9 636.8l-4.3-7.4 5.1-4.5 4.3 7.4-5.1 4.5zm-2.5-7.1l2.9 4.9 2.9-2.6-2.9-4.9-2.9 2.6z"/><path class="st6" d="M1029.6 718.8c6.9 2.4 6.3 6.3-1.3 8.7s-19.5 2.5-26.4.1c-6.9-2.4-6.3-6.3 1.3-8.7 7.6-2.4 19.5-2.5 26.4-.1z"/><path class="st7" d="M1042.9 704.9c-.6 13-9.3 20.7-19.5 17.2s-18-16.9-17.4-29.8 9.3-20.7 19.5-17.2c10.1 3.5 17.9 16.9 17.4 29.8z"/><path class="st8" d="M1039.5 705.6c-.6 13-9.3 20.7-19.5 17.2s-18-16.9-17.4-29.8c.6-13 9.3-20.7 19.5-17.2s18 16.9 17.4 29.8z"/><path class="st9" d="M1024.4 721.3c-1.5 0-3-.3-4.5-.8-9.2-3.2-16.3-15.2-15.8-26.9.3-6.4 2.8-11.6 6.8-14.4 3.2-2.2 7.1-2.6 11.1-1.3 9.2 3.2 16.3 15.2 15.8 26.9-.3 6.4-2.8 11.6-6.8 14.4-1.9 1.5-4.2 2.1-6.6 2.1zm-6.7-42.8c-2.1 0-4.1.6-5.9 1.8-3.7 2.5-6 7.4-6.3 13.4-.5 11.1 6.2 22.6 14.9 25.6 3.6 1.2 7.1.9 10-1.1 3.7-2.5 6-7.4 6.3-13.4.5-11.1-6.2-22.6-14.9-25.6-1.4-.5-2.8-.7-4.1-.7z"/><path class="st1" d="M1014.3 700.6l-4.6-7.7 9.9-8.8 4.7 8-1.2.8-3.8-6.5-7.7 6.8 3.9 6.7zM1014.435 689.545l1.209-.706 2.422 4.144-1.209.706zM1022 713.8l-4.7-8 1.2-.7 3.8 6.5 7.7-6.8-3.9-6.8 1.2-.7 4.6 7.8zM1023.474 705.078l1.209-.707 2.423 4.144-1.209.707zM1026.9 704.8l-.9-1.1 4.2-3.8-7.1-12.2-4.1 3.6-1-1.1 5.4-4.8 8.7 14.8zM1023.996 695.182l2.701-2.38.926 1.05-2.701 2.38zM1018.1 712.5l-8.6-14.8 5.2-4.5.9 1-4.2 3.8 7.1 12.3 4.1-3.6.9 1.1zM1013.8 704.117l2.699-2.382.927 1.049-2.699 2.382zM1020.4 704.9l-4.3-7.4 5.1-4.5 4.3 7.4-5.1 4.5zm-2.5-7.1l2.9 4.9 2.9-2.6-2.9-4.9-2.9 2.6z"/><path class="st6" d="M1147 786.7c6.9 2.4 6.3 6.3-1.3 8.7-7.7 2.4-19.5 2.5-26.4.1-6.9-2.4-6.3-6.3 1.3-8.7 7.6-2.4 19.5-2.5 26.4-.1z"/><path class="st7" d="M1160.3 772.8c-.6 13-9.3 20.7-19.5 17.2s-18-16.9-17.4-29.8c.6-13 9.3-20.7 19.5-17.2 10.1 3.5 17.9 16.9 17.4 29.8z"/><path class="st8" d="M1156.9 773.5c-.6 13-9.3 20.7-19.5 17.2s-18-16.9-17.4-29.8c.6-13 9.3-20.7 19.5-17.2s18 16.8 17.4 29.8z"/><path class="st9" d="M1141.8 789.2c-1.5 0-3-.3-4.5-.8-9.2-3.2-16.3-15.2-15.8-26.9.3-6.4 2.8-11.6 6.8-14.4 3.2-2.2 7.1-2.6 11.1-1.3 9.2 3.2 16.3 15.2 15.8 26.9-.3 6.4-2.8 11.6-6.8 14.4-1.9 1.4-4.2 2.1-6.6 2.1zm-6.7-42.8c-2.1 0-4.1.6-5.9 1.8-3.7 2.5-6 7.4-6.3 13.4-.5 11.1 6.2 22.6 14.9 25.6 3.6 1.2 7.1.9 10-1.1 3.7-2.5 6-7.4 6.3-13.4.5-11.1-6.2-22.6-14.9-25.6-1.4-.5-2.8-.7-4.1-.7z"/><path class="st1" d="M1131.7 768.5l-4.6-7.7 9.9-8.8 4.7 8-1.2.8-3.8-6.5-7.7 6.8 3.9 6.7zM1131.794 757.501l1.209-.707 2.423 4.144-1.209.707zM1139.4 781.7l-4.7-8 1.2-.7 3.8 6.5 7.7-6.8-3.9-6.8 1.2-.7 4.6 7.8zM1140.934 772.942l1.209-.706 2.422 4.144-1.209.706zM1144.3 772.7l-.9-1.1 4.3-3.8-7.2-12.2-4.1 3.6-.9-1.1 5.4-4.8 8.6 14.8zM1141.401 763.065l2.699-2.382.927 1.049-2.699 2.382zM1135.6 780.4l-8.7-14.8 5.2-4.6 1 1.1-4.3 3.8 7.1 12.3 4.1-3.6 1 1zM1131.201 772.025l2.699-2.382.927 1.049-2.699 2.382zM1137.8 772.8l-4.3-7.4 5.1-4.5 4.3 7.4-5.1 4.5zm-2.5-7.1l2.9 4.9 2.9-2.6-2.9-4.9-2.9 2.6zM1241.3 940.2c-.2 0-.5-.1-.7-.2l-492.9-274.7c-.7-.4-.9-1.2-.5-1.9s1.2-.9 1.9-.5l492.9 274.8c.7.4.9 1.2.5 1.9-.3.4-.7.6-1.2.6z"/><path class="st44" d="M1210.9 964.4M1379.1 862.1"/><path class="st1" d="M748.4 665.5c-.5 0-.9-.2-1.2-.7-.4-.6-.2-1.5.5-1.9l168.1-102.3c.6-.4 1.5-.2 1.9.5.4.6.2 1.5-.5 1.9l-168.1 102.3c-.2.1-.5.2-.7.2zM1406.7 866.6"/><path class="st3" d="M1410 864.6c10.8-13.9-.6-28.1-.6-28.1l-168.1 102.3s11.4 14.2.6 28.1l168.1-102.3z"/><path class="st1" d="M1241.8 968.3c-.4 0-.8-.2-1-.5-.4-.5-.5-1.2-.1-1.8 10-12.9-.1-25.9-.6-26.4-.2-.3-.3-.7-.3-1.1.1-.4.3-.7.6-.9l168.1-102.3c.6-.4 1.4-.2 1.8.3.1.2 11.9 15.2.6 29.8-.1.1-.2.2-.4.3l-168.1 102.3c-.1.3-.3.3-.6.3zm1.4-29.1c2.2 3.4 7.4 13.2 2.7 23.6l163.1-99.3c8.2-10.8 2.2-21.9 0-25.2l-165.8 100.9zm166.8-74.6z"/><g class="st45"><linearGradient id="SVGID_16_" gradientUnits="userSpaceOnUse" x1="913.27" y1="-88.822" x2="971.511" y2="-88.822" gradientTransform="matrix(-.486 .874 -.874 -.486 2207.647 35.296)"><stop offset="0" stop-color="#D5B865"/><stop offset=".058" stop-color="#D8BC6F" stop-opacity=".876"/><stop offset=".154" stop-color="#DFC889" stop-opacity=".668"/><stop offset=".278" stop-color="#EADCB3" stop-opacity=".402"/><stop offset=".422" stop-color="#FAF6ED" stop-opacity=".091"/><stop offset=".465" stop-color="#fff" stop-opacity="0"/><stop offset=".536" stop-color="#FEFDFA" stop-opacity=".134"/><stop offset=".626" stop-color="#F9F5EA" stop-opacity=".301"/><stop offset=".725" stop-color="#F2EAD1" stop-opacity=".487"/><stop offset=".832" stop-color="#E9D9AD" stop-opacity=".686"/><stop offset=".943" stop-color="#DCC47F" stop-opacity=".893"/><stop offset="1" stop-color="#D5B865"/></linearGradient><path class="st46" d="M2222.1 1093l-747.2-415.3c-.5-3.3-1.8-5.8-4-7-6.5-3.6-18.1 4.9-25.9 18.9-7.8 14.1-8.9 28.4-2.4 32 2.2 1.2 5 1.1 8-.2l668.7 371.6"/></g><g class="st47"><linearGradient id="SVGID_17_" gradientUnits="userSpaceOnUse" x1="702.265" y1="-339.387" x2="1153.906" y2="180.167" gradientTransform="matrix(-.486 .874 -.874 -.486 2207.647 35.296)"><stop offset="0" stop-color="#fff" stop-opacity="0"/><stop offset="1" stop-color="#D5B865"/></linearGradient><path class="st48" d="M2222.1 1093l-747.2-415.3c-.5-3.3-1.8-5.8-4-7-6.5-3.6-18.1 4.9-25.9 18.9-7.8 14.1-8.9 28.4-2.4 32 2.2 1.2 5 1.1 8-.2l668.7 371.6"/></g><g class="st49"><linearGradient id="SVGID_18_" gradientUnits="userSpaceOnUse" x1="913.27" y1="-88.822" x2="971.511" y2="-88.822" gradientTransform="matrix(-.486 .874 -.874 -.486 2207.647 35.296)"><stop offset="0" stop-color="#D5B865" stop-opacity=".4"/><stop offset=".088" stop-color="#DFC98B" stop-opacity=".327"/><stop offset=".217" stop-color="#EDE0BD" stop-opacity=".22"/><stop offset=".331" stop-color="#F7F1E1" stop-opacity=".125"/><stop offset=".423" stop-color="#FDFBF7" stop-opacity=".049"/><stop offset=".482" stop-color="#fff" stop-opacity="0"/><stop offset=".555" stop-color="#FEFDFA" stop-opacity=".042"/><stop offset=".64" stop-color="#FAF6EC" stop-opacity=".092"/><stop offset=".731" stop-color="#F3EBD4" stop-opacity=".144"/><stop offset=".827" stop-color="#EADCB4" stop-opacity=".2"/><stop offset=".925" stop-color="#DFC98A" stop-opacity=".257"/><stop offset="1" stop-color="#D5B865" stop-opacity=".3"/></linearGradient><path class="st50" d="M2222.1 1093l-747.2-415.3c-.5-3.3-1.8-5.8-4-7-6.5-3.6-18.1 4.9-25.9 18.9-7.8 14.1-8.9 28.4-2.4 32 2.2 1.2 5 1.1 8-.2l668.7 371.6"/></g><path class="st51" d="M1450.7 722c-.1 0-.2 0-.4-.1-3-1.6-4.4-5.6-4-11 .4-5.3 2.4-11.4 5.7-17.3 3.3-5.9 7.4-10.9 11.7-14 4.4-3.2 8.5-4.1 11.5-2.5.4.2.5.7.3 1-.2.4-.7.5-1 .3-2.4-1.3-5.9-.5-9.9 2.4-4.1 3-8.1 7.8-11.3 13.5s-5.1 11.7-5.5 16.7c-.4 4.9.8 8.3 3.2 9.6.4.2.5.7.3 1-.1.2-.3.4-.6.4zM2117.7 1093l-667.2-370.8c-3.2 1.3-6 1.3-8.3.1-3.4-1.9-5-6.4-4.6-12.8.5-6.1 2.8-13.3 6.7-20.2s8.7-12.7 13.7-16.3c5.1-3.8 9.8-4.8 13.3-2.9 2.3 1.3 3.8 3.7 4.4 7.2l748.1 415.8h-3.1l-746.1-414.7c-.2-.1-.3-.3-.4-.5-.5-3.2-1.7-5.4-3.7-6.5-2.9-1.6-7-.6-11.6 2.8-4.8 3.5-9.5 9.1-13.2 15.8-3.7 6.7-6 13.7-6.5 19.6-.4 5.7.9 9.8 3.8 11.4 1.9 1.1 4.4 1 7.3-.3.2-.1.5-.1.7 0l669.9 372.3h-3.2z"/><path class="st53" d="M1564.9 778c-.5 0-1-.1-1.5-.4l-40-22.2c-1.4-.8-2-2.6-1.2-4.1.8-1.4 2.6-2 4.1-1.2l40 22.2c1.4.8 2 2.6 1.2 4.1-.5 1.1-1.6 1.6-2.6 1.6zM1515.1 750.3c-.5 0-1-.1-1.5-.4l-15.7-8.7c-1.4-.8-2-2.6-1.2-4.1.8-1.4 2.6-2 4.1-1.2l15.7 8.7c1.4.8 2 2.6 1.2 4.1-.5 1.1-1.6 1.6-2.6 1.6zM2000.8 1020.3c-.5 0-1-.1-1.5-.4l-40-22.2c-1.4-.8-2-2.6-1.2-4.1.8-1.4 2.6-2 4.1-1.2l40 22.2c1.4.8 2 2.6 1.2 4.1-.6 1-1.6 1.6-2.6 1.6zM1951 992.6c-.5 0-1-.1-1.5-.4l-15.7-8.7c-1.4-.8-2-2.6-1.2-4.1.8-1.4 2.6-2 4.1-1.2l15.7 8.7c1.4.8 2 2.6 1.2 4.1-.6 1-1.6 1.6-2.6 1.6z"/><path class="st2" d="M1577.4 1051l-68.6 42h-213.8l-12.1-10.1 168.1-102.3z"/><linearGradient id="SVGID_19_" gradientUnits="userSpaceOnUse" x1="1410.101" y1="988.457" x2="1454.222" y2="990.77"><stop offset=".289" stop-color="#1A2147"/><stop offset=".451" stop-color="#1A264B"/><stop offset="1" stop-color="#1B3657"/></linearGradient><path class="st54" d="M1414.4 1066.3v-160.2h35.8v160.6-.3c0 4.3-8 7.7-17.9 7.7s-17.9-3.5-17.9-7.8"/><path class="st1" d="M1432.3 1075.4c-11 0-19.3-3.9-19.3-9.1v-160.2c0-.8.6-1.4 1.4-1.4h35.8c.8 0 1.4.6 1.4 1.4v161c-.7 4.8-8.8 8.3-19.3 8.3zm-16.5-168v158.9c0 3 6.8 6.3 16.5 6.3s16.5-3.3 16.5-6.3v-158.9h-33z"/><path class="st3" d="M1569 850.3l-167.7 102.6-126.8-70.7 168.1-102.3z"/><linearGradient id="SVGID_20_" gradientUnits="userSpaceOnUse" x1="1401.269" y1="916.913" x2="1569.02" y2="916.913"><stop offset="0" stop-color="#134071"/><stop offset="1" stop-color="#25527F"/></linearGradient><path class="st55" d="M1569 880.9l-167.7 102.6v-30.6l167.7-102.6z"/><linearGradient id="SVGID_21_" gradientUnits="userSpaceOnUse" x1="1266.61" y1="916.408" x2="1409.159" y2="949.318"><stop offset="0" stop-color="#134071"/><stop offset="1" stop-color="#25527F"/></linearGradient><path class="st56" d="M1401.3 983.5l-126.8-70.7v-30.6l126.8 70.7z"/><path class="st44" d="M1516.5 848.1M1390.1 777.7"/><path class="st1" d="M1570.4 850.2v-.1c0-.2-.1-.3-.2-.5l-.3-.3-.1-.1s-.1 0-.1-.1l-126.4-70.4c-.4-.2-1-.2-1.4 0l-168.1 102.3-.3.3s0 .1-.1.1c-.1.1-.2.3-.2.4v31c0 .5.3 1 .7 1.2l126.8 70.6.3.1h.9c.1 0 .2-.1.2-.1l167.8-102.5c.4-.2.7-.7.7-1.2v-30.6c-.2 0-.2-.1-.2-.1zm-127.7-68.7l123.6 68.9-165.1 100.9-124-69.1 165.5-100.7zm-42.8 199.7l-124-69.1v-27.5l124 69.1v27.5zm2.7-.2v-27.4l165-100.9v27.4l-165 100.9zM1450.2 862.9"/><path class="st6" d="M1433.4 864.5c6.9 2.4 6.3 6.3-1.3 8.7-7.7 2.4-19.5 2.5-26.4.1-6.9-2.4-6.3-6.3 1.3-8.7 7.6-2.4 19.4-2.5 26.4-.1z"/><path class="st7" d="M1446.7 850.6c-.6 13-9.3 20.7-19.5 17.2s-18-16.9-17.4-29.8c.6-13 9.3-20.7 19.5-17.2s17.9 16.9 17.4 29.8z"/><path class="st8" d="M1443.3 851.3c-.6 13-9.3 20.7-19.5 17.2s-18-16.9-17.4-29.8c.6-13 9.3-20.7 19.5-17.2s17.9 16.9 17.4 29.8z"/><path class="st9" d="M1428.2 867c-1.5 0-3-.3-4.5-.8-9.2-3.2-16.3-15.2-15.8-26.9.3-6.4 2.8-11.6 6.8-14.4 3.2-2.2 7.1-2.6 11.1-1.3 9.2 3.2 16.3 15.2 15.8 26.9-.3 6.4-2.8 11.6-6.8 14.4-1.9 1.5-4.2 2.1-6.6 2.1zm-6.8-42.8c-2.1 0-4.1.6-5.9 1.8-3.7 2.5-6 7.4-6.3 13.4-.5 11.1 6.2 22.6 14.9 25.6 3.6 1.2 7.1.9 10-1.1 3.7-2.5 6-7.4 6.3-13.4.5-11.1-6.2-22.6-14.9-25.6-1.4-.4-2.7-.7-4.1-.7z"/><path class="st1" d="M1418 846.4l-4.5-7.8 9.9-8.8 4.7 8-1.2.8-3.9-6.5-7.7 6.8 4 6.7zM1418.188 835.186l1.209-.707 2.423 4.144-1.209.707zM1425.7 859.5l-4.6-8 1.2-.7 3.8 6.5 7.7-6.8-3.9-6.8 1.2-.7 4.6 7.8zM1427.215 850.737l1.208-.707 2.423 4.143-1.208.707zM1430.7 850.5l-1-1.1 4.3-3.8-7.1-12.2-4.1 3.6-1-1.1 5.4-4.8 8.7 14.8zM1427.784 840.863l2.701-2.38.926 1.05-2.701 2.38zM1421.9 858.2l-8.6-14.8 5.2-4.5.9 1-4.3 3.8 7.2 12.3 4.1-3.6.9 1.1zM1417.568 849.819l2.699-2.382.927 1.049-2.699 2.382zM1424.2 850.6l-4.3-7.4 5.1-4.5 4.3 7.4-5.1 4.5zm-2.5-7.1l2.9 4.9 2.9-2.6-2.9-4.9-2.9 2.6z"/><path class="st57" d="M1170 991.9l-9.5 4.6v-95.2l9.5-5.9z"/><path class="st58" d="M1170 991.9l-9.5 4.6v-95.2l9.5-5.9z"/><path class="st57" d="M1160.5 901.3l-108.4-60.4 11-6.7 106.9 61.2zM1052.1 840.9v95.2l108.3 60.4v-95.2l-108.3-60.4z"/><path class="st1" d="M1171.3 992.5s0-.1.1-.1v-97c0-.2-.1-.3-.2-.4l-.3-.3s-.1 0-.1-.1l-.1-.1-106.9-61.5c-.1 0-.1 0-.2-.1l-.3-.1h-.6l-.3.1c-.1 0-.1 0-.2.1l-11 6.7-.1.1c-.1.1-.2.1-.2.2l-.1.2-.1.1c-.1.2-.2.5-.2.7v95.2c0 .5.3 1 .7 1.2l51.9 28.9v113.5h2.8v-112l53.7 29.9.2.1h.1c.1 0 .2.1.4.1h.4c.1 0 .1 0 .2-.1l9.6-4.6h.1l.1-.1.1-.1.1-.1.1-.1.1-.1c.1-.2.1-.2.2-.2zm-108.2-156.7l104.2 59.7-6.9 4.2-105.6-58.9 8.3-5zm98.7 66.2l6.8-4.2v93.2l-6.8 3.3v-92.3zm-2.7 92.2l-105.6-58.9v-92.1l105.6 58.9v92.1z"/><path class="st59" d="M1066.3 915.5l-.4-17.6 4.9 2.7c2.8 1.5 4.1 5.2 4.1 8.1.1 2.5-.8 4.4-2.7 4.1l3 7.7-3.3-1.8-2.6-7.3-.3-.1.1 5.9-2.8-1.7zm2.6-12.3l.1 4.3 1.9 1c.9.5 1.3-.4 1.2-1.5 0-1-.4-2.3-1.3-2.9l-1.9-.9zM1085 921.1l-5.7-3.2c.1 1.2 1 2.3 1.9 2.8.4.2 1.1.4 1.5-.2.3.6 1.5 2.3 1.9 3.1-.8 1.2-2.3.9-3.6.2-2.3-1.3-4.3-4.9-4.4-8.6-.1-3.8 1.8-5.1 4.1-3.8 2.3 1.3 4.2 4.6 4.3 8.4.1.3 0 1 0 1.3zm-2.5-3.7c-.3-1.7-1.2-2.4-1.6-2.6s-1.4-.5-1.6.9l3.2 1.7zM1094.8 928.6c-.7 1.3-1.9 1.8-3.5 1-2.4-1.3-4.5-4.9-4.5-8.7-.1-3.8 1.9-5.1 4.3-3.8 1.5.9 2.7 2.7 3.6 4.9l-2.2.8c-.3-.9-.8-1.6-1.4-2-.9-.5-1.6.2-1.6 1.6 0 1.4.8 2.9 1.7 3.4.6.3 1 .2 1.3-.3l2.3 3.1zM1104.7 932l-5.7-3.2c.1 1.2 1 2.3 1.9 2.8.4.2 1.1.4 1.5-.2.3.6 1.5 2.3 1.9 3.1-.8 1.2-2.3.9-3.6.2-2.3-1.3-4.3-4.9-4.4-8.6-.1-3.8 1.8-5.1 4.1-3.8 2.3 1.3 4.2 4.6 4.3 8.4v1.3zm-2.6-3.7c-.3-1.7-1.2-2.4-1.6-2.6-.4-.2-1.4-.5-1.6.9l3.2 1.7zM1107.9 920.6c.9.5 1.6 1.9 1.7 3.2 0 1.3-.7 1.9-1.6 1.4-.9-.5-1.7-2-1.7-3.2 0-1.3.7-1.9 1.6-1.4zm-.9 17.4l2.7 1.5-.2-11.9-2.7-1.5.2 11.9zM1114.7 942.4l-3.6-13.8 2.9 1.6 1.8 7.7 1.5-5.9 2.9 1.6-3.1 10-2.4-1.2zM1123.1 929c.9.5 1.6 1.9 1.7 3.2 0 1.3-.7 1.9-1.6 1.4-.9-.5-1.7-2-1.7-3.2 0-1.3.7-1.9 1.6-1.4zm-1 17.5l2.7 1.5-.2-11.9-2.7-1.5.2 11.9zM1130.3 951l-2.7-1.5-.2-11.9 2.7 1.5v1.9c.2-1.4 1.5-1.3 2.2-.9 2.1 1.2 3.2 3.9 3.3 7.6l.1 6.3-2.7-1.5-.1-6.2c0-1.6-.8-2.5-1.3-2.8-.6-.3-1.4-.3-1.4 1.2l.1 6.3zM1140.3 957.3c.3 1.1 1 2.1 1.8 2.6 1.3.7 2.1-.1 2-2.7-.4.8-1.2 1-2.4.4-2-1.1-3.9-4.5-4-8.4-.1-3.9 1.8-5.2 3.7-4.1.8.4 1.7 1.5 2.2 2.8v-1.3l2.7 1.5.2 10.4c.1 5-1.5 6.6-4.4 5-1.9-1-3.5-3.5-4.1-6.2h2.3zm1.9-3.1c.9.5 1.6-.2 1.6-1.6 0-1.4-.8-2.9-1.7-3.4s-1.6.2-1.6 1.6c0 1.3.8 2.9 1.7 3.4zM1112.8 904.1c-.5 0-1-.3-1.3-.7l-5.2-8.9-3.4 3c-.6.5-1.5.5-2.1-.1-.5-.6-.5-1.5.1-2.1l4.7-4.1c.3-.3.8-.4 1.2-.3.4.1.8.3 1 .7l6.1 10.4c.4.7.2 1.6-.5 2-.1.1-.4.1-.6.1zM1106.7 908.7c-.8 0-1.5-.7-1.5-1.5v-12.8c0-.8.7-1.5 1.5-1.5s1.5.7 1.5 1.5v12.8c-.1.8-.7 1.5-1.5 1.5z"/></svg>