<?xml version="1.0" encoding="utf-8"?>
<!-- Generator: Adobe Illustrator 21.1.0, SVG Export Plug-In . SVG Version: 6.00 Build 0)  -->
<svg version="1.1" id="Layer_1" xmlns="http://www.w3.org/2000/svg" xmlns:xlink="http://www.w3.org/1999/xlink" x="0px" y="0px"
	 viewBox="0 0 92.4 97.7" style="enable-background:new 0 0 92.4 97.7;" xml:space="preserve">
<style type="text/css">
	.st0{fill:#1B3657;}
	.st1{fill:url(#SVGID_1_);}
	.st2{fill:none;stroke:#1A2147;stroke-width:2;stroke-linecap:round;stroke-linejoin:round;stroke-miterlimit:10;}
	.st3{fill:url(#SVGID_2_);}
	.st4{fill:#1A2147;}
	.st5{fill:#091235;enable-background:new    ;}
	.st6{fill:#113562;}
</style>
<g>
	<polygon class="st0" points="91.7,27 48.6,53.3 0.7,26.9 44,0.7 	"/>
	
		<linearGradient id="SVGID_1_" gradientUnits="userSpaceOnUse" x1="-5.7596" y1="45.1206" x2="55.0596" y2="31.0794" gradientTransform="matrix(1 0 0 -1 0 100)">
		<stop  offset="0" style="stop-color:#134071"/>
		<stop  offset="1" style="stop-color:#25527F"/>
	</linearGradient>
	<polygon class="st1" points="48.6,96.9 0.7,70.2 0.7,26.9 48.6,53.3 	"/>
	<path class="st2" d="M31.4,43.8"/>
	<path class="st2" d="M72.2,19.1"/>
	<path class="st2" d="M89.3,28.5"/>
	<path class="st2" d="M72.2,19.1"/>
	
		<linearGradient id="SVGID_2_" gradientUnits="userSpaceOnUse" x1="48.6" y1="38.05" x2="91.758" y2="38.05" gradientTransform="matrix(1 0 0 -1 0 100)">
		<stop  offset="0" style="stop-color:#134071"/>
		<stop  offset="1" style="stop-color:#25527F"/>
	</linearGradient>
	<polygon class="st3" points="48.6,96.9 48.6,53.3 91.7,27 91.7,70.5 	"/>
	<path class="st4" d="M48.6,54.1c-0.2,0-0.5-0.1-0.6-0.3c-0.2-0.3-0.1-0.8,0.2-1l43.2-26.3c0.3-0.2,0.8-0.1,1,0.2
		c0.2,0.3,0.1,0.8-0.2,1L48.9,54C48.8,54,48.7,54.1,48.6,54.1z"/>
	<path class="st4" d="M91.7,71.3c-0.4,0-0.7-0.3-0.7-0.7V27.5L43.7,1.3c-0.3-0.2-0.5-0.6-0.3-1C43.6,0,44-0.2,44.4,0l47.7,26.3
		c0.2,0.1,0.4,0.4,0.4,0.6v43.5C92.4,70.9,92.1,71.3,91.7,71.3z"/>
	<path class="st4" d="M48.6,97.7c-0.1,0-0.2,0-0.3-0.1L0.4,70.9c-0.3-0.2-0.5-0.6-0.3-1c0.2-0.3,0.6-0.5,1-0.3l47.5,26.5l42.8-26.2
		c0.3-0.2,0.8-0.1,1,0.2c0.2,0.3,0.1,0.8-0.2,1L48.9,97.6C48.8,97.6,48.7,97.7,48.6,97.7z"/>
	<path class="st4" d="M48.6,97.7c-0.4,0-0.7-0.3-0.7-0.7V53.6L0.4,27.5c-0.3-0.2-0.5-0.6-0.3-1c0.2-0.3,0.6-0.5,1-0.3L49,52.5
		c0.2,0.1,0.4,0.4,0.4,0.6V97C49.3,97.4,48.9,97.7,48.6,97.7z"/>
	<path class="st4" d="M0.7,71C0.3,71,0,70.7,0,70.3V26.8c0-0.2,0.1-0.5,0.3-0.6L43.7,0.1c0.3-0.2,0.8-0.1,1,0.2s0.1,0.8-0.2,1
		l-43,25.9v43.1C1.4,70.7,1.1,71,0.7,71z"/>
</g>
<polygon class="st5" points="59,39.8 22.7,19.5 31.5,14.2 67.8,34.4 "/>
<g>
	<path class="st6" d="M19.2,47.9c-0.4,0.7-1.1,0.9-1.9,0.5c-1.3-0.7-2.3-2.8-2.4-4.7c0-1.9,1-2.9,2.2-2.2c0.8,0.4,1.5,1.5,2,2.6
		c0.1,0-0.9,0.4-0.9,0.4c-0.2-0.6-0.6-1.2-1-1.4c-0.7-0.4-1.2,0.2-1.2,1.2s0.6,2.1,1.2,2.5c0.4,0.2,0.8,0.1,1-0.3L19.2,47.9z"/>
	<path class="st6" d="M19.9,47.4c0-1.5,0.7-2,1.6-1.5s1.7,1.9,1.7,3.3c0,1.4-0.7,2-1.6,1.5S19.9,48.9,19.9,47.4z M21.5,49.3
		c0.3,0.2,0.6-0.1,0.6-0.6s-0.3-1.1-0.7-1.3s-0.6,0.1-0.6,0.6S21.1,49.1,21.5,49.3z"/>
	<path class="st6" d="M24.8,52.5l-1.4-5.3l1.1,0.6l0.7,2.9l0.6-2.3l1.1,0.6l-1.2,4L24.8,52.5z"/>
	<path class="st6" d="M29.7,50.6l1,0.6l0.1,4.6l-1-0.6v-0.5C29.6,55,29.3,55,29,54.8c-0.8-0.4-1.5-1.7-1.5-3.2s0.7-2,1.4-1.6
		c0.3,0.2,0.7,0.6,0.9,1.1L29.7,50.6z M29.1,53.5c0.3,0.2,0.6-0.1,0.6-0.6s-0.3-1.1-0.7-1.3c-0.3-0.2-0.6,0.1-0.6,0.6
		C28.5,52.7,28.8,53.3,29.1,53.5z"/>
	<path class="st6" d="M31.7,49.4l1,0.6l0.1,7l-1-0.6L31.7,49.4z"/>
</g>
</svg>
