<!-- Generator: Adobe Illustrator 21.1.0, SVG Export Plug-In  -->
<svg version="1.1"
	 xmlns="http://www.w3.org/2000/svg" xmlns:xlink="http://www.w3.org/1999/xlink" xmlns:a="http://ns.adobe.com/AdobeSVGViewerExtensions/3.0/"
	 x="0px" y="0px" width="27.6px" height="189.7px" viewBox="0 0 27.6 189.7" style="enable-background:new 0 0 27.6 189.7;"
	 xml:space="preserve">
<style type="text/css">
	.st0{opacity:0.27;fill:url(#SVGID_1_);}
	.st1{opacity:0.2;fill:url(#SVGID_2_);}
	.st2{opacity:0.86;fill:url(#SVGID_3_);}
	.st3{fill:#E5D8BA;}
	.st4{opacity:0.88;}
	.st5{opacity:0.27;fill:#FFFFFF;}
	.st6{opacity:0.27;fill:url(#SVGID_4_);}
	.st7{opacity:0.2;fill:url(#SVGID_5_);}
	.st8{opacity:0.86;fill:url(#SVGID_6_);}
</style>
<defs>
</defs>
<linearGradient id="SVGID_1_" gradientUnits="userSpaceOnUse" x1="0.3465" y1="94.6802" x2="27.2622" y2="94.6802">
	<stop  offset="0" style="stop-color:#D5B865"/>
	<stop  offset="5.762811e-02" style="stop-color:#D8BC6F;stop-opacity:0.876"/>
	<stop  offset="0.1542" style="stop-color:#DFC889;stop-opacity:0.6682"/>
	<stop  offset="0.2778" style="stop-color:#EADCB3;stop-opacity:0.4023"/>
	<stop  offset="0.4222" style="stop-color:#FAF6ED;stop-opacity:9.144038e-02"/>
	<stop  offset="0.4647" style="stop-color:#FFFFFF;stop-opacity:0"/>
	<stop  offset="0.5363" style="stop-color:#FEFDFA;stop-opacity:0.1337"/>
	<stop  offset="0.626" style="stop-color:#F9F5EA;stop-opacity:0.3013"/>
	<stop  offset="0.7254" style="stop-color:#F2EAD1;stop-opacity:0.487"/>
	<stop  offset="0.8318" style="stop-color:#E9D9AD;stop-opacity:0.6858"/>
	<stop  offset="0.9426" style="stop-color:#DCC47F;stop-opacity:0.8928"/>
	<stop  offset="1" style="stop-color:#D5B865"/>
</linearGradient>
<path class="st0" d="M2.3,0v179.9c-1.2,0.9-1.9,2-1.9,3.2c0,3.4,6,6.2,13.5,6.2s13.5-2.8,13.5-6.2c0-1.2-0.7-2.2-1.9-3.2V0"/>
<linearGradient id="SVGID_2_" gradientUnits="userSpaceOnUse" x1="0.3465" y1="94.6802" x2="27.2622" y2="94.6802">
	<stop  offset="1.653439e-04" style="stop-color:#FFFFFF;stop-opacity:0"/>
	<stop  offset="1" style="stop-color:#D5B865"/>
</linearGradient>
<path class="st1" d="M2.3,0v179.9c-1.2,0.9-1.9,2-1.9,3.2c0,3.4,6,6.2,13.5,6.2s13.5-2.8,13.5-6.2c0-1.2-0.7-2.2-1.9-3.2V0"/>
<linearGradient id="SVGID_3_" gradientUnits="userSpaceOnUse" x1="0.3465" y1="94.6802" x2="27.2622" y2="94.6802">
	<stop  offset="0" style="stop-color:#D5B865;stop-opacity:0.4"/>
	<stop  offset="8.782912e-02" style="stop-color:#DFC98B;stop-opacity:0.3271"/>
	<stop  offset="0.2172" style="stop-color:#EDE0BD;stop-opacity:0.2196"/>
	<stop  offset="0.3307" style="stop-color:#F7F1E1;stop-opacity:0.1254"/>
	<stop  offset="0.4226" style="stop-color:#FDFBF7;stop-opacity:4.897785e-02"/>
	<stop  offset="0.4816" style="stop-color:#FFFFFF;stop-opacity:0"/>
	<stop  offset="0.5546" style="stop-color:#FEFDFA;stop-opacity:4.226557e-02"/>
	<stop  offset="0.64" style="stop-color:#FAF6EC;stop-opacity:9.163190e-02"/>
	<stop  offset="0.7314" style="stop-color:#F3EBD4;stop-opacity:0.1445"/>
	<stop  offset="0.8271" style="stop-color:#EADCB4;stop-opacity:0.2"/>
	<stop  offset="0.9252" style="stop-color:#DFC98A;stop-opacity:0.2567"/>
	<stop  offset="1" style="stop-color:#D5B865;stop-opacity:0.3"/>
</linearGradient>
<path class="st2" d="M2.3,0v179.9c-1.2,0.9-1.9,2-1.9,3.2c0,3.4,6,6.2,13.5,6.2s13.5-2.8,13.5-6.2c0-1.2-0.7-2.2-1.9-3.2V0"/>
<path class="st3" d="M13.8,185.6c-6.6,0-11.8-2.5-11.8-5.6c0-0.2,0.1-0.3,0.3-0.3s0.3,0.1,0.3,0.3c0,2.7,5.1,5,11.2,5
	s11.2-2.3,11.2-5c0-0.2,0.1-0.3,0.3-0.3c0.2,0,0.3,0.1,0.3,0.3C25.6,183.1,20.4,185.6,13.8,185.6z"/>
<g class="st4">
	<path class="st3" d="M13.8,189.7c-7.7,0-13.8-2.9-13.8-6.6c0-1.2,0.7-2.4,1.9-3.4V0.6c0-0.2,0.2-0.3,0.3-0.3c0.2,0,0.3,0.2,0.3,0.3
		v179.3c0,0.1-0.1,0.2-0.1,0.3c-1.2,0.9-1.8,1.9-1.8,2.9c0,3.2,5.9,5.9,13.1,5.9s13.1-2.6,13.1-5.9c0-1-0.6-2-1.7-2.9
		c-0.1-0.1-0.1-0.2-0.1-0.3V0.6c0-0.2,0.2-0.3,0.3-0.3c0.2,0,0.3,0.2,0.3,0.3v179.2c1.2,1,1.9,2.2,1.9,3.3
		C27.6,186.8,21.5,189.7,13.8,189.7z"/>
</g>
<path class="st5" d="M21.4,144.2c-0.8,0-1.4-0.6-1.4-1.4v-21.1c0-0.8,0.6-1.4,1.4-1.4c0.8,0,1.4,0.6,1.4,1.4v21.1
	C22.8,143.6,22.2,144.2,21.4,144.2z"/>
<path class="st5" d="M21.4,157.8c-0.8,0-1.4-0.6-1.4-1.4v-8.3c0-0.8,0.6-1.4,1.4-1.4c0.8,0,1.4,0.6,1.4,1.4v8.3
	C22.8,157.2,22.2,157.8,21.4,157.8z"/>
</svg>
