<!-- Generator: Adobe Illustrator 21.1.0, SVG Export Plug-In  -->
<svg version="1.1"
	 xmlns="http://www.w3.org/2000/svg" xmlns:xlink="http://www.w3.org/1999/xlink" xmlns:a="http://ns.adobe.com/AdobeSVGViewerExtensions/3.0/"
	 x="0px" y="0px" width="91.5px" height="182.8px" viewBox="0 0 91.5 182.8" style="enable-background:new 0 0 91.5 182.8;"
	 xml:space="preserve">
<style type="text/css">
	.st0{fill:none;stroke:#1A2147;stroke-width:2;stroke-linecap:round;stroke-linejoin:round;stroke-miterlimit:10;}
	.st1{fill:url(#SVGID_1_);}
	.st2{fill:#1A2147;}
	.st3{fill:url(#SVGID_2_);}
	.st4{fill:#1B3657;}
	.st5{fill:url(#SVGID_3_);}
	.st6{fill:url(#SVGID_4_);}
	.st7{fill:url(#SVGID_5_);}
	.st8{fill:url(#SVGID_6_);}
</style>
<defs>
</defs>
<g>
	<path class="st0" d="M31.2,129.6"/>
	<path class="st0" d="M71.5,105.1"/>
	<path class="st0" d="M88.5,114.5"/>
	<path class="st0" d="M71.5,105.1"/>
	<linearGradient id="SVGID_1_" gradientUnits="userSpaceOnUse" x1="48.1142" y1="147.5656" x2="90.849" y2="147.5656">
		<stop  offset="0" style="stop-color:#134071"/>
		<stop  offset="1" style="stop-color:#25527F"/>
	</linearGradient>
	<polygon class="st1" points="48.1,182.1 48.1,139 90.8,113 90.8,156.1 	"/>
	<path class="st2" d="M48.1,139.7c-0.2,0-0.5-0.1-0.6-0.3c-0.2-0.3-0.1-0.8,0.2-1l42.7-26c0.3-0.2,0.8-0.1,1,0.2
		c0.2,0.3,0.1,0.8-0.2,1l-42.7,26C48.4,139.7,48.2,139.7,48.1,139.7z"/>
	<path class="st2" d="M90.8,156.8c-0.4,0-0.7-0.3-0.7-0.7v-42.7l1-1c0.2,0.1,0.4,0.4,0.4,0.6v43.1C91.5,156.5,91.2,156.8,90.8,156.8
		z"/>
	<path class="st0" d="M0.7,155.8"/>
	<path class="st2" d="M48.5,138.4c0.2,0.1,0.4,0.4,0.4,0.6v41.9l41.7-25.4c0.3-0.2,0.8-0.1,1,0.2c0.2,0.3,0.1,0.8-0.2,1l-42.7,26.1
		c-0.1,0.1-0.2,0.1-0.4,0.1c-0.1,0-0.2,0-0.3-0.1c-0.2-0.1-0.4-0.4-0.4-0.6v-42.7"/>
</g>
<g>
	<g>
		<path class="st0" d="M31.2,86.5"/>
		<path class="st0" d="M71.5,62"/>
		<path class="st0" d="M88.5,71.4"/>
		<path class="st0" d="M71.5,62"/>
		<linearGradient id="SVGID_2_" gradientUnits="userSpaceOnUse" x1="48.1142" y1="104.4921" x2="90.849" y2="104.4921">
			<stop  offset="0" style="stop-color:#134071"/>
			<stop  offset="1" style="stop-color:#25527F"/>
		</linearGradient>
		<polygon class="st3" points="48.1,139.1 48.1,96 90.8,69.9 90.8,113 		"/>
		<path class="st2" d="M48.1,96.7c-0.2,0-0.5-0.1-0.6-0.3c-0.2-0.3-0.1-0.8,0.2-1l42.7-26c0.3-0.2,0.8-0.1,1,0.2
			c0.2,0.3,0.1,0.8-0.2,1l-42.7,26C48.4,96.6,48.2,96.7,48.1,96.7z"/>
		<path class="st2" d="M91.2,69.3c0.2,0.1,0.4,0.4,0.4,0.6V113c0,0.4-0.3,0.7-0.7,0.7c-0.4,0-0.7-0.3-0.7-0.7V70.3"/>
		<path class="st0" d="M0.7,112.8"/>
		<path class="st2" d="M48.5,95.3c0.2,0.1,0.4,0.4,0.4,0.6v41.9l41.7-25.4c0.3-0.2,0.8-0.1,1,0.2c0.2,0.3,0.1,0.8-0.2,1l-42.7,26.1
			c-0.1,0.1-0.2,0.1-0.4,0.1c-0.1,0-0.2,0-0.3-0.1c-0.2-0.1-0.4-0.4-0.4-0.6V96.4"/>
	</g>
</g>
<g>
	<g>
		<polygon class="st4" points="90.8,26.8 48.1,52.8 0.8,26.7 43.6,0.7 		"/>
		<path class="st0" d="M31.2,43.4"/>
		<path class="st0" d="M71.5,18.9"/>
		<path class="st0" d="M88.5,28.2"/>
		<path class="st0" d="M71.5,18.9"/>
		<linearGradient id="SVGID_3_" gradientUnits="userSpaceOnUse" x1="48.1142" y1="61.3516" x2="90.849" y2="61.3516">
			<stop  offset="0" style="stop-color:#134071"/>
			<stop  offset="1" style="stop-color:#25527F"/>
		</linearGradient>
		<polygon class="st5" points="48.1,95.9 48.1,52.8 90.8,26.8 90.8,69.9 		"/>
		<path class="st2" d="M48.1,53.5c-0.2,0-0.5-0.1-0.6-0.3c-0.2-0.3-0.1-0.8,0.2-1l42.7-26c0.3-0.2,0.8-0.1,1,0.2
			c0.2,0.3,0.1,0.8-0.2,1l-42.7,26C48.4,53.5,48.2,53.5,48.1,53.5z"/>
		<path class="st2" d="M90.8,70.6c-0.4,0-0.7-0.3-0.7-0.7V27.2L43.3,1.3c-0.3-0.2-0.5-0.6-0.3-0.9C43.2,0,43.6-0.1,44,0.1l47.2,26.1
			c0.2,0.1,0.4,0.4,0.4,0.6v43.1C91.5,70.2,91.2,70.6,90.8,70.6z"/>
		<path class="st0" d="M0.7,69.6"/>
		<path class="st2" d="M48.1,96.6c-0.1,0-0.2,0-0.3-0.1c-0.2-0.1-0.4-0.4-0.4-0.6V53.2l-47-25.9c-0.3-0.2-0.5-0.6-0.3-0.9
			c0.2-0.3,0.6-0.5,0.9-0.3l47.3,26.1c0.2,0.1,0.4,0.4,0.4,0.6v41.9l41.7-25.4c0.3-0.2,0.8-0.1,1,0.2c0.2,0.3,0.1,0.8-0.2,1
			L48.5,96.5C48.4,96.6,48.2,96.6,48.1,96.6z"/>
		<path class="st2" d="M0.7,27.3c-0.2,0-0.5-0.1-0.6-0.3c-0.2-0.3-0.1-0.8,0.2-1L43.3,0.1c0.3-0.2,0.8-0.1,1,0.2
			c0.2,0.3,0.1,0.8-0.2,1L1.1,27.2C0.9,27.3,0.8,27.3,0.7,27.3z"/>
	</g>
</g>
</svg>
