<!-- Generator: Adobe Illustrator 21.1.0, SVG Export Plug-In  -->
<svg version="1.1"
	 xmlns="http://www.w3.org/2000/svg" xmlns:xlink="http://www.w3.org/1999/xlink" xmlns:a="http://ns.adobe.com/AdobeSVGViewerExtensions/3.0/"
	 x="0px" y="0px" width="92.4px" height="97.7px" viewBox="0 0 92.4 97.7" style="enable-background:new 0 0 92.4 97.7;"
	 xml:space="preserve">
<style type="text/css">
	.st0{fill:#1B3657;}
	.st1{fill:url(#SVGID_1_);}
	.st2{fill:none;stroke:#1A2147;stroke-width:2;stroke-linecap:round;stroke-linejoin:round;stroke-miterlimit:10;}
	.st3{fill:url(#SVGID_2_);}
	.st4{fill:#1A2147;}
	.st5{fill:#D5B865;}
	.st6{fill:url(#SVGID_3_);}
	.st7{fill:url(#SVGID_4_);}
</style>
<defs>
</defs>
<g>
	<g>
		<polygon class="st0" points="91.7,27 48.6,53.3 0.7,26.9 44,0.7 		"/>
		<linearGradient id="SVGID_1_" gradientUnits="userSpaceOnUse" x1="-5.7505" y1="54.8803" x2="55.0144" y2="68.909">
			<stop  offset="0" style="stop-color:#134071"/>
			<stop  offset="1" style="stop-color:#25527F"/>
		</linearGradient>
		<polygon class="st1" points="48.6,96.9 0.7,70.2 0.7,26.9 48.6,53.3 		"/>
		<path class="st2" d="M31.4,43.8"/>
		<path class="st2" d="M72.2,19.1"/>
		<path class="st2" d="M89.3,28.5"/>
		<path class="st2" d="M72.2,19.1"/>
		<linearGradient id="SVGID_2_" gradientUnits="userSpaceOnUse" x1="48.5588" y1="61.9596" x2="91.7168" y2="61.9596">
			<stop  offset="0" style="stop-color:#134071"/>
			<stop  offset="1" style="stop-color:#25527F"/>
		</linearGradient>
		<polygon class="st3" points="48.6,96.9 48.6,53.3 91.7,27 91.7,70.5 		"/>
		<path class="st4" d="M48.6,54.1c-0.2,0-0.5-0.1-0.6-0.3c-0.2-0.3-0.1-0.8,0.2-1l43.2-26.3c0.3-0.2,0.8-0.1,1,0.2
			c0.2,0.3,0.1,0.8-0.2,1L48.9,54C48.8,54,48.7,54.1,48.6,54.1z"/>
		<path class="st4" d="M91.7,71.3c-0.4,0-0.7-0.3-0.7-0.7V27.5L43.7,1.3c-0.3-0.2-0.5-0.6-0.3-1c0.2-0.3,0.6-0.5,1-0.3l47.7,26.3
			c0.2,0.1,0.4,0.4,0.4,0.6v43.5C92.4,70.9,92.1,71.3,91.7,71.3z"/>
		<path class="st4" d="M48.6,97.7c-0.1,0-0.2,0-0.3-0.1L0.4,70.9c-0.3-0.2-0.5-0.6-0.3-1s0.6-0.5,1-0.3l47.5,26.5l42.8-26.2
			c0.3-0.2,0.8-0.1,1,0.2c0.2,0.3,0.1,0.8-0.2,1L48.9,97.6C48.8,97.6,48.7,97.7,48.6,97.7z"/>
		<path class="st4" d="M48.6,97.7c-0.4,0-0.7-0.3-0.7-0.7V53.6L0.4,27.5c-0.3-0.2-0.5-0.6-0.3-1c0.2-0.3,0.6-0.5,1-0.3l47.9,26.3
			c0.2,0.1,0.4,0.4,0.4,0.6V97C49.3,97.4,48.9,97.7,48.6,97.7z"/>
		<path class="st4" d="M0.7,71C0.3,71,0,70.7,0,70.3V26.8c0-0.2,0.1-0.5,0.3-0.6L43.7,0.1c0.3-0.2,0.8-0.1,1,0.2
			c0.2,0.3,0.1,0.8-0.2,1l-43,25.9v43.1C1.4,70.7,1.1,71,0.7,71z"/>
	</g>
	<g>
		<path class="st5" d="M36.2,64.7l-9.3-14l-2,1l-2-2.9l-9.8,4.9l2,3l-2,1l9.3,14l2-1l2,2.9l9.8-4.9l-2-2.9L36.2,64.7z M34.3,68.1
			l-3.1,1.6l-2.3-3.5l-1.1,0.7l2.2,3.4l-3.1,1.6L25.6,70l2-1L27,67.8l-2.1,1.1l-2.3-3.5l-1.1,0.7l2.3,3.4l-0.8,0.4l-3.6-5.4l2-1
			l-0.6-1.2l-2.1,1.1L15,58.1l0.8-0.4l2.3,3.5l1.1-0.7L17,57.1l2-1l-0.6-1.2L16.2,56L15,54.1l3.1-1.6l2.3,3.5l1.1-0.7L19.3,52
			l3.1-1.6l1.2,1.9l-2,1l0.6,1.2l2.1-1.1l2.3,3.5l1.1-0.7l-2.3-3.4l0.8-0.4l3.6,5.4l-2,1l0.6,1.2l2.1-1.1l3.6,5.4l-0.8,0.4L31.1,61
			L30,61.8l2.3,3.4l-2,1l0.6,1.2l2.1-1.1L34.3,68.1z"/>
		<path class="st5" d="M19.8,58.9l4.7,7l5.1-2.6l-4.7-7L19.8,58.9z M24.9,64.2l-3.2-4.8l2.7-1.4l3.2,4.8L24.9,64.2z"/>
	</g>
</g>
</svg>
