<!-- Generator: Adobe Illustrator 21.1.0, SVG Export Plug-In  -->
<svg version="1.1"
	 xmlns="http://www.w3.org/2000/svg" xmlns:xlink="http://www.w3.org/1999/xlink" xmlns:a="http://ns.adobe.com/AdobeSVGViewerExtensions/3.0/"
	 x="0px" y="0px" width="109px" height="253.9px" viewBox="0 0 109 253.9" style="enable-background:new 0 0 109 253.9;"
	 xml:space="preserve">
<style type="text/css">
	.st0{opacity:0.7;fill:#304FFE;}
	.st1{fill:#D5B865;}
</style>
<defs>
</defs>
<path class="st0" d="M51.8,25.6c-0.1,0-0.1,0-0.2,0l-36-20.1c-0.2-0.1-0.2-0.3-0.1-0.5c0.1-0.2,0.3-0.2,0.5-0.1L52,25
	c0.2,0.1,0.2,0.3,0.1,0.5C52.1,25.5,52,25.6,51.8,25.6z"/>
<path class="st0" d="M51.8,36.6c-0.1,0-0.1,0-0.2,0l-36-20.1c-0.2-0.1-0.2-0.3-0.1-0.5c0.1-0.2,0.3-0.2,0.5-0.1L52,36
	c0.2,0.1,0.2,0.3,0.1,0.5C52.1,36.5,52,36.6,51.8,36.6z"/>
<path class="st0" d="M42,25.5c-0.1,0-0.1,0-0.2,0L15.7,10.9c-0.2-0.1-0.2-0.3-0.1-0.5c0.1-0.2,0.3-0.2,0.5-0.1l26.1,14.6
	c0.2,0.1,0.2,0.3,0.1,0.5C42.2,25.4,42.1,25.5,42,25.5z"/>
<g>
	<g>
		<polygon class="st1" points="2.9,7.2 0,2.9 5.7,0 8.5,4.2 7.6,4.8 5.3,1.4 1.5,3.3 3.8,6.6 		"/>
		<rect x="3.3" y="1.6" transform="matrix(0.8317 -0.5552 0.5552 0.8317 -0.9949 2.6465)" class="st1" width="1.1" height="2.6"/>
	</g>
	<g>
		<polygon class="st1" points="7.5,14.1 4.7,9.9 5.6,9.3 7.8,12.7 11.6,10.8 9.4,7.5 10.3,6.9 13.2,11.2 		"/>
		<rect x="8.8" y="9.8" transform="matrix(0.8317 -0.5552 0.5552 0.8317 -4.5995 7.0319)" class="st1" width="1.1" height="2.6"/>
	</g>
	<g>
		<polygon class="st1" points="10.1,10.6 9.6,9.7 11.6,8.6 7.5,2.4 5.4,3.5 4.9,2.6 7.8,1.1 13.2,9.1 		"/>
		<rect x="8.5" y="5.1" transform="matrix(0.8937 -0.4487 0.4487 0.8937 -1.5558 4.7756)" class="st1" width="1.6" height="1.1"/>
	</g>
	<g>
		<polygon class="st1" points="5.3,13 0,5 3.1,3.5 3.6,4.4 1.5,5.4 5.7,11.6 7.8,10.6 8.3,11.5 		"/>
		<rect x="3.1" y="7.9" transform="matrix(0.8937 -0.4487 0.4487 0.8937 -3.3562 2.6283)" class="st1" width="1.6" height="1.1"/>
	</g>
</g>
<path class="st1" d="M6.4,10.1l-3-4.5L6.8,4l3,4.5L6.4,10.1z M5.1,6.1l1.7,2.5L8.1,8L6.4,5.4L5.1,6.1z"/>
<path class="st0" d="M51.8,52.5c-0.1,0-0.1,0-0.2,0l-36-20.1c-0.2-0.1-0.2-0.3-0.1-0.5c0.1-0.2,0.3-0.2,0.5-0.1l36,20.1
	c0.2,0.1,0.2,0.3,0.1,0.5C52.1,52.4,52,52.5,51.8,52.5z"/>
<path class="st0" d="M51.8,63.5c-0.1,0-0.1,0-0.2,0l-36-20.1c-0.2-0.1-0.2-0.3-0.1-0.5c0.1-0.2,0.3-0.2,0.5-0.1l36,20.1
	c0.2,0.1,0.2,0.3,0.1,0.5C52.1,63.4,52,63.5,51.8,63.5z"/>
<path class="st0" d="M42,52.4c-0.1,0-0.1,0-0.2,0L15.7,37.8c-0.2-0.1-0.2-0.3-0.1-0.5c0.1-0.2,0.3-0.2,0.5-0.1l26.1,14.6
	c0.2,0.1,0.2,0.3,0.1,0.5C42.2,52.3,42.1,52.4,42,52.4z"/>
<g>
	<g>
		<polygon class="st1" points="2.9,34.1 0,29.7 5.7,26.9 8.5,31.1 7.6,31.7 5.3,28.3 1.5,30.2 3.8,33.5 		"/>
		<rect x="3.3" y="28.5" transform="matrix(0.8317 -0.5552 0.5552 0.8317 -15.9249 7.172)" class="st1" width="1.1" height="2.6"/>
	</g>
	<g>
		<polygon class="st1" points="7.5,41 4.7,36.8 5.6,36.2 7.8,39.6 11.6,37.7 9.4,34.4 10.3,33.8 13.2,38.1 		"/>
		
			<rect x="8.8" y="36.7" transform="matrix(0.8317 -0.5552 0.5552 0.8317 -19.5295 11.5574)" class="st1" width="1.1" height="2.6"/>
	</g>
	<g>
		<polygon class="st1" points="10.1,37.5 9.6,36.5 11.6,35.5 7.5,29.3 5.4,30.4 4.9,29.5 7.8,28 13.2,35.9 		"/>
		<rect x="8.5" y="32" transform="matrix(0.8937 -0.4487 0.4487 0.8937 -13.6213 7.6344)" class="st1" width="1.6" height="1.1"/>
	</g>
	<g>
		<polygon class="st1" points="5.3,39.9 0,31.9 3.1,30.4 3.6,31.3 1.5,32.3 5.7,38.5 7.8,37.4 8.3,38.4 		"/>
		<rect x="3.1" y="34.8" transform="matrix(0.8937 -0.4487 0.4487 0.8937 -15.4217 5.4871)" class="st1" width="1.6" height="1.1"/>
	</g>
</g>
<path class="st1" d="M6.4,37l-3-4.5l3.4-1.7l3,4.5L6.4,37z M5.1,33l1.7,2.5l1.3-0.7l-1.7-2.5L5.1,33z"/>
<path class="st0" d="M51.8,80.3c-0.1,0-0.1,0-0.2,0l-36-20.1c-0.2-0.1-0.2-0.3-0.1-0.5c0.1-0.2,0.3-0.2,0.5-0.1l36,20.1
	c0.2,0.1,0.2,0.3,0.1,0.5C52.1,80.2,52,80.3,51.8,80.3z"/>
<path class="st0" d="M51.8,91.3c-0.1,0-0.1,0-0.2,0l-36-20.1c-0.2-0.1-0.2-0.3-0.1-0.5c0.1-0.2,0.3-0.2,0.5-0.1l36,20.1
	c0.2,0.1,0.2,0.3,0.1,0.5C52.1,91.2,52,91.3,51.8,91.3z"/>
<path class="st0" d="M42,80.1c-0.1,0-0.1,0-0.2,0L15.7,65.5c-0.2-0.1-0.2-0.3-0.1-0.5c0.1-0.2,0.3-0.2,0.5-0.1l26.1,14.6
	c0.2,0.1,0.2,0.3,0.1,0.5C42.2,80,42.1,80.1,42,80.1z"/>
<g>
	<g>
		<polygon class="st1" points="2.9,61.8 0,57.5 5.7,54.6 8.5,58.8 7.6,59.4 5.3,56 1.5,57.9 3.8,61.2 		"/>
		<rect x="3.3" y="56.3" transform="matrix(0.8317 -0.5552 0.5552 0.8317 -31.331 11.8418)" class="st1" width="1.1" height="2.6"/>
	</g>
	<g>
		<polygon class="st1" points="7.5,68.7 4.7,64.5 5.6,63.9 7.8,67.3 11.6,65.4 9.4,62.1 10.3,61.5 13.2,65.9 		"/>
		
			<rect x="8.8" y="64.4" transform="matrix(0.8317 -0.5552 0.5552 0.8317 -34.9356 16.2272)" class="st1" width="1.1" height="2.6"/>
	</g>
	<g>
		<polygon class="st1" points="10.1,65.2 9.6,64.3 11.6,63.3 7.5,57.1 5.4,58.1 4.9,57.2 7.8,55.7 13.2,63.7 		"/>
		
			<rect x="8.5" y="59.8" transform="matrix(0.8937 -0.4487 0.4487 0.8937 -26.0714 10.5843)" class="st1" width="1.6" height="1.1"/>
	</g>
	<g>
		<polygon class="st1" points="5.3,67.6 0,59.7 3.1,58.1 3.6,59.1 1.5,60.1 5.7,66.3 7.8,65.2 8.3,66.1 		"/>
		<rect x="3.1" y="62.5" transform="matrix(0.8937 -0.4487 0.4487 0.8937 -27.872 8.437)" class="st1" width="1.6" height="1.1"/>
	</g>
</g>
<path class="st1" d="M6.4,64.8l-3-4.5l3.4-1.7l3,4.5L6.4,64.8z M5.1,60.7l1.7,2.5l1.3-0.7l-1.7-2.5L5.1,60.7z"/>
<path class="st0" d="M108.6,57.1c-0.1,0-0.1,0-0.2,0l-36-20.1c-0.2-0.1-0.2-0.3-0.1-0.5c0.1-0.2,0.3-0.2,0.5-0.1l36,20.1
	c0.2,0.1,0.2,0.3,0.1,0.5C108.9,57,108.8,57.1,108.6,57.1z"/>
<path class="st0" d="M108.6,68.1c-0.1,0-0.1,0-0.2,0l-36-20.1c-0.2-0.1-0.2-0.3-0.1-0.5c0.1-0.2,0.3-0.2,0.5-0.1l36,20.1
	c0.2,0.1,0.2,0.3,0.1,0.5C108.9,68,108.8,68.1,108.6,68.1z"/>
<path class="st0" d="M98.8,56.9c-0.1,0-0.1,0-0.2,0L72.5,42.3c-0.2-0.1-0.2-0.3-0.1-0.5c0.1-0.2,0.3-0.2,0.5-0.1l26.1,14.6
	c0.2,0.1,0.2,0.3,0.1,0.5C99,56.8,98.9,56.9,98.8,56.9z"/>
<g>
	<g>
		<polygon class="st1" points="59.7,38.6 56.8,34.3 62.5,31.4 65.3,35.6 64.4,36.2 62.1,32.8 58.3,34.7 60.6,38 		"/>
		<rect x="60.1" y="33.1" transform="matrix(0.8318 -0.555 0.555 0.8318 -8.8921 39.4597)" class="st1" width="1.1" height="2.6"/>
	</g>
	<g>
		<polygon class="st1" points="64.3,45.5 61.5,41.3 62.4,40.7 64.6,44.1 68.4,42.2 66.2,38.9 67.1,38.3 70,42.7 		"/>
		<rect x="65.6" y="41.2" transform="matrix(0.8318 -0.555 0.555 0.8318 -12.4958 43.8438)" class="st1" width="1.1" height="2.6"/>
	</g>
	<g>
		<polygon class="st1" points="66.9,42 66.4,41.1 68.4,40.1 64.3,33.9 62.2,34.9 61.7,34 64.6,32.5 70,40.5 		"/>
		
			<rect x="65.3" y="36.6" transform="matrix(0.8937 -0.4487 0.4487 0.8937 -9.6234 33.6044)" class="st1" width="1.6" height="1.1"/>
	</g>
	<g>
		<polygon class="st1" points="62.1,44.4 56.8,36.5 59.9,34.9 60.4,35.9 58.3,36.9 62.5,43.1 64.6,42 65.1,42.9 		"/>
		
			<rect x="59.9" y="39.3" transform="matrix(0.8937 -0.4487 0.4487 0.8937 -11.4239 31.4566)" class="st1" width="1.6" height="1.1"/>
	</g>
</g>
<path class="st1" d="M63.2,41.5l-3-4.5l3.4-1.7l3,4.5L63.2,41.5z M61.9,37.5l1.7,2.5l1.3-0.7l-1.7-2.5L61.9,37.5z"/>
<path class="st0" d="M108.6,83.9c-0.1,0-0.1,0-0.2,0l-36-20.1c-0.2-0.1-0.2-0.3-0.1-0.5c0.1-0.2,0.3-0.2,0.5-0.1l36,20.1
	c0.2,0.1,0.2,0.3,0.1,0.5C108.9,83.9,108.8,83.9,108.6,83.9z"/>
<path class="st0" d="M108.6,94.9c-0.1,0-0.1,0-0.2,0l-36-20.1c-0.2-0.1-0.2-0.3-0.1-0.5c0.1-0.2,0.3-0.2,0.5-0.1l36,20.1
	c0.2,0.1,0.2,0.3,0.1,0.5C108.9,94.9,108.8,94.9,108.6,94.9z"/>
<path class="st0" d="M98.8,83.8c-0.1,0-0.1,0-0.2,0L72.5,69.2c-0.2-0.1-0.2-0.3-0.1-0.5c0.1-0.2,0.3-0.2,0.5-0.1l26.1,14.6
	c0.2,0.1,0.2,0.3,0.1,0.5C99,83.7,98.9,83.8,98.8,83.8z"/>
<g>
	<g>
		<polygon class="st1" points="59.7,65.5 56.8,61.2 62.5,58.3 65.3,62.5 64.4,63.1 62.1,59.7 58.3,61.6 60.6,64.9 		"/>
		<rect x="60.1" y="60" transform="matrix(0.8318 -0.555 0.555 0.8318 -23.8176 43.9822)" class="st1" width="1.1" height="2.6"/>
	</g>
	<g>
		<polygon class="st1" points="64.3,72.4 61.5,68.2 62.4,67.6 64.6,71 68.4,69.1 66.2,65.8 67.1,65.2 70,69.5 		"/>
		<rect x="65.6" y="68.1" transform="matrix(0.8318 -0.555 0.555 0.8318 -27.4212 48.3662)" class="st1" width="1.1" height="2.6"/>
	</g>
	<g>
		<polygon class="st1" points="66.9,68.9 66.4,68 68.4,67 64.3,60.8 62.2,61.8 61.7,60.9 64.6,59.4 70,67.4 		"/>
		
			<rect x="65.3" y="63.5" transform="matrix(0.8937 -0.4487 0.4487 0.8937 -21.689 36.4632)" class="st1" width="1.6" height="1.1"/>
	</g>
	<g>
		<polygon class="st1" points="62.1,71.3 56.8,63.3 59.9,61.8 60.4,62.7 58.3,63.8 62.5,70 64.6,68.9 65.1,69.8 		"/>
		
			<rect x="59.9" y="66.2" transform="matrix(0.8937 -0.4487 0.4487 0.8937 -23.4895 34.3154)" class="st1" width="1.6" height="1.1"/>
	</g>
</g>
<path class="st1" d="M63.2,68.4l-3-4.5l3.4-1.7l3,4.5L63.2,68.4z M61.9,64.4l1.7,2.5l1.3-0.7l-1.7-2.5L61.9,64.4z"/>
<path class="st0" d="M108.6,111.7c-0.1,0-0.1,0-0.2,0l-36-20.1c-0.2-0.1-0.2-0.3-0.1-0.5c0.1-0.2,0.3-0.2,0.5-0.1l36,20.1
	c0.2,0.1,0.2,0.3,0.1,0.5C108.9,111.6,108.8,111.7,108.6,111.7z"/>
<path class="st0" d="M108.6,122.7c-0.1,0-0.1,0-0.2,0l-36-20.1c-0.2-0.1-0.2-0.3-0.1-0.5c0.1-0.2,0.3-0.2,0.5-0.1l36,20.1
	c0.2,0.1,0.2,0.3,0.1,0.5C108.9,122.6,108.8,122.7,108.6,122.7z"/>
<path class="st0" d="M98.8,111.6c-0.1,0-0.1,0-0.2,0L72.5,96.9c-0.2-0.1-0.2-0.3-0.1-0.5c0.1-0.2,0.3-0.2,0.5-0.1l26.1,14.6
	c0.2,0.1,0.2,0.3,0.1,0.5C99,111.5,98.9,111.6,98.8,111.6z"/>
<g>
	<g>
		<polygon class="st1" points="59.7,93.2 56.8,88.9 62.5,86.1 65.3,90.3 64.4,90.9 62.1,87.4 58.3,89.3 60.6,92.7 		"/>
		
			<rect x="60.1" y="87.7" transform="matrix(0.8317 -0.5552 0.5552 0.8317 -39.227 48.6693)" class="st1" width="1.1" height="2.6"/>
	</g>
	<g>
		<polygon class="st1" points="64.3,100.1 61.5,95.9 62.4,95.4 64.6,98.8 68.4,96.9 66.2,93.6 67.1,93 70,97.3 		"/>
		
			<rect x="65.6" y="95.9" transform="matrix(0.8317 -0.5552 0.5552 0.8317 -42.8314 53.0552)" class="st1" width="1.1" height="2.6"/>
	</g>
	<g>
		<polygon class="st1" points="66.9,96.7 66.4,95.7 68.4,94.7 64.3,88.5 62.2,89.6 61.7,88.6 64.6,87.2 70,95.1 		"/>
		
			<rect x="65.3" y="91.2" transform="matrix(0.8937 -0.4487 0.4487 0.8937 -34.139 39.4131)" class="st1" width="1.6" height="1.1"/>
	</g>
	<g>
		<polygon class="st1" points="62.1,99.1 56.8,91.1 59.9,89.5 60.4,90.5 58.3,91.5 62.5,97.7 64.6,96.6 65.1,97.6 		"/>
		
			<rect x="59.9" y="93.9" transform="matrix(0.8937 -0.4487 0.4487 0.8937 -35.9397 37.2654)" class="st1" width="1.6" height="1.1"/>
	</g>
</g>
<path class="st1" d="M63.2,96.2l-3-4.5l3.4-1.7l3,4.5L63.2,96.2z M61.9,92.2l1.7,2.5l1.3-0.7l-1.7-2.5L61.9,92.2z"/>
<path class="st0" d="M51.8,105.8c-0.1,0-0.1,0-0.2,0l-36-20.1c-0.2-0.1-0.2-0.3-0.1-0.5c0.1-0.2,0.3-0.2,0.5-0.1l36,20.1
	c0.2,0.1,0.2,0.3,0.1,0.5C52.1,105.7,52,105.8,51.8,105.8z"/>
<path class="st0" d="M51.8,116.8c-0.1,0-0.1,0-0.2,0l-36-20.1c-0.2-0.1-0.2-0.3-0.1-0.5c0.1-0.2,0.3-0.2,0.5-0.1l36,20.1
	c0.2,0.1,0.2,0.3,0.1,0.5C52.1,116.7,52,116.8,51.8,116.8z"/>
<path class="st0" d="M42,105.6c-0.1,0-0.1,0-0.2,0L15.7,91c-0.2-0.1-0.2-0.3-0.1-0.5c0.1-0.2,0.3-0.2,0.5-0.1L42.1,105
	c0.2,0.1,0.2,0.3,0.1,0.5C42.2,105.5,42.1,105.6,42,105.6z"/>
<g>
	<g>
		<polygon class="st1" points="2.9,87.3 0,83 5.7,80.1 8.5,84.3 7.6,84.9 5.3,81.5 1.5,83.4 3.8,86.7 		"/>
		<rect x="3.3" y="81.8" transform="matrix(0.8318 -0.555 0.555 0.8318 -45.476 16.1234)" class="st1" width="1.1" height="2.6"/>
	</g>
	<g>
		<polygon class="st1" points="7.5,94.2 4.7,90 5.6,89.4 7.8,92.8 11.6,90.9 9.4,87.6 10.3,87 13.2,91.4 		"/>
		
			<rect x="8.8" y="89.9" transform="matrix(0.8317 -0.5552 0.5552 0.8317 -49.0941 20.5188)" class="st1" width="1.1" height="2.6"/>
	</g>
	<g>
		<polygon class="st1" points="10.1,90.7 9.6,89.8 11.6,88.8 7.5,82.6 5.4,83.6 4.9,82.7 7.8,81.2 13.2,89.2 		"/>
		
			<rect x="8.5" y="85.3" transform="matrix(0.8937 -0.4487 0.4487 0.8937 -37.5139 13.2955)" class="st1" width="1.6" height="1.1"/>
	</g>
	<g>
		<polygon class="st1" points="5.3,93.1 0,85.2 3.1,83.6 3.6,84.6 1.5,85.6 5.7,91.8 7.8,90.7 8.3,91.6 		"/>
		<rect x="3.1" y="88" transform="matrix(0.8937 -0.4487 0.4487 0.8937 -39.3143 11.1482)" class="st1" width="1.6" height="1.1"/>
	</g>
</g>
<path class="st1" d="M6.4,90.3l-3-4.5l3.4-1.7l3,4.5L6.4,90.3z M5.1,86.2l1.7,2.5l1.3-0.7l-1.7-2.5L5.1,86.2z"/>
<path class="st0" d="M108.6,137.2c-0.1,0-0.1,0-0.2,0l-36-20.1c-0.2-0.1-0.2-0.3-0.1-0.5c0.1-0.2,0.3-0.2,0.5-0.1l36,20.1
	c0.2,0.1,0.2,0.3,0.1,0.5C108.9,137.1,108.8,137.2,108.6,137.2z"/>
<path class="st0" d="M108.6,148.2c-0.1,0-0.1,0-0.2,0l-36-20.1c-0.2-0.1-0.2-0.3-0.1-0.5c0.1-0.2,0.3-0.2,0.5-0.1l36,20.1
	c0.2,0.1,0.2,0.3,0.1,0.5C108.9,148.1,108.8,148.2,108.6,148.2z"/>
<path class="st0" d="M98.8,137.1c-0.1,0-0.1,0-0.2,0l-26.1-14.6c-0.2-0.1-0.2-0.3-0.1-0.5c0.1-0.2,0.3-0.2,0.5-0.1l26.1,14.6
	c0.2,0.1,0.2,0.3,0.1,0.5C99,137,98.9,137.1,98.8,137.1z"/>
<g>
	<g>
		<polygon class="st1" points="59.7,118.7 56.8,114.4 62.5,111.6 65.3,115.8 64.4,116.4 62.1,112.9 58.3,114.8 60.6,118.2 		"/>
		
			<rect x="60.1" y="113.2" transform="matrix(0.8317 -0.5552 0.5552 0.8317 -53.386 52.961)" class="st1" width="1.1" height="2.6"/>
	</g>
	<g>
		<polygon class="st1" points="64.3,125.6 61.5,121.4 62.4,120.9 64.6,124.3 68.4,122.4 66.2,119.1 67.1,118.5 70,122.8 		"/>
		
			<rect x="65.6" y="121.4" transform="matrix(0.8317 -0.5552 0.5552 0.8317 -56.9904 57.347)" class="st1" width="1.1" height="2.6"/>
	</g>
	<g>
		<polygon class="st1" points="66.9,122.2 66.4,121.2 68.4,120.2 64.3,114 62.2,115.1 61.7,114.1 64.6,112.7 70,120.6 		"/>
		
			<rect x="65.3" y="116.7" transform="matrix(0.8937 -0.4487 0.4487 0.8937 -45.5813 42.1242)" class="st1" width="1.6" height="1.1"/>
	</g>
	<g>
		<polygon class="st1" points="62.1,124.6 56.8,116.6 59.9,115 60.4,116 58.3,117 62.5,123.2 64.6,122.1 65.1,123.1 		"/>
		
			<rect x="59.9" y="119.4" transform="matrix(0.8937 -0.4487 0.4487 0.8937 -47.382 39.9765)" class="st1" width="1.6" height="1.1"/>
	</g>
</g>
<path class="st1" d="M63.2,121.7l-3-4.5l3.4-1.7l3,4.5L63.2,121.7z M61.9,117.7l1.7,2.5l1.3-0.7l-1.7-2.5L61.9,117.7z"/>
<path class="st0" d="M51.8,131.3c-0.1,0-0.1,0-0.2,0l-36-20.1c-0.2-0.1-0.2-0.3-0.1-0.5c0.1-0.2,0.3-0.2,0.5-0.1l36,20.1
	c0.2,0.1,0.2,0.3,0.1,0.5C52.1,131.2,52,131.3,51.8,131.3z"/>
<path class="st0" d="M51.8,142.3c-0.1,0-0.1,0-0.2,0l-36-20.1c-0.2-0.1-0.2-0.3-0.1-0.5c0.1-0.2,0.3-0.2,0.5-0.1l36,20.1
	c0.2,0.1,0.2,0.3,0.1,0.5C52.1,142.2,52,142.3,51.8,142.3z"/>
<path class="st0" d="M42,131.2c-0.1,0-0.1,0-0.2,0l-26.1-14.6c-0.2-0.1-0.2-0.3-0.1-0.5c0.1-0.2,0.3-0.2,0.5-0.1l26.1,14.6
	c0.2,0.1,0.2,0.3,0.1,0.5C42.2,131.1,42.1,131.2,42,131.2z"/>
<g>
	<g>
		<polygon class="st1" points="2.9,112.9 0,108.6 5.7,105.7 8.5,109.9 7.6,110.5 5.3,107.1 1.5,109 3.8,112.3 		"/>
		
			<rect x="3.3" y="107.3" transform="matrix(0.8317 -0.5552 0.5552 0.8317 -59.6816 20.4352)" class="st1" width="1.1" height="2.6"/>
	</g>
	<g>
		<polygon class="st1" points="7.5,119.8 4.7,115.6 5.6,115 7.8,118.4 11.6,116.5 9.4,113.2 10.3,112.6 13.2,116.9 		"/>
		
			<rect x="8.8" y="115.5" transform="matrix(0.8317 -0.5552 0.5552 0.8317 -63.2862 24.8206)" class="st1" width="1.1" height="2.6"/>
	</g>
	<g>
		<polygon class="st1" points="10.1,116.3 9.6,115.4 11.6,114.3 7.5,108.1 5.4,109.2 4.9,108.3 7.8,106.8 13.2,114.8 		"/>
		
			<rect x="8.5" y="110.8" transform="matrix(0.8937 -0.4487 0.4487 0.8937 -48.9829 16.013)" class="st1" width="1.6" height="1.1"/>
	</g>
	<g>
		<polygon class="st1" points="5.3,118.7 0,110.7 3.1,109.2 3.6,110.1 1.5,111.1 5.7,117.3 7.8,116.3 8.3,117.2 		"/>
		
			<rect x="3.1" y="113.6" transform="matrix(0.8937 -0.4487 0.4487 0.8937 -50.7833 13.8656)" class="st1" width="1.6" height="1.1"/>
	</g>
</g>
<path class="st1" d="M6.4,115.8l-3-4.5l3.4-1.7l3,4.5L6.4,115.8z M5.1,111.8l1.7,2.5l1.3-0.7l-1.7-2.5L5.1,111.8z"/>
<path class="st0" d="M51.8,158.2c-0.1,0-0.1,0-0.2,0l-36-20.1c-0.2-0.1-0.2-0.3-0.1-0.5c0.1-0.2,0.3-0.2,0.5-0.1l36,20.1
	c0.2,0.1,0.2,0.3,0.1,0.5C52.1,158.1,52,158.2,51.8,158.2z"/>
<path class="st0" d="M51.8,169.2c-0.1,0-0.1,0-0.2,0l-36-20.1c-0.2-0.1-0.2-0.3-0.1-0.5c0.1-0.2,0.3-0.2,0.5-0.1l36,20.1
	c0.2,0.1,0.2,0.3,0.1,0.5C52.1,169.1,52,169.2,51.8,169.2z"/>
<path class="st0" d="M42,158.1c-0.1,0-0.1,0-0.2,0l-26.1-14.6c-0.2-0.1-0.2-0.3-0.1-0.5c0.1-0.2,0.3-0.2,0.5-0.1l26.1,14.6
	c0.2,0.1,0.2,0.3,0.1,0.5C42.2,158,42.1,158.1,42,158.1z"/>
<g>
	<g>
		<polygon class="st1" points="2.9,139.8 0,135.4 5.7,132.6 8.5,136.8 7.6,137.4 5.3,134 1.5,135.9 3.8,139.2 		"/>
		
			<rect x="3.3" y="134.2" transform="matrix(0.8317 -0.5552 0.5552 0.8317 -74.6117 24.9607)" class="st1" width="1.1" height="2.6"/>
	</g>
	<g>
		<polygon class="st1" points="7.5,146.7 4.7,142.5 5.6,141.9 7.8,145.3 11.6,143.4 9.4,140.1 10.3,139.5 13.2,143.8 		"/>
		
			<rect x="8.8" y="142.4" transform="matrix(0.8317 -0.5552 0.5552 0.8317 -78.2163 29.3461)" class="st1" width="1.1" height="2.6"/>
	</g>
	<g>
		<polygon class="st1" points="10.1,143.2 9.6,142.2 11.6,141.2 7.5,135 5.4,136.1 4.9,135.2 7.8,133.7 13.2,141.6 		"/>
		
			<rect x="8.5" y="137.7" transform="matrix(0.8937 -0.4487 0.4487 0.8937 -61.0484 18.8718)" class="st1" width="1.6" height="1.1"/>
	</g>
	<g>
		<polygon class="st1" points="5.3,145.6 0,137.6 3.1,136.1 3.6,137 1.5,138 5.7,144.2 7.8,143.1 8.3,144.1 		"/>
		
			<rect x="3.1" y="140.5" transform="matrix(0.8937 -0.4487 0.4487 0.8937 -62.849 16.7245)" class="st1" width="1.6" height="1.1"/>
	</g>
</g>
<path class="st1" d="M6.4,142.7l-3-4.5l3.4-1.7l3,4.5L6.4,142.7z M5.1,138.7l1.7,2.5l1.3-0.7L6.4,138L5.1,138.7z"/>
<path class="st0" d="M51.8,186c-0.1,0-0.1,0-0.2,0l-36-20.1c-0.2-0.1-0.2-0.3-0.1-0.5c0.1-0.2,0.3-0.2,0.5-0.1l36,20.1
	c0.2,0.1,0.2,0.3,0.1,0.5C52.1,185.9,52,186,51.8,186z"/>
<path class="st0" d="M51.8,197c-0.1,0-0.1,0-0.2,0l-36-20.1c-0.2-0.1-0.2-0.3-0.1-0.5c0.1-0.2,0.3-0.2,0.5-0.1l36,20.1
	c0.2,0.1,0.2,0.3,0.1,0.5C52.1,196.9,52,197,51.8,197z"/>
<path class="st0" d="M42,185.8c-0.1,0-0.1,0-0.2,0l-26.1-14.6c-0.2-0.1-0.2-0.3-0.1-0.5c0.1-0.2,0.3-0.2,0.5-0.1l26.1,14.6
	c0.2,0.1,0.2,0.3,0.1,0.5C42.2,185.7,42.1,185.8,42,185.8z"/>
<g>
	<g>
		<polygon class="st1" points="2.9,167.5 0,163.2 5.7,160.3 8.5,164.5 7.6,165.1 5.3,161.7 1.5,163.6 3.8,166.9 		"/>
		<rect x="3.3" y="162" transform="matrix(0.8317 -0.5552 0.5552 0.8317 -90.0178 29.6305)" class="st1" width="1.1" height="2.6"/>
	</g>
	<g>
		<polygon class="st1" points="7.5,174.4 4.7,170.2 5.6,169.6 7.8,173 11.6,171.1 9.4,167.8 10.3,167.2 13.2,171.6 		"/>
		
			<rect x="8.8" y="170.1" transform="matrix(0.8317 -0.5552 0.5552 0.8317 -93.6224 34.0159)" class="st1" width="1.1" height="2.6"/>
	</g>
	<g>
		<polygon class="st1" points="10.1,170.9 9.6,170 11.6,169 7.5,162.8 5.4,163.8 4.9,162.9 7.8,161.4 13.2,169.4 		"/>
		
			<rect x="8.5" y="165.5" transform="matrix(0.8937 -0.4487 0.4487 0.8937 -73.4985 21.8217)" class="st1" width="1.6" height="1.1"/>
	</g>
	<g>
		<polygon class="st1" points="5.3,173.3 0,165.4 3.1,163.8 3.6,164.8 1.5,165.8 5.7,172 7.8,170.9 8.3,171.8 		"/>
		
			<rect x="3.1" y="168.2" transform="matrix(0.8937 -0.4487 0.4487 0.8937 -75.2991 19.6744)" class="st1" width="1.6" height="1.1"/>
	</g>
</g>
<path class="st1" d="M6.4,170.5l-3-4.5l3.4-1.7l3,4.5L6.4,170.5z M5.1,166.4l1.7,2.5l1.3-0.7l-1.7-2.5L5.1,166.4z"/>
<path class="st0" d="M108.6,162.8c-0.1,0-0.1,0-0.2,0l-36-20.1c-0.2-0.1-0.2-0.3-0.1-0.5c0.1-0.2,0.3-0.2,0.5-0.1l36,20.1
	c0.2,0.1,0.2,0.3,0.1,0.5C108.9,162.7,108.8,162.8,108.6,162.8z"/>
<path class="st0" d="M108.6,173.8c-0.1,0-0.1,0-0.2,0l-36-20.1c-0.2-0.1-0.2-0.3-0.1-0.5c0.1-0.2,0.3-0.2,0.5-0.1l36,20.1
	c0.2,0.1,0.2,0.3,0.1,0.5C108.9,173.7,108.8,173.8,108.6,173.8z"/>
<path class="st0" d="M98.8,162.6c-0.1,0-0.1,0-0.2,0L72.5,148c-0.2-0.1-0.2-0.3-0.1-0.5c0.1-0.2,0.3-0.2,0.5-0.1L98.9,162
	c0.2,0.1,0.2,0.3,0.1,0.5C99,162.5,98.9,162.6,98.8,162.6z"/>
<g>
	<g>
		<polygon class="st1" points="59.7,144.3 56.8,140 62.5,137.1 65.3,141.3 64.4,141.9 62.1,138.5 58.3,140.4 60.6,143.7 		"/>
		
			<rect x="60.1" y="138.8" transform="matrix(0.8318 -0.555 0.555 0.8318 -67.5608 57.2364)" class="st1" width="1.1" height="2.6"/>
	</g>
	<g>
		<polygon class="st1" points="64.3,151.2 61.5,147 62.4,146.4 64.6,149.8 68.4,147.9 66.2,144.6 67.1,144 70,148.4 		"/>
		
			<rect x="65.6" y="146.9" transform="matrix(0.8318 -0.555 0.555 0.8318 -71.1644 61.6204)" class="st1" width="1.1" height="2.6"/>
	</g>
	<g>
		<polygon class="st1" points="66.9,147.7 66.4,146.8 68.4,145.8 64.3,139.6 62.2,140.7 61.7,139.7 64.6,138.2 70,146.2 		"/>
		
			<rect x="65.3" y="142.3" transform="matrix(0.8937 -0.4487 0.4487 0.8937 -57.0505 44.8417)" class="st1" width="1.6" height="1.1"/>
	</g>
	<g>
		<polygon class="st1" points="62.1,150.1 56.8,142.2 59.9,140.6 60.4,141.6 58.3,142.6 62.5,148.8 64.6,147.7 65.1,148.6 		"/>
		<rect x="59.9" y="145" transform="matrix(0.8937 -0.4487 0.4487 0.8937 -58.851 42.6939)" class="st1" width="1.6" height="1.1"/>
	</g>
</g>
<path class="st1" d="M63.2,147.3l-3-4.5l3.4-1.7l3,4.5L63.2,147.3z M61.9,143.2l1.7,2.5l1.3-0.7l-1.7-2.5L61.9,143.2z"/>
<path class="st0" d="M108.6,189.6c-0.1,0-0.1,0-0.2,0l-36-20.1c-0.2-0.1-0.2-0.3-0.1-0.5c0.1-0.2,0.3-0.2,0.5-0.1l36,20.1
	c0.2,0.1,0.2,0.3,0.1,0.5C108.9,189.6,108.8,189.6,108.6,189.6z"/>
<path class="st0" d="M108.6,200.6c-0.1,0-0.1,0-0.2,0l-36-20.1c-0.2-0.1-0.2-0.3-0.1-0.5c0.1-0.2,0.3-0.2,0.5-0.1l36,20.1
	c0.2,0.1,0.2,0.3,0.1,0.5C108.9,200.6,108.8,200.6,108.6,200.6z"/>
<path class="st0" d="M98.8,189.5c-0.1,0-0.1,0-0.2,0l-26.1-14.6c-0.2-0.1-0.2-0.3-0.1-0.5c0.1-0.2,0.3-0.2,0.5-0.1l26.1,14.6
	c0.2,0.1,0.2,0.3,0.1,0.5C99,189.4,98.9,189.5,98.8,189.5z"/>
<g>
	<g>
		<polygon class="st1" points="59.7,171.2 56.8,166.9 62.5,164 65.3,168.2 64.4,168.8 62.1,165.4 58.3,167.3 60.6,170.6 		"/>
		
			<rect x="60.1" y="165.7" transform="matrix(0.8318 -0.555 0.555 0.8318 -82.4862 61.7588)" class="st1" width="1.1" height="2.6"/>
	</g>
	<g>
		<polygon class="st1" points="64.3,178.1 61.5,173.9 62.4,173.3 64.6,176.7 68.4,174.8 66.2,171.5 67.1,170.9 70,175.2 		"/>
		
			<rect x="65.6" y="173.8" transform="matrix(0.8318 -0.555 0.555 0.8318 -86.0899 66.1429)" class="st1" width="1.1" height="2.6"/>
	</g>
	<g>
		<polygon class="st1" points="66.9,174.6 66.4,173.7 68.4,172.7 64.3,166.5 62.2,167.5 61.7,166.6 64.6,165.1 70,173.1 		"/>
		
			<rect x="65.3" y="169.2" transform="matrix(0.8937 -0.4487 0.4487 0.8937 -69.116 47.7005)" class="st1" width="1.6" height="1.1"/>
	</g>
	<g>
		<polygon class="st1" points="62.1,177 56.8,169 59.9,167.5 60.4,168.4 58.3,169.5 62.5,175.7 64.6,174.6 65.1,175.5 		"/>
		
			<rect x="59.9" y="171.9" transform="matrix(0.8937 -0.4487 0.4487 0.8937 -70.9165 45.5527)" class="st1" width="1.6" height="1.1"/>
	</g>
</g>
<path class="st1" d="M63.2,174.1l-3-4.5l3.4-1.7l3,4.5L63.2,174.1z M61.9,170.1l1.7,2.5l1.3-0.7l-1.7-2.5L61.9,170.1z"/>
<path class="st0" d="M108.6,217.4c-0.1,0-0.1,0-0.2,0l-36-20.1c-0.2-0.1-0.2-0.3-0.1-0.5c0.1-0.2,0.3-0.2,0.5-0.1l36,20.1
	c0.2,0.1,0.2,0.3,0.1,0.5C108.9,217.3,108.8,217.4,108.6,217.4z"/>
<path class="st0" d="M108.6,228.4c-0.1,0-0.1,0-0.2,0l-36-20.1c-0.2-0.1-0.2-0.3-0.1-0.5c0.1-0.2,0.3-0.2,0.5-0.1l36,20.1
	c0.2,0.1,0.2,0.3,0.1,0.5C108.9,228.3,108.8,228.4,108.6,228.4z"/>
<path class="st0" d="M98.8,217.3c-0.1,0-0.1,0-0.2,0l-26.1-14.6c-0.2-0.1-0.2-0.3-0.1-0.5c0.1-0.2,0.3-0.2,0.5-0.1l26.1,14.6
	c0.2,0.1,0.2,0.3,0.1,0.5C99,217.2,98.9,217.3,98.8,217.3z"/>
<g>
	<g>
		<polygon class="st1" points="59.7,198.9 56.8,194.6 62.5,191.8 65.3,196 64.4,196.6 62.1,193.1 58.3,195 60.6,198.4 		"/>
		
			<rect x="60.1" y="193.4" transform="matrix(0.8318 -0.555 0.555 0.8318 -97.8876 66.4254)" class="st1" width="1.1" height="2.6"/>
	</g>
	<g>
		<polygon class="st1" points="64.3,205.8 61.5,201.6 62.4,201.1 64.6,204.5 68.4,202.6 66.2,199.3 67.1,198.7 70,203 		"/>
		
			<rect x="65.6" y="201.6" transform="matrix(0.8317 -0.5552 0.5552 0.8317 -101.5182 70.8439)" class="st1" width="1.1" height="2.6"/>
	</g>
	<g>
		<polygon class="st1" points="66.9,202.4 66.4,201.4 68.4,200.4 64.3,194.2 62.2,195.3 61.7,194.3 64.6,192.9 70,200.8 		"/>
		
			<rect x="65.3" y="196.9" transform="matrix(0.8937 -0.4487 0.4487 0.8937 -81.5663 50.6505)" class="st1" width="1.6" height="1.1"/>
	</g>
	<g>
		<polygon class="st1" points="62.1,204.8 56.8,196.8 59.9,195.2 60.4,196.2 58.3,197.2 62.5,203.4 64.6,202.3 65.1,203.3 		"/>
		
			<rect x="59.9" y="199.6" transform="matrix(0.8937 -0.4487 0.4487 0.8937 -83.3668 48.5027)" class="st1" width="1.6" height="1.1"/>
	</g>
</g>
<path class="st1" d="M63.2,201.9l-3-4.5l3.4-1.7l3,4.5L63.2,201.9z M61.9,197.9l1.7,2.5l1.3-0.7l-1.7-2.5L61.9,197.9z"/>
<path class="st0" d="M51.8,211.5c-0.1,0-0.1,0-0.2,0l-36-20.1c-0.2-0.1-0.2-0.3-0.1-0.5c0.1-0.2,0.3-0.2,0.5-0.1l36,20.1
	c0.2,0.1,0.2,0.3,0.1,0.5C52.1,211.4,52,211.5,51.8,211.5z"/>
<path class="st0" d="M51.8,222.5c-0.1,0-0.1,0-0.2,0l-36-20.1c-0.2-0.1-0.2-0.3-0.1-0.5c0.1-0.2,0.3-0.2,0.5-0.1l36,20.1
	c0.2,0.1,0.2,0.3,0.1,0.5C52.1,222.4,52,222.5,51.8,222.5z"/>
<path class="st0" d="M42,211.3c-0.1,0-0.1,0-0.2,0l-26.1-14.6c-0.2-0.1-0.2-0.3-0.1-0.5c0.1-0.2,0.3-0.2,0.5-0.1l26.1,14.6
	c0.2,0.1,0.2,0.3,0.1,0.5C42.2,211.3,42.1,211.3,42,211.3z"/>
<g>
	<g>
		<polygon class="st1" points="2.9,193 0,188.7 5.7,185.8 8.5,190 7.6,190.6 5.3,187.2 1.5,189.1 3.8,192.4 		"/>
		<rect x="3.3" y="187.5" transform="matrix(0.8318 -0.555 0.555 0.8318 -104.1447 33.9)" class="st1" width="1.1" height="2.6"/>
	</g>
	<g>
		<polygon class="st1" points="7.5,199.9 4.7,195.7 5.6,195.1 7.8,198.5 11.6,196.6 9.4,193.3 10.3,192.7 13.2,197.1 		"/>
		
			<rect x="8.8" y="195.6" transform="matrix(0.8318 -0.555 0.555 0.8318 -107.7485 38.2835)" class="st1" width="1.1" height="2.6"/>
	</g>
	<g>
		<polygon class="st1" points="10.1,196.4 9.6,195.5 11.6,194.5 7.5,188.3 5.4,189.4 4.9,188.4 7.8,186.9 13.2,194.9 		"/>
		<rect x="8.5" y="191" transform="matrix(0.8937 -0.4487 0.4487 0.8937 -84.941 24.5329)" class="st1" width="1.6" height="1.1"/>
	</g>
	<g>
		<polygon class="st1" points="5.3,198.8 0,190.9 3.1,189.3 3.6,190.3 1.5,191.3 5.7,197.5 7.8,196.4 8.3,197.3 		"/>
		
			<rect x="3.1" y="193.7" transform="matrix(0.8937 -0.4487 0.4487 0.8937 -86.7413 22.3855)" class="st1" width="1.6" height="1.1"/>
	</g>
</g>
<path class="st1" d="M6.4,196l-3-4.5l3.4-1.7l3,4.5L6.4,196z M5.1,191.9l1.7,2.5l1.3-0.7l-1.7-2.5L5.1,191.9z"/>
<path class="st0" d="M108.6,242.9c-0.1,0-0.1,0-0.2,0l-36-20.1c-0.2-0.1-0.2-0.3-0.1-0.5c0.1-0.2,0.3-0.2,0.5-0.1l36,20.1
	c0.2,0.1,0.2,0.3,0.1,0.5C108.9,242.8,108.8,242.9,108.6,242.9z"/>
<path class="st0" d="M108.6,253.9c-0.1,0-0.1,0-0.2,0l-36-20.1c-0.2-0.1-0.2-0.3-0.1-0.5c0.1-0.2,0.3-0.2,0.5-0.1l36,20.1
	c0.2,0.1,0.2,0.3,0.1,0.5C108.9,253.8,108.8,253.9,108.6,253.9z"/>
<path class="st0" d="M98.8,242.8c-0.1,0-0.1,0-0.2,0l-26.1-14.6c-0.2-0.1-0.2-0.3-0.1-0.5c0.1-0.2,0.3-0.2,0.5-0.1l26.1,14.6
	c0.2,0.1,0.2,0.3,0.1,0.5C99,242.7,98.9,242.8,98.8,242.8z"/>
<g>
	<g>
		<polygon class="st1" points="59.7,224.4 56.8,220.1 62.5,217.3 65.3,221.5 64.4,222.1 62.1,218.6 58.3,220.5 60.6,223.9 		"/>
		
			<rect x="60.1" y="218.9" transform="matrix(0.8317 -0.5552 0.5552 0.8317 -112.0728 70.7498)" class="st1" width="1.1" height="2.6"/>
	</g>
	<g>
		<polygon class="st1" points="64.3,231.3 61.5,227.1 62.4,226.6 64.6,230 68.4,228.1 66.2,224.8 67.1,224.2 70,228.5 		"/>
		
			<rect x="65.6" y="227.1" transform="matrix(0.8317 -0.5552 0.5552 0.8317 -115.6772 75.1357)" class="st1" width="1.1" height="2.6"/>
	</g>
	<g>
		<polygon class="st1" points="66.9,227.9 66.4,226.9 68.4,225.9 64.3,219.7 62.2,220.8 61.7,219.8 64.6,218.4 70,226.3 		"/>
		
			<rect x="65.3" y="222.4" transform="matrix(0.8937 -0.4487 0.4487 0.8937 -93.0083 53.3616)" class="st1" width="1.6" height="1.1"/>
	</g>
	<g>
		<polygon class="st1" points="62.1,230.3 56.8,222.3 59.9,220.8 60.4,221.7 58.3,222.7 62.5,228.9 64.6,227.8 65.1,228.8 		"/>
		
			<rect x="59.9" y="225.1" transform="matrix(0.8937 -0.4487 0.4487 0.8937 -94.8091 51.2138)" class="st1" width="1.6" height="1.1"/>
	</g>
</g>
<path class="st1" d="M63.2,227.4l-3-4.5l3.4-1.7l3,4.5L63.2,227.4z M61.9,223.4l1.7,2.5l1.3-0.7l-1.7-2.5L61.9,223.4z"/>
</svg>
