<?xml version="1.0" encoding="utf-8"?>
<!-- Generator: Adobe Illustrator 21.1.0, SVG Export Plug-In . SVG Version: 6.00 Build 0)  -->
<svg version="1.1" id="Layer_1" xmlns="http://www.w3.org/2000/svg" xmlns:xlink="http://www.w3.org/1999/xlink" x="0px" y="0px"
	 viewBox="0 0 119.4 87.5" style="enable-background:new 0 0 119.4 87.5;" xml:space="preserve">
<style type="text/css">
	.st0{fill:url(#SVGID_1_);}
	.st1{fill:url(#SVGID_2_);}
	.st2{fill:#1A2147;}
	.st3{fill:#D5B865;}
</style>
<linearGradient id="SVGID_1_" gradientUnits="userSpaceOnUse" x1="-5.6955" y1="44.7981" x2="54.4955" y2="30.9019" gradientTransform="matrix(1 0 0 -1 0 90)">
	<stop  offset="0" style="stop-color:#134071"/>
	<stop  offset="1" style="stop-color:#25527F"/>
</linearGradient>
<polygon class="st0" points="48.1,86.8 0.7,60.6 0.7,17.5 48.1,43.7 "/>
<linearGradient id="SVGID_2_" gradientUnits="userSpaceOnUse" x1="48.1" y1="46.25" x2="118.7" y2="46.25" gradientTransform="matrix(1 0 0 -1 0 90)">
	<stop  offset="0" style="stop-color:#134071"/>
	<stop  offset="1" style="stop-color:#25527F"/>
</linearGradient>
<polygon class="st1" points="48.1,86.8 48.1,43.7 118.7,0.7 118.7,43.8 "/>
<path class="st2" d="M48.1,87.5c-0.1,0-0.2,0-0.3-0.1L0.4,61.2C0,61-0.1,60.6,0.1,60.3C0.3,59.9,0.7,59.8,1,60l47.1,26l70.3-42.8
	c0.3-0.2,0.8-0.1,1,0.2s0.1,0.8-0.2,1l-70.6,43C48.4,87.5,48.3,87.5,48.1,87.5z"/>
<g>
	<g>
		<g>
			<polygon class="st3" points="17.3,55.2 12.7,48.3 21.6,43.9 26.1,50.6 25.1,51.3 21.2,45.4 14.4,48.8 18.3,54.6 			"/>
			
				<rect x="18.1" y="46.2" transform="matrix(0.8318 -0.5551 0.5551 0.8318 -23.721 18.5105)" class="st3" width="1.2" height="4.4"/>
		</g>
		<g>
			<polygon class="st3" points="24.8,66.5 20.3,59.7 21.3,59.1 25.2,65 32,61.6 28.1,55.8 29.1,55.1 33.7,62 			"/>
			
				<rect x="27.1" y="59.8" transform="matrix(0.8317 -0.5552 0.5552 0.8317 -29.7497 25.829)" class="st3" width="1.2" height="4.4"/>
		</g>
		<g>
			<polygon class="st3" points="28.9,60.9 28.3,59.8 32,58 24.8,47.2 21,49.1 20.5,48 25.2,45.7 33.7,58.4 			"/>
			
				<rect x="26.3" y="52.3" transform="matrix(0.894 -0.4481 0.4481 0.894 -20.7855 17.9989)" class="st3" width="2.7" height="1.2"/>
		</g>
		<g>
			<polygon class="st3" points="21.2,64.7 12.7,51.9 17.5,49.5 18,50.6 14.4,52.4 21.6,63.2 25.4,61.3 25.9,62.4 			"/>
			
				<rect x="17.3" y="56.9" transform="matrix(0.894 -0.4481 0.4481 0.894 -23.7897 14.4651)" class="st3" width="2.7" height="1.2"/>
		</g>
	</g>
	<path class="st3" d="M23,59.9L18.4,53l5-2.5l4.6,6.9L23,59.9z M20.3,53.5l3.2,4.7l2.7-1.4L23,52.1L20.3,53.5z"/>
</g>
<path class="st2" d="M28.9,42.4c-0.1,0-0.2,0-0.3-0.1l-13.4-7.4c-0.3-0.2-0.5-0.6-0.3-0.9c0.2-0.3,0.6-0.5,0.9-0.3l13.4,7.4
	c0.3,0.2,0.5,0.6,0.3,0.9C29.3,42.3,29.1,42.4,28.9,42.4z"/>
<path class="st2" d="M48.1,44.4c-0.2,0-0.5-0.1-0.6-0.3c-0.2-0.3-0.1-0.8,0.2-1l70.6-43c0.3-0.2,0.8-0.1,1,0.2s0.1,0.8-0.2,1
	l-70.6,43C48.3,44.3,48.2,44.4,48.1,44.4z"/>
<path class="st2" d="M48.1,86.6c-0.4,0-0.7-0.3-0.7-0.7V44.1l-47-26c-0.3-0.2-0.5-0.6-0.3-0.9s0.6-0.5,0.9-0.3l47.4,26.2
	c0.2,0.1,0.4,0.4,0.4,0.6v42.2C48.8,86.3,48.5,86.6,48.1,86.6z"/>
<path class="st2" d="M0.7,61.3C0.3,61.3,0,61,0,60.6V17.5c0-0.4,0.3-0.7,0.7-0.7s0.7,0.3,0.7,0.7v43.1C1.4,61,1.1,61.3,0.7,61.3z"/>
</svg>
